<svg width="263" height="56" viewBox="0 0 263 56" fill="none" xmlns="http://www.w3.org/2000/svg">
<g clip-path="url(#clip0_5010_1557)">
<path d="M94.2895 25.8428C94.2895 26.1218 94.2401 26.4212 94.1413 26.7408C94.0483 27.0605 93.8914 27.3569 93.6705 27.6301C93.4555 27.9033 93.1736 28.1329 92.8248 28.3189C92.4761 28.499 92.0489 28.5891 91.5432 28.5891H82.9382C82.7755 28.5891 82.6244 28.5601 82.4849 28.5019C82.3454 28.4438 82.2233 28.3654 82.1187 28.2666C82.0199 28.1619 81.9414 28.0399 81.8833 27.9004C81.8252 27.7609 81.7961 27.6098 81.7961 27.447V17.2291C81.7961 17.0722 81.8252 16.924 81.8833 16.7845C81.9414 16.645 82.0199 16.5229 82.1187 16.4183C82.2233 16.3137 82.3454 16.2323 82.4849 16.1742C82.6244 16.1161 82.7755 16.087 82.9382 16.087H90.5232C90.8022 16.087 91.1015 16.1364 91.4212 16.2352C91.7409 16.334 92.0373 16.4939 92.3105 16.7147C92.5894 16.9298 92.819 17.2117 92.9992 17.5604C93.1852 17.9091 93.2782 18.3363 93.2782 18.842V19.2692C93.2782 19.6703 93.2113 20.1033 93.0777 20.5682C92.944 21.0274 92.7289 21.4633 92.4325 21.876C92.6882 22.0329 92.9265 22.2218 93.1474 22.4427C93.3741 22.6636 93.5717 22.9193 93.7403 23.2099C93.9088 23.5005 94.0425 23.8289 94.1413 24.1951C94.2401 24.5613 94.2895 24.9652 94.2895 25.4069V25.8428ZM92.0227 25.4069C92.0227 25.1105 91.9762 24.8461 91.8833 24.6136C91.7903 24.3753 91.6595 24.1718 91.4909 24.0033C91.3224 23.8347 91.1189 23.7069 90.8806 23.6197C90.6423 23.5267 90.375 23.4802 90.0786 23.4802H84.9696V21.196H89.0585C89.3549 21.196 89.6223 21.1524 89.8606 21.0652C90.0989 20.9722 90.3023 20.8414 90.4709 20.6729C90.6394 20.5043 90.7673 20.3038 90.8545 20.0713C90.9475 19.833 90.994 19.5656 90.994 19.2692V18.842C90.994 18.5165 90.8371 18.3538 90.5232 18.3538H84.0629V26.3224H91.5432C91.5839 26.3224 91.6333 26.3195 91.6915 26.3136C91.7496 26.3078 91.8019 26.2904 91.8484 26.2613C91.8949 26.2323 91.9356 26.1829 91.9704 26.1131C92.0053 26.0434 92.0227 25.9475 92.0227 25.8254V25.4069Z" fill="#161312"/>
<path d="M106.548 23.4802H99.3898V21.196H106.548V23.4802ZM107.568 28.5891H99.3898C99.0759 28.5891 98.733 28.5339 98.361 28.4235C97.989 28.313 97.6432 28.1329 97.3235 27.8829C97.0096 27.6272 96.7452 27.2988 96.5301 26.8978C96.3209 26.4909 96.2163 25.994 96.2163 25.4069V17.2291C96.2163 17.0722 96.2453 16.924 96.3035 16.7845C96.3616 16.645 96.44 16.5229 96.5389 16.4183C96.6435 16.3137 96.7655 16.2323 96.905 16.1742C97.0445 16.1161 97.1956 16.087 97.3584 16.087H107.568V18.3538H98.483V25.4069C98.483 25.7034 98.5615 25.93 98.7184 26.087C98.8754 26.2439 99.105 26.3224 99.4072 26.3224H107.568V28.5891Z" fill="#161312"/>
<path d="M127.838 28.5891H125.571V25.5203H117.602V28.5891H115.336V22.3381C115.336 21.4255 115.493 20.5857 115.806 19.8185C116.12 19.0513 116.556 18.3916 117.114 17.8394C117.672 17.2872 118.332 16.8571 119.093 16.5491C119.855 16.241 120.686 16.087 121.587 16.087H126.696C126.853 16.087 127.001 16.1161 127.14 16.1742C127.28 16.2323 127.402 16.3137 127.506 16.4183C127.611 16.5229 127.692 16.645 127.751 16.7845C127.809 16.924 127.838 17.0722 127.838 17.2291V28.5891ZM117.602 23.2535H125.571V18.3538H121.587C121.517 18.3538 121.369 18.3654 121.142 18.3887C120.921 18.4061 120.663 18.4555 120.366 18.5369C120.076 18.6182 119.767 18.7432 119.442 18.9118C119.116 19.0803 118.817 19.3128 118.544 19.6092C118.271 19.9057 118.044 20.2776 117.864 20.7252C117.69 21.1669 117.602 21.7045 117.602 22.3381V23.2535Z" fill="#161312"/>
<path d="M141.778 18.3538H136.783V28.5891H134.516V18.3538H129.512V16.087H141.778V18.3538Z" fill="#161312"/>
<path d="M158.003 28.5891H155.719V21.1437L151.7 28.2142C151.601 28.3944 151.462 28.531 151.281 28.624C151.107 28.717 150.918 28.7635 150.715 28.7635C150.517 28.7635 150.331 28.717 150.157 28.624C149.988 28.531 149.854 28.3944 149.756 28.2142L145.719 21.1437V28.5891H143.452V17.0547C143.452 16.7932 143.528 16.5607 143.679 16.3573C143.836 16.1539 144.039 16.0173 144.289 15.9475C144.411 15.9185 144.533 15.9097 144.655 15.9214C144.777 15.9272 144.894 15.9533 145.004 15.9998C145.12 16.0405 145.225 16.1015 145.318 16.1829C145.411 16.2585 145.49 16.3515 145.553 16.4619L150.715 25.4331L155.876 16.4619C156.01 16.241 156.193 16.0841 156.425 15.9911C156.664 15.8981 156.911 15.8836 157.166 15.9475C157.41 16.0173 157.611 16.1539 157.768 16.3573C157.925 16.5607 158.003 16.7932 158.003 17.0547V28.5891Z" fill="#161312"/>
<path d="M173.766 23.5325C173.766 24.2939 173.635 24.9943 173.374 25.6336C173.112 26.273 172.749 26.8251 172.284 27.2901C171.819 27.7551 171.267 28.1183 170.627 28.3799C169.994 28.6356 169.302 28.7635 168.552 28.7635H165.484C164.734 28.7635 164.039 28.6356 163.4 28.3799C162.761 28.1183 162.208 27.7551 161.743 27.2901C161.278 26.8251 160.912 26.273 160.645 25.6336C160.383 24.9943 160.253 24.2939 160.253 23.5325V21.1437C160.253 20.3881 160.383 19.6906 160.645 19.0513C160.912 18.4061 161.278 17.8539 161.743 17.3948C162.208 16.9298 162.761 16.5665 163.4 16.305C164.039 16.0434 164.734 15.9126 165.484 15.9126H168.552C169.302 15.9126 169.994 16.0434 170.627 16.305C171.267 16.5665 171.819 16.9298 172.284 17.3948C172.749 17.8539 173.112 18.4061 173.374 19.0513C173.635 19.6906 173.766 20.3881 173.766 21.1437V23.5325ZM171.499 21.1437C171.499 20.6961 171.427 20.2922 171.281 19.9318C171.142 19.5656 170.941 19.2547 170.68 18.9989C170.424 18.7374 170.113 18.5369 169.747 18.3974C169.387 18.2521 168.988 18.1794 168.552 18.1794H165.484C165.042 18.1794 164.638 18.2521 164.272 18.3974C163.911 18.5369 163.6 18.7374 163.339 18.9989C163.077 19.2547 162.874 19.5656 162.729 19.9318C162.589 20.2922 162.519 20.6961 162.519 21.1437V23.5325C162.519 23.98 162.589 24.3869 162.729 24.7531C162.874 25.1134 163.077 25.4244 163.339 25.6859C163.6 25.9417 163.911 26.1422 164.272 26.2875C164.638 26.427 165.042 26.4967 165.484 26.4967H168.535C168.977 26.4967 169.378 26.427 169.738 26.2875C170.104 26.1422 170.418 25.9417 170.68 25.6859C170.941 25.4244 171.142 25.1134 171.281 24.7531C171.427 24.3869 171.499 23.98 171.499 23.5325V21.1437Z" fill="#161312"/>
<path d="M187.201 28.5891H179.023C178.814 28.5891 178.587 28.5659 178.343 28.5194C178.105 28.4671 177.867 28.3886 177.628 28.284C177.396 28.1794 177.172 28.0457 176.957 27.8829C176.742 27.7144 176.55 27.5139 176.382 27.2814C176.219 27.0431 176.088 26.7699 175.989 26.4619C175.89 26.148 175.841 25.7964 175.841 25.4069V19.2692C175.841 19.06 175.864 18.8362 175.911 18.5979C175.963 18.3538 176.042 18.1155 176.146 17.883C176.251 17.6447 176.387 17.418 176.556 17.203C176.724 16.9879 176.925 16.799 177.157 16.6363C177.396 16.4677 177.669 16.334 177.977 16.2352C178.285 16.1364 178.634 16.087 179.023 16.087H187.201V18.3538H179.023C178.727 18.3538 178.5 18.4322 178.343 18.5892C178.186 18.7461 178.108 18.9786 178.108 19.2867V25.4069C178.108 25.6975 178.186 25.9242 178.343 26.087C178.506 26.2439 178.733 26.3224 179.023 26.3224H187.201V28.5891Z" fill="#161312"/>
<path d="M216.101 23.4802H208.943V21.196H216.101V23.4802ZM217.121 28.5891H208.943C208.629 28.5891 208.286 28.5339 207.914 28.4235C207.542 28.313 207.196 28.1329 206.877 27.8829C206.563 27.6272 206.298 27.2988 206.083 26.8978C205.874 26.4909 205.769 25.994 205.769 25.4069V17.2291C205.769 17.0722 205.798 16.924 205.857 16.7845C205.915 16.645 205.993 16.5229 206.092 16.4183C206.197 16.3137 206.319 16.2323 206.458 16.1742C206.598 16.1161 206.749 16.087 206.911 16.087H217.121V18.3538H208.036V25.4069C208.036 25.7034 208.115 25.93 208.272 26.087C208.428 26.2439 208.658 26.3224 208.96 26.3224H217.121V28.5891Z" fill="#161312"/>
<path d="M232.744 20.2893C232.744 20.8066 232.68 21.2686 232.552 21.6755C232.424 22.0823 232.25 22.4427 232.029 22.7566C231.814 23.0646 231.564 23.3291 231.279 23.5499C230.994 23.7708 230.695 23.9539 230.381 24.0992C230.073 24.2387 229.759 24.3404 229.44 24.4043C229.126 24.4683 228.829 24.5002 228.55 24.5002H223.424V22.2335H228.55C228.835 22.2102 229.094 22.1521 229.326 22.0591C229.565 21.9603 229.768 21.8295 229.937 21.6668C230.111 21.504 230.245 21.3093 230.338 21.0826C230.431 20.8501 230.477 20.5857 230.477 20.2893V18.8594C230.477 18.7316 230.46 18.6357 230.425 18.5717C230.396 18.502 230.355 18.4526 230.303 18.4235C230.256 18.3887 230.204 18.3683 230.146 18.3625C230.094 18.3567 230.044 18.3538 229.998 18.3538H222.517V28.5891H220.251V17.2291C220.251 17.0722 220.28 16.924 220.338 16.7845C220.396 16.645 220.474 16.5229 220.573 16.4183C220.678 16.3137 220.8 16.2323 220.939 16.1742C221.079 16.1161 221.23 16.087 221.393 16.087H229.998C230.503 16.087 230.931 16.18 231.279 16.366C231.628 16.5462 231.91 16.7758 232.125 17.0547C232.346 17.3279 232.503 17.6243 232.596 17.944C232.695 18.2637 232.744 18.563 232.744 18.842V20.2893Z" fill="#161312"/>
<path d="M194.355 24.1253H191.534C191.325 24.1253 191.098 24.1021 190.854 24.0556C190.616 24.0033 190.377 23.9248 190.139 23.8202C189.907 23.7156 189.683 23.5819 189.468 23.4191C189.253 23.2506 189.061 23.0501 188.892 22.8176C188.73 22.5793 188.599 22.3061 188.5 21.9981C188.401 21.6842 188.352 21.3326 188.352 20.9431V19.2692C188.352 19.06 188.375 18.8362 188.422 18.5979C188.474 18.3538 188.552 18.1155 188.657 17.883C188.762 17.6447 188.898 17.418 189.067 17.203C189.235 16.9879 189.436 16.799 189.668 16.6363C189.907 16.4677 190.18 16.334 190.488 16.2352C190.796 16.1364 191.145 16.087 191.534 16.087H194.355V18.3538H191.534C191.238 18.3538 191.011 18.4322 190.854 18.5892C190.697 18.7461 190.619 18.9786 190.619 19.2867V20.9431C190.619 21.2337 190.697 21.4604 190.854 21.6232C191.017 21.7801 191.243 21.8586 191.534 21.8586H194.355V24.1253Z" fill="#161312"/>
<path d="M198.172 24.129H200.993C201.203 24.129 201.429 24.1057 201.673 24.0592C201.912 24.0069 202.15 23.9285 202.388 23.8238C202.621 23.7192 202.845 23.5855 203.06 23.4228C203.275 23.2542 203.467 23.0537 203.635 22.8212C203.798 22.5829 203.929 22.3098 204.027 22.0017C204.126 21.6878 204.176 21.3362 204.176 20.9468V19.2729C204.176 19.0636 204.152 18.8398 204.106 18.6015C204.054 18.3574 203.975 18.1191 203.87 17.8866C203.766 17.6483 203.629 17.4217 203.461 17.2066C203.292 16.9916 203.092 16.8027 202.859 16.6399C202.621 16.4714 202.348 16.3377 202.04 16.2389C201.732 16.1401 201.383 16.0907 200.993 16.0907H198.172V18.3574H200.993C201.29 18.3574 201.517 18.4359 201.673 18.5928C201.83 18.7498 201.909 18.9822 201.909 19.2903V20.9468C201.909 21.2374 201.83 21.4641 201.673 21.6268C201.511 21.7837 201.284 21.8622 200.993 21.8622H198.172V24.129Z" fill="#161312"/>
<path d="M247.469 24.3869C247.469 23.8696 247.405 23.4075 247.277 23.0007C247.15 22.5938 246.975 22.2335 246.754 21.9196C246.539 21.6115 246.289 21.3471 246.005 21.1262C245.72 20.9054 245.42 20.7223 245.107 20.577C244.799 20.4375 244.485 20.3358 244.165 20.2718C243.851 20.2079 243.555 20.1759 243.276 20.1759H238.149V22.4427H243.276C243.561 22.4659 243.819 22.5241 244.052 22.6171C244.29 22.7159 244.493 22.8466 244.662 23.0094C244.836 23.1721 244.97 23.3668 245.063 23.5935C245.156 23.826 245.202 24.0905 245.202 24.3869V25.8167C245.202 25.9446 245.185 26.0405 245.15 26.1044C245.121 26.1741 245.08 26.2235 245.028 26.2526C244.982 26.2875 244.929 26.3078 244.871 26.3136C244.819 26.3195 244.769 26.3224 244.723 26.3224H237.243V16.087H234.976V27.447C234.976 27.604 235.005 27.7522 235.063 27.8917C235.121 28.0312 235.2 28.1532 235.298 28.2578C235.403 28.3625 235.525 28.4438 235.665 28.5019C235.804 28.5601 235.955 28.5891 236.118 28.5891H244.723C245.229 28.5891 245.656 28.4961 246.005 28.3101C246.353 28.13 246.635 27.9004 246.85 27.6214C247.071 27.3482 247.228 27.0518 247.321 26.7321C247.42 26.4124 247.469 26.1131 247.469 25.8341V24.3869Z" fill="#161312"/>
<path d="M65.3516 28.5893V26.3574L66.5686 26.3225V22.3382C66.5686 21.4257 66.7256 20.5858 67.0394 19.8186C67.3533 19.0514 67.7892 18.3917 68.3472 17.8396C68.9052 17.2874 69.5649 16.8573 70.3263 16.5492C71.0877 16.2412 71.9188 16.0872 72.8197 16.0872H77.9287C78.0856 16.0872 78.2338 16.1162 78.3733 16.1744C78.5128 16.2325 78.6348 16.3139 78.7395 16.4185C78.8441 16.5231 78.9255 16.6451 78.9836 16.7846C79.0417 16.9241 79.0708 17.0723 79.0708 17.2293V26.3574H80.5285V28.5893H65.3516ZM68.8354 26.3225H76.804V18.3539H72.8197C72.75 18.3539 72.6017 18.3656 72.3751 18.3888C72.1542 18.4063 71.8956 18.4557 71.5991 18.537C71.3085 18.6184 71.0005 18.7434 70.675 18.9119C70.3495 19.0805 70.0502 19.313 69.777 19.6094C69.5038 19.9058 69.2771 20.2778 69.097 20.7253C68.9226 21.1671 68.8354 21.7047 68.8354 22.3382V26.3225Z" fill="#161312"/>
<path d="M195.248 16.0904H197.48V28.5891H195.248V16.0904Z" fill="#161312"/>
<path d="M248.814 16.0904H251.046V28.5891H248.814V16.0904Z" fill="#161312"/>
<path d="M70.0931 35.5944H65.6922C65.2188 35.5944 64.9821 35.8106 64.9821 36.2431V38.689C64.9821 39.1215 65.2188 39.3377 65.6922 39.3377H70.0931V39.7673L69.9353 39.9514H65.6922C65.2598 39.9514 64.912 39.8374 64.649 39.6095C64.386 39.3816 64.2545 39.0747 64.2545 38.689V36.2431C64.2545 35.8632 64.386 35.5593 64.649 35.3314C64.912 35.0976 65.2598 34.9807 65.6922 34.9807H69.9353L70.0931 35.1736V35.5944ZM77.2357 35.6119H74.3252V39.9514H73.5888V35.6119H70.6695V34.9807H77.2357V35.6119ZM84.5955 36.2431V38.689C84.5955 39.0747 84.4728 39.3816 84.2273 39.6095C83.9818 39.8374 83.6429 39.9514 83.2104 39.9514H79.4758C79.0316 39.9514 78.6809 39.8374 78.4238 39.6095C78.1666 39.3816 78.038 39.0747 78.038 38.689V36.2431C78.038 35.8632 78.1666 35.5593 78.4238 35.3314C78.6868 35.0976 79.0374 34.9807 79.4758 34.9807H83.2104C83.6429 34.9807 83.9818 35.0947 84.2273 35.3226C84.4728 35.5505 84.5955 35.8574 84.5955 36.2431ZM83.8679 38.689V36.2431C83.8679 35.8106 83.6516 35.5944 83.2191 35.5944H79.4758C79.0024 35.5944 78.7657 35.8106 78.7657 36.2431V38.689C78.7657 39.1215 79.0024 39.3377 79.4758 39.3377H83.2191C83.6516 39.3377 83.8679 39.1215 83.8679 38.689Z" fill="#161312"/>
<path d="M99.5894 39.3202H103.412V34.9807H104.139V39.9514H94.3119V34.9807H95.0395V39.3202H98.8618V34.9807H99.5894V39.3202ZM111.422 39.9514V35.6996L106.092 39.9514H105.364V34.9807H106.092V39.2325L111.422 34.9807H112.159V39.9514H111.422ZM119.041 37.7334H114.114V39.9514H113.386V34.9807H114.114V37.1198H119.041V34.9807H119.768V39.9514H119.041V37.7334ZM127.467 36.2431V38.689C127.467 39.0747 127.344 39.3816 127.099 39.6095C126.853 39.8374 126.514 39.9514 126.082 39.9514H122.347C121.903 39.9514 121.552 39.8374 121.295 39.6095C121.038 39.3816 120.909 39.0747 120.909 38.689V36.2431C120.909 35.8632 121.038 35.5593 121.295 35.3314C121.558 35.0976 121.909 34.9807 122.347 34.9807H126.082C126.514 34.9807 126.853 35.0947 127.099 35.3226C127.344 35.5505 127.467 35.8574 127.467 36.2431ZM126.739 38.689V36.2431C126.739 35.8106 126.523 35.5944 126.091 35.5944H122.347C121.874 35.5944 121.637 35.8106 121.637 36.2431V38.689C121.637 39.1215 121.874 39.3377 122.347 39.3377H126.091C126.523 39.3377 126.739 39.1215 126.739 38.689ZM135.227 34.9807H135.963V39.9514H135.227V35.7872L132.623 38.4085H131.931L129.336 35.796V39.9514H128.608V34.9807H129.336L132.281 37.9175L135.227 34.9807ZM143.656 36.2431V38.689C143.656 39.0747 143.533 39.3816 143.288 39.6095C143.043 39.8374 142.704 39.9514 142.271 39.9514H138.536C138.092 39.9514 137.742 39.8374 137.484 39.6095C137.227 39.3816 137.099 39.0747 137.099 38.689V36.2431C137.099 35.8632 137.227 35.5593 137.484 35.3314C137.747 35.0976 138.098 34.9807 138.536 34.9807H142.271C142.704 34.9807 143.043 35.0947 143.288 35.3226C143.533 35.5505 143.656 35.8574 143.656 36.2431ZM142.929 38.689V36.2431C142.929 35.8106 142.712 35.5944 142.28 35.5944H138.536C138.063 35.5944 137.826 35.8106 137.826 36.2431V38.689C137.826 39.1215 138.063 39.3377 138.536 39.3377H142.28C142.712 39.3377 142.929 39.1215 142.929 38.689ZM150.452 37.7334H145.525V39.9514H144.797V34.9807H145.525V37.1198H150.452V34.9807H151.179V39.9514H150.452V37.7334ZM158.633 35.6119H155.722V39.9514H154.986V35.6119H152.066V34.9807H158.633V35.6119ZM159.33 38.2507C159.33 37.8708 159.458 37.5727 159.715 37.3565C159.973 37.1344 160.32 37.0233 160.759 37.0233H164.923V36.2431C164.923 35.8106 164.709 35.5944 164.283 35.5944H159.654V35.1736L159.812 34.9807H164.274C164.707 34.9807 165.043 35.0947 165.282 35.3226C165.528 35.5505 165.65 35.8574 165.65 36.2431V39.9514H165.098L164.975 39.2939C164.736 39.7322 164.312 39.9514 163.704 39.9514H160.759C160.32 39.9514 159.973 39.8374 159.715 39.6095C159.458 39.3816 159.33 39.0747 159.33 38.689V38.2507ZM160.759 39.3377H164.213C164.446 39.3377 164.622 39.2822 164.739 39.1712C164.861 39.0543 164.923 38.8936 164.923 38.689V37.6019H160.759C160.291 37.6019 160.057 37.8182 160.057 38.2507V38.689C160.057 39.1215 160.291 39.3377 160.759 39.3377ZM171.463 34.9807V37.1461H172.892L175.075 34.9807H175.742V35.1823L173.427 37.4617L175.873 39.7673V39.9514H175.119L172.822 37.786H171.463V39.9514H170.736V37.786H169.298L167.001 39.9514H166.326V39.7673L168.772 37.4617L166.458 35.1823V34.9807H167.177L169.368 37.1461H170.736V34.9807H171.463Z" fill="#161312"/>
<path d="M185.089 38.2507C185.089 37.8708 185.217 37.5727 185.475 37.3565C185.732 37.1344 186.079 37.0233 186.518 37.0233H190.682V36.2431C190.682 35.8106 190.469 35.5944 190.042 35.5944H185.413V35.1736L185.571 34.9807H190.033C190.466 34.9807 190.802 35.0947 191.041 35.3226C191.287 35.5505 191.41 35.8574 191.41 36.2431V39.9514H190.857L190.735 39.2939C190.495 39.7322 190.071 39.9514 189.463 39.9514H186.518C186.079 39.9514 185.732 39.8374 185.475 39.6095C185.217 39.3816 185.089 39.0747 185.089 38.689V38.2507ZM186.518 39.3377H189.972C190.206 39.3377 190.381 39.2822 190.498 39.1712C190.621 39.0543 190.682 38.8936 190.682 38.689V37.6019H186.518C186.05 37.6019 185.816 37.8182 185.816 38.2507V38.689C185.816 39.1215 186.05 39.3377 186.518 39.3377ZM192.559 39.9514V34.9807H197.433C197.895 34.9807 198.242 35.0947 198.476 35.3226C198.71 35.5447 198.827 35.8515 198.827 36.2431V36.4097C198.827 36.9532 198.552 37.2922 198.003 37.4266C198.552 37.5727 198.827 37.9205 198.827 38.4698V38.689C198.827 39.0806 198.71 39.3903 198.476 39.6183C198.242 39.8404 197.895 39.9514 197.433 39.9514H192.559ZM197.442 37.7334H193.286V39.3377H197.442C197.874 39.3377 198.09 39.1215 198.09 38.689V38.3734C198.09 37.9468 197.874 37.7334 197.442 37.7334ZM197.433 35.5944H193.286V37.1548H197.442C197.874 37.1548 198.09 36.9386 198.09 36.5061V36.2431C198.09 35.8106 197.871 35.5944 197.433 35.5944ZM206.103 35.6119H203.192V39.9514H202.456V35.6119H199.537V34.9807H206.103V35.6119ZM213.463 36.2431V38.689C213.463 39.0747 213.34 39.3816 213.094 39.6095C212.849 39.8374 212.51 39.9514 212.077 39.9514H208.343C207.899 39.9514 207.548 39.8374 207.291 39.6095C207.034 39.3816 206.905 39.0747 206.905 38.689V36.2431C206.905 35.8632 207.034 35.5593 207.291 35.3314C207.554 35.0976 207.905 34.9807 208.343 34.9807H212.077C212.51 34.9807 212.849 35.0947 213.094 35.3226C213.34 35.5505 213.463 35.8574 213.463 36.2431ZM212.735 38.689V36.2431C212.735 35.8106 212.519 35.5944 212.086 35.5944H208.343C207.869 35.5944 207.633 35.8106 207.633 36.2431V38.689C207.633 39.1215 207.869 39.3377 208.343 39.3377H212.086C212.519 39.3377 212.735 39.1215 212.735 38.689ZM221.223 34.9807H221.959V39.9514H221.223V35.7872L218.619 38.4085H217.926L215.331 35.796V39.9514H214.604V34.9807H215.331L218.277 37.9175L221.223 34.9807ZM229.652 36.2431V38.689C229.652 39.0747 229.529 39.3816 229.284 39.6095C229.038 39.8374 228.699 39.9514 228.267 39.9514H224.532C224.088 39.9514 223.737 39.8374 223.48 39.6095C223.223 39.3816 223.094 39.0747 223.094 38.689V36.2431C223.094 35.8632 223.223 35.5593 223.48 35.3314C223.743 35.0976 224.094 34.9807 224.532 34.9807H228.267C228.699 34.9807 229.038 35.0947 229.284 35.3226C229.529 35.5505 229.652 35.8574 229.652 36.2431ZM228.924 38.689V36.2431C228.924 35.8106 228.708 35.5944 228.275 35.5944H224.532C224.059 35.5944 223.822 35.8106 223.822 36.2431V38.689C223.822 39.1215 224.059 39.3377 224.532 39.3377H228.275C228.708 39.3377 228.924 39.1215 228.924 38.689ZM231.976 34.0777H236.395V34.3407L236.237 34.5248H232.143L231.976 34.3407V34.0777ZM236.851 39.9514V35.6996L231.521 39.9514H230.793V34.9807H231.521V39.2325L236.851 34.9807H237.587V39.9514H236.851ZM239.542 34.9807V37.1461H242.155L244.338 34.9807H244.995V35.1823L242.681 37.4617L245.136 39.7673V39.9514H244.382L242.076 37.786H239.542V39.9514H238.815V34.9807H239.542ZM245.693 38.2507C245.693 37.8708 245.822 37.5727 246.079 37.3565C246.336 37.1344 246.684 37.0233 247.122 37.0233H251.287V36.2431C251.287 35.8106 251.073 35.5944 250.647 35.5944H246.018V35.1736L246.176 34.9807H250.638C251.07 34.9807 251.406 35.0947 251.646 35.3226C251.892 35.5505 252.014 35.8574 252.014 36.2431V39.9514H251.462L251.339 39.2939C251.1 39.7322 250.676 39.9514 250.068 39.9514H247.122C246.684 39.9514 246.336 39.8374 246.079 39.6095C245.822 39.3816 245.693 39.0747 245.693 38.689V38.2507ZM247.122 39.3377H250.577C250.81 39.3377 250.986 39.2822 251.103 39.1712C251.225 39.0543 251.287 38.8936 251.287 38.689V37.6019H247.122C246.655 37.6019 246.421 37.8182 246.421 38.2507V38.689C246.421 39.1215 246.655 39.3377 247.122 39.3377Z" fill="#161312"/>
<mask id="path-5-inside-1_5010_1557" fill="white">
<path d="M36.3682 3.43114C36.3682 4.00531 36.7755 4.49595 37.3337 4.63017C39.6235 5.18067 41.7832 6.06475 43.7591 7.2279C44.302 7.54753 44.9967 7.47862 45.4423 7.03323V7.03323C45.9629 6.51298 46.8066 6.5131 47.327 7.0335L52.2801 11.9866C52.7931 12.4996 52.7929 13.3313 52.2798 13.8442V13.8442C51.8385 14.2853 51.7719 14.974 52.0919 15.5098C53.2338 17.4218 54.114 19.5081 54.6813 21.7201C54.8531 22.39 55.4491 22.8784 56.1406 22.8784V22.8784C56.9437 22.8784 57.6006 23.5294 57.6006 24.3325V31.021C57.6006 31.8241 56.9496 32.4751 56.1465 32.4751H56.098C55.4098 32.4751 54.8206 32.9589 54.6458 33.6244C54.0702 35.8148 53.1878 37.8806 52.0478 39.7738C51.7102 40.3344 51.7777 41.0575 52.2404 41.5202V41.5202C52.7759 42.0557 52.7759 42.9238 52.2404 43.4593L47.3958 48.3039C46.8374 48.8623 45.9321 48.8623 45.3738 48.3039V48.3039C44.898 47.8282 44.1572 47.7526 43.5743 48.0887C41.7074 49.1649 39.6797 49.9929 37.5358 50.5283C36.8615 50.6968 36.3682 51.2899 36.3682 51.985V52.2515C36.3682 53.0545 35.7171 53.7056 34.9141 53.7056H28.1709C27.3678 53.7056 26.7168 53.0545 26.7168 52.2515V51.8554C26.7168 51.1721 26.2396 50.5856 25.5802 50.4065C23.5271 49.8488 21.5853 49.0216 19.7949 47.9645C19.1999 47.6132 18.4373 47.6866 17.9489 48.1754L17.8388 48.2856C17.271 48.854 16.3499 48.8542 15.7818 48.2861L11.0141 43.5177C10.4464 42.9499 10.4464 42.0295 11.014 41.4616L11.1497 41.3258C11.6356 40.8396 11.7104 40.082 11.3642 39.4881C10.2991 37.6614 9.47197 35.6791 8.92545 33.5832C8.75807 32.9414 8.18997 32.4751 7.52665 32.4751V32.4751C6.75254 32.4751 6.125 31.8476 6.125 31.0734V24.2594C6.125 23.4967 6.74328 22.8784 7.50597 22.8784V22.8784C8.16276 22.8784 8.72439 22.4146 8.88585 21.778C9.4204 19.6703 10.2383 17.6756 11.2965 15.8368C11.6378 15.2437 11.561 14.4902 11.0772 14.0064L11.0146 13.9438C10.4467 13.3759 10.4467 12.4552 11.0147 11.8873L15.7905 7.11223C16.3544 6.54838 17.2686 6.54841 17.8325 7.1123V7.1123C18.3198 7.59961 19.0812 7.67043 19.6725 7.31649C21.5379 6.19992 23.5701 5.33355 25.7229 4.76321C26.3 4.61033 26.7168 4.09744 26.7168 3.50044V3.50044C26.7168 2.79878 27.2856 2.22998 27.9873 2.22998H35.167C35.8304 2.22998 36.3682 2.76776 36.3682 3.43114V3.43114Z"/>
</mask>
<path d="M36.3682 3.43114C36.3682 4.00531 36.7755 4.49595 37.3337 4.63017C39.6235 5.18067 41.7832 6.06475 43.7591 7.2279C44.302 7.54753 44.9967 7.47862 45.4423 7.03323V7.03323C45.9629 6.51298 46.8066 6.5131 47.327 7.0335L52.2801 11.9866C52.7931 12.4996 52.7929 13.3313 52.2798 13.8442V13.8442C51.8385 14.2853 51.7719 14.974 52.0919 15.5098C53.2338 17.4218 54.114 19.5081 54.6813 21.7201C54.8531 22.39 55.4491 22.8784 56.1406 22.8784V22.8784C56.9437 22.8784 57.6006 23.5294 57.6006 24.3325V31.021C57.6006 31.8241 56.9496 32.4751 56.1465 32.4751H56.098C55.4098 32.4751 54.8206 32.9589 54.6458 33.6244C54.0702 35.8148 53.1878 37.8806 52.0478 39.7738C51.7102 40.3344 51.7777 41.0575 52.2404 41.5202V41.5202C52.7759 42.0557 52.7759 42.9238 52.2404 43.4593L47.3958 48.3039C46.8374 48.8623 45.9321 48.8623 45.3738 48.3039V48.3039C44.898 47.8282 44.1572 47.7526 43.5743 48.0887C41.7074 49.1649 39.6797 49.9929 37.5358 50.5283C36.8615 50.6968 36.3682 51.2899 36.3682 51.985V52.2515C36.3682 53.0545 35.7171 53.7056 34.9141 53.7056H28.1709C27.3678 53.7056 26.7168 53.0545 26.7168 52.2515V51.8554C26.7168 51.1721 26.2396 50.5856 25.5802 50.4065C23.5271 49.8488 21.5853 49.0216 19.7949 47.9645C19.1999 47.6132 18.4373 47.6866 17.9489 48.1754L17.8388 48.2856C17.271 48.854 16.3499 48.8542 15.7818 48.2861L11.0141 43.5177C10.4464 42.9499 10.4464 42.0295 11.014 41.4616L11.1497 41.3258C11.6356 40.8396 11.7104 40.082 11.3642 39.4881C10.2991 37.6614 9.47197 35.6791 8.92545 33.5832C8.75807 32.9414 8.18997 32.4751 7.52665 32.4751V32.4751C6.75254 32.4751 6.125 31.8476 6.125 31.0734V24.2594C6.125 23.4967 6.74328 22.8784 7.50597 22.8784V22.8784C8.16276 22.8784 8.72439 22.4146 8.88585 21.778C9.4204 19.6703 10.2383 17.6756 11.2965 15.8368C11.6378 15.2437 11.561 14.4902 11.0772 14.0064L11.0146 13.9438C10.4467 13.3759 10.4467 12.4552 11.0147 11.8873L15.7905 7.11223C16.3544 6.54838 17.2686 6.54841 17.8325 7.1123V7.1123C18.3198 7.59961 19.0812 7.67043 19.6725 7.31649C21.5379 6.19992 23.5701 5.33355 25.7229 4.76321C26.3 4.61033 26.7168 4.09744 26.7168 3.50044V3.50044C26.7168 2.79878 27.2856 2.22998 27.9873 2.22998H35.167C35.8304 2.22998 36.3682 2.76776 36.3682 3.43114V3.43114Z" fill="#323232"/>
<path d="M25.7229 4.76321L25.6857 4.62265L25.7229 4.76321ZM19.6725 7.31649L19.5978 7.19172L19.6725 7.31649ZM15.7905 7.11223L15.6876 7.0094L15.7905 7.11223ZM11.0146 13.9438L10.9118 14.0466L11.0146 13.9438ZM11.0147 11.8873L10.9119 11.7845L11.0147 11.8873ZM11.0772 14.0064L11.18 13.9035L11.0772 14.0064ZM8.92545 33.5832L8.78474 33.6199L8.92545 33.5832ZM11.1497 41.3258L11.2525 41.4286L11.1497 41.3258ZM11.0141 43.5177L11.117 43.4149L11.0141 43.5177ZM17.8388 48.2856L17.9417 48.3884L17.8388 48.2856ZM19.7949 47.9645L19.8688 47.8393L19.7949 47.9645ZM17.9489 48.1754L18.0518 48.2782L17.9489 48.1754ZM25.5802 50.4065L25.6183 50.2662L25.5802 50.4065ZM37.5358 50.5283L37.5006 50.3873L37.5358 50.5283ZM43.5743 48.0887L43.6469 48.2146L43.5743 48.0887ZM52.0478 39.7738L52.1724 39.8488L52.0478 39.7738ZM54.6458 33.6244L54.7864 33.6614L54.6458 33.6244ZM54.6813 21.7201L54.5405 21.7562L54.6813 21.7201ZM52.0919 15.5098L51.967 15.5843L52.0919 15.5098ZM52.2801 11.9866L52.1773 12.0895L52.2801 11.9866ZM47.327 7.0335L47.4298 6.93068L47.327 7.0335ZM43.7591 7.2279L43.8328 7.10259L43.7591 7.2279ZM37.3337 4.63017L37.2997 4.77155C39.5753 5.31863 41.7216 6.19723 43.6853 7.35321L43.7591 7.2279L43.8328 7.10259C41.8448 5.93228 39.6717 5.04271 37.3677 4.48878L37.3337 4.63017ZM47.327 7.0335L47.2241 7.13632L52.1773 12.0895L52.2801 11.9866L52.3829 11.8838L47.4298 6.93068L47.327 7.0335ZM52.0919 15.5098L51.967 15.5843C53.102 17.4846 53.9767 19.558 54.5405 21.7562L54.6813 21.7201L54.8222 21.684C54.2514 19.4582 53.3657 17.359 52.2167 15.4352L52.0919 15.5098ZM57.6006 24.3325H57.4552V31.021H57.6006H57.746V24.3325H57.6006ZM56.1465 32.4751V32.3297H56.098V32.4751V32.6205H56.1465V32.4751ZM54.6458 33.6244L54.5051 33.5875C53.9332 35.7642 53.0562 37.8172 51.9232 39.6988L52.0478 39.7738L52.1724 39.8488C53.3194 37.9439 54.2073 35.8654 54.7864 33.6614L54.6458 33.6244ZM52.2404 43.4593L52.1376 43.3565L47.2929 48.2011L47.3958 48.3039L47.4986 48.4068L52.3432 43.5621L52.2404 43.4593ZM43.5743 48.0887L43.5017 47.9627C41.6463 49.0323 39.6312 49.8551 37.5006 50.3873L37.5358 50.5283L37.5711 50.6694C39.7282 50.1306 41.7685 49.2975 43.6469 48.2146L43.5743 48.0887ZM36.3682 51.985H36.2228V52.2515H36.3682H36.5136V51.985H36.3682ZM34.9141 53.7056V53.5602H28.1709V53.7056V53.851H34.9141V53.7056ZM26.7168 52.2515H26.8622V51.8554H26.7168H26.5714V52.2515H26.7168ZM25.5802 50.4065L25.6183 50.2662C23.578 49.7119 21.6482 48.8898 19.8688 47.8393L19.7949 47.9645L19.721 48.0898C21.5224 49.1533 23.4762 49.9856 25.5421 50.5468L25.5802 50.4065ZM17.9489 48.1754L17.846 48.0727L17.736 48.1829L17.8388 48.2856L17.9417 48.3884L18.0518 48.2782L17.9489 48.1754ZM15.7818 48.2861L15.8847 48.1833L11.117 43.4149L11.0141 43.5177L10.9113 43.6205L15.679 48.3889L15.7818 48.2861ZM11.014 41.4616L11.1168 41.5644L11.2525 41.4286L11.1497 41.3258L11.0468 41.223L10.9111 41.3588L11.014 41.4616ZM11.3642 39.4881L11.4898 39.4149C10.4313 37.5994 9.60927 35.6293 9.06615 33.5465L8.92545 33.5832L8.78474 33.6199C9.33466 35.7288 10.1669 37.7234 11.2386 39.5614L11.3642 39.4881ZM6.125 31.0734H6.27041V24.2594H6.125H5.97959V31.0734H6.125ZM8.88585 21.778L9.0268 21.8137C9.55803 19.7191 10.3708 17.7368 11.4225 15.9093L11.2965 15.8368L11.1704 15.7642C10.1057 17.6144 9.28277 19.6215 8.7449 21.7423L8.88585 21.778ZM11.0772 14.0064L11.18 13.9035L11.1174 13.841L11.0146 13.9438L10.9118 14.0466L10.9743 14.1092L11.0772 14.0064ZM11.0147 11.8873L11.1175 11.9901L15.8933 7.21506L15.7905 7.11223L15.6876 7.0094L10.9119 11.7845L11.0147 11.8873ZM19.6725 7.31649L19.7472 7.44125C21.6011 6.33157 23.6207 5.47057 25.7602 4.90377L25.7229 4.76321L25.6857 4.62265C23.5195 5.19653 21.4748 6.06827 19.5978 7.19172L19.6725 7.31649ZM27.9873 2.22998V2.37539H35.167V2.22998V2.08457H27.9873V2.22998ZM35.167 2.22998V2.37539C35.7501 2.37539 36.2228 2.84806 36.2228 3.43114H36.3682H36.5136C36.5136 2.68745 35.9107 2.08457 35.167 2.08457V2.22998ZM26.7168 3.50044H26.8622C26.8622 2.87909 27.3659 2.37539 27.9873 2.37539V2.22998V2.08457C27.2053 2.08457 26.5714 2.71848 26.5714 3.50044H26.7168ZM25.7229 4.76321L25.7602 4.90377C26.3974 4.73497 26.8622 4.16714 26.8622 3.50044H26.7168H26.5714C26.5714 4.02774 26.2027 4.48568 25.6857 4.62265L25.7229 4.76321ZM17.8325 7.1123L17.7297 7.21512C18.2672 7.75262 19.1024 7.82718 19.7472 7.44125L19.6725 7.31649L19.5978 7.19172C19.0599 7.51368 18.3725 7.44661 17.9353 7.00948L17.8325 7.1123ZM15.7905 7.11223L15.8933 7.21506C16.4004 6.70799 17.2226 6.70802 17.7297 7.21512L17.8325 7.1123L17.9353 7.00948C17.3147 6.38881 16.3084 6.38877 15.6876 7.0094L15.7905 7.11223ZM11.0146 13.9438L11.1174 13.841C10.6063 13.3299 10.6064 12.5012 11.1175 11.9901L11.0147 11.8873L10.9119 11.7845C10.2871 12.4091 10.2871 13.4219 10.9118 14.0466L11.0146 13.9438ZM11.2965 15.8368L11.4225 15.9093C11.7944 15.263 11.7133 14.4369 11.18 13.9035L11.0772 14.0064L10.9743 14.1092C11.4087 14.5436 11.4811 15.2244 11.1704 15.7642L11.2965 15.8368ZM7.50597 22.8784V23.0238C8.23342 23.0238 8.85001 22.5108 9.0268 21.8137L8.88585 21.778L8.7449 21.7423C8.59876 22.3185 8.09209 22.733 7.50597 22.733V22.8784ZM6.125 24.2594H6.27041C6.27041 23.577 6.82359 23.0238 7.50597 23.0238V22.8784V22.733C6.66298 22.733 5.97959 23.4164 5.97959 24.2594H6.125ZM7.52665 32.4751V32.3297C6.83285 32.3297 6.27041 31.7672 6.27041 31.0734H6.125H5.97959C5.97959 31.9279 6.67223 32.6205 7.52665 32.6205V32.4751ZM8.92545 33.5832L9.06615 33.5465C8.88315 32.8447 8.2603 32.3297 7.52665 32.3297V32.4751V32.6205C8.11964 32.6205 8.633 33.038 8.78474 33.6199L8.92545 33.5832ZM11.1497 41.3258L11.2525 41.4286C11.7882 40.8927 11.8671 40.062 11.4898 39.4149L11.3642 39.4881L11.2386 39.5614C11.5538 40.1019 11.4831 40.7866 11.0468 41.223L11.1497 41.3258ZM11.0141 43.5177L11.117 43.4149C10.606 42.9039 10.606 42.0755 11.1168 41.5644L11.014 41.4616L10.9111 41.3588C10.2868 41.9835 10.2868 42.996 10.9113 43.6205L11.0141 43.5177ZM17.8388 48.2856L17.736 48.1829C17.2249 48.6944 16.3959 48.6946 15.8847 48.1833L15.7818 48.2861L15.679 48.3889C16.3039 49.0138 17.3171 49.0136 17.9417 48.3884L17.8388 48.2856ZM19.7949 47.9645L19.8688 47.8393C19.2204 47.4565 18.3844 47.5338 17.846 48.0727L17.9489 48.1754L18.0518 48.2782C18.4902 47.8394 19.1793 47.77 19.721 48.0898L19.7949 47.9645ZM26.7168 51.8554H26.8622C26.8622 51.1022 26.3369 50.4614 25.6183 50.2662L25.5802 50.4065L25.5421 50.5468C26.1424 50.7099 26.5714 51.2419 26.5714 51.8554H26.7168ZM28.1709 53.7056V53.5602C27.4481 53.5602 26.8622 52.9742 26.8622 52.2515H26.7168H26.5714C26.5714 53.1349 27.2875 53.851 28.1709 53.851V53.7056ZM36.3682 52.2515H36.2228C36.2228 52.9742 35.6368 53.5602 34.9141 53.5602V53.7056V53.851C35.7974 53.851 36.5136 53.1348 36.5136 52.2515H36.3682ZM37.5358 50.5283L37.5006 50.3873C36.7658 50.5708 36.2228 51.2188 36.2228 51.985H36.3682H36.5136C36.5136 51.361 36.9571 50.8228 37.5711 50.6694L37.5358 50.5283ZM45.3738 48.3039L45.4766 48.2011C44.9514 47.6759 44.1379 47.5959 43.5017 47.9627L43.5743 48.0887L43.6469 48.2146C44.1765 47.9093 44.8446 47.9805 45.2709 48.4068L45.3738 48.3039ZM47.3958 48.3039L47.2929 48.2011C46.7914 48.7027 45.9782 48.7027 45.4766 48.2011L45.3738 48.3039L45.2709 48.4068C45.8861 49.0219 46.8834 49.0219 47.4986 48.4068L47.3958 48.3039ZM52.2404 41.5202L52.1376 41.623C52.6163 42.1017 52.6163 42.8778 52.1376 43.3565L52.2404 43.4593L52.3432 43.5621C52.9355 42.9699 52.9355 42.0096 52.3432 41.4174L52.2404 41.5202ZM52.0478 39.7738L51.9232 39.6988C51.5533 40.3131 51.6247 41.1102 52.1376 41.623L52.2404 41.5202L52.3432 41.4174C51.9306 41.0048 51.8671 40.3558 52.1724 39.8488L52.0478 39.7738ZM56.098 32.4751V32.3297C55.3395 32.3297 54.6957 32.8623 54.5051 33.5875L54.6458 33.6244L54.7864 33.6614C54.9456 33.0555 55.4802 32.6205 56.098 32.6205V32.4751ZM57.6006 31.021H57.4552C57.4552 31.7438 56.8693 32.3297 56.1465 32.3297V32.4751V32.6205C57.0299 32.6205 57.746 31.9044 57.746 31.021H57.6006ZM56.1406 22.8784V23.0238C56.8642 23.0238 57.4552 23.6105 57.4552 24.3325H57.6006H57.746C57.746 23.4484 57.0232 22.733 56.1406 22.733V22.8784ZM54.6813 21.7201L54.5405 21.7562C54.7278 22.4866 55.3789 23.0238 56.1406 23.0238V22.8784V22.733C55.5193 22.733 54.9785 22.2933 54.8222 21.684L54.6813 21.7201ZM52.2798 13.8442L52.177 13.7413C51.6858 14.2323 51.6149 14.9948 51.967 15.5843L52.0919 15.5098L52.2167 15.4352C51.9289 14.9533 51.9911 14.3383 52.3826 13.947L52.2798 13.8442ZM52.2801 11.9866L52.1773 12.0895C52.6334 12.5456 52.6333 13.2853 52.177 13.7413L52.2798 13.8442L52.3826 13.947C52.9525 13.3774 52.9527 12.4536 52.3829 11.8838L52.2801 11.9866ZM45.4423 7.03323L45.5451 7.13608C46.0089 6.67259 46.7605 6.67269 47.2241 7.13632L47.327 7.0335L47.4298 6.93068C46.8526 6.3535 45.9169 6.35337 45.3395 6.93038L45.4423 7.03323ZM43.7591 7.2279L43.6853 7.35321C44.2819 7.70442 45.0498 7.63107 45.5451 7.13608L45.4423 7.03323L45.3395 6.93038C44.9435 7.32617 44.3221 7.39063 43.8328 7.10259L43.7591 7.2279ZM37.3337 4.63017L37.3677 4.48878C36.8712 4.36941 36.5136 3.93446 36.5136 3.43114H36.3682H36.2228C36.2228 4.07617 36.6797 4.62248 37.2997 4.77155L37.3337 4.63017Z" fill="white" mask="url(#path-5-inside-1_5010_1557)"/>
<circle cx="31.8638" cy="28.0193" r="20.3574" fill="white"/>
<path d="M11.5063 27.9685C11.5063 22.5693 13.6511 17.3914 17.4689 13.5736C21.2866 9.75583 26.4646 7.61103 31.8637 7.61103C37.2629 7.61103 42.4409 9.75583 46.2586 13.5736C50.0764 17.3913 52.2212 22.5693 52.2212 27.9685H50.5433C50.5433 23.0144 48.5753 18.2631 45.0722 14.7601C41.5691 11.257 36.8179 9.28895 31.8637 9.28895C26.9096 9.28895 22.1584 11.257 18.6553 14.7601C15.1522 18.2631 13.1842 23.0144 13.1842 27.9685H11.5063Z" fill="#FE4F02"/>
<path d="M26.0635 39.2773H24.5866V37.278H19.395V39.2773H17.9182V35.2047C17.9182 34.6102 18.0204 34.063 18.2249 33.5632C18.4294 33.0633 18.7134 32.6335 19.0769 32.2738C19.4405 31.9141 19.8703 31.6338 20.3663 31.4331C20.8624 31.2324 21.4039 31.1321 21.9908 31.1321H25.3194C25.4216 31.1321 25.5182 31.151 25.609 31.1889C25.6999 31.2268 25.7794 31.2798 25.8476 31.3479C25.9158 31.4161 25.9688 31.4956 26.0066 31.5865C26.0445 31.6774 26.0635 31.7739 26.0635 31.8762V39.2773ZM19.395 35.8011H24.5866V32.6089H21.9908C21.9454 32.6089 21.8488 32.6165 21.7011 32.6316C21.5572 32.643 21.3887 32.6752 21.1956 32.7282C21.0063 32.7812 20.8056 32.8626 20.5935 32.9724C20.3815 33.0823 20.1864 33.2337 20.0085 33.4268C19.8305 33.62 19.6828 33.8623 19.5654 34.1539C19.4518 34.4417 19.395 34.792 19.395 35.2047V35.8011ZM35.1459 32.6089H31.8912V39.2773H30.4144V32.6089H27.154V31.1321H35.1459V32.6089ZM45.7166 39.2773H44.2284V34.4265L41.6099 39.0331C41.5455 39.1505 41.4546 39.2395 41.3372 39.3001C41.2236 39.3607 41.1005 39.3909 40.968 39.3909C40.8393 39.3909 40.7181 39.3607 40.6045 39.3001C40.4947 39.2395 40.4076 39.1505 40.3432 39.0331L37.7133 34.4265V39.2773H36.2365V31.7626C36.2365 31.5922 36.2857 31.4407 36.3842 31.3082C36.4864 31.1756 36.619 31.0867 36.7818 31.0412C36.8613 31.0223 36.9408 31.0166 37.0203 31.0242C37.0999 31.028 37.1756 31.045 37.2475 31.0753C37.3233 31.1018 37.3914 31.1416 37.452 31.1946C37.5126 31.2438 37.5637 31.3044 37.6054 31.3763L40.968 37.2212L44.3306 31.3763C44.4177 31.2324 44.537 31.1302 44.6885 31.0696C44.8437 31.009 45.0047 30.9996 45.1713 31.0412C45.3303 31.0867 45.461 31.1756 45.5632 31.3082C45.6654 31.4407 45.7166 31.5922 45.7166 31.7626V39.2773Z" fill="#323232"/>
<mask id="path-10-outside-2_5010_1557" maskUnits="userSpaceOnUse" x="25.2114" y="16.2998" width="12" height="13" fill="black">
<rect fill="white" x="25.2114" y="16.2998" width="12" height="13"/>
<path d="M36.3252 28.2998H26.0393V24.5431C26.0393 24.3505 26.0601 24.1474 26.1018 23.9339C26.1486 23.7153 26.2189 23.4992 26.3127 23.2857C26.4064 23.0722 26.5261 22.8692 26.6719 22.6765C26.8229 22.4839 27.0025 22.3146 27.2108 22.1689C27.4243 22.0179 27.669 21.8981 27.945 21.8096C28.2209 21.7211 28.5333 21.6768 28.8822 21.6768H33.4589C33.7349 21.6768 33.9379 21.6091 34.0681 21.4738C34.2035 21.3332 34.2712 21.1301 34.2712 20.8646V19.9664C34.2712 19.6904 34.2035 19.4822 34.0681 19.3416C33.9327 19.201 33.7349 19.1307 33.4745 19.1307H26.9531V17.1001H33.4745C33.8182 17.1001 34.128 17.1443 34.4039 17.2329C34.6799 17.3214 34.922 17.4411 35.1303 17.5921C35.3438 17.7379 35.526 17.9071 35.677 18.0998C35.828 18.2924 35.9503 18.4955 36.0441 18.709C36.143 18.9172 36.2133 19.1307 36.2549 19.3494C36.3018 19.5629 36.3252 19.7633 36.3252 19.9508V20.8646C36.3252 21.3904 36.2289 21.8356 36.0363 22.2001C35.8488 22.5594 35.6119 22.8535 35.3255 23.0826C35.0392 23.3065 34.7294 23.4705 34.3961 23.5747C34.0681 23.6736 33.7609 23.7231 33.4745 23.7231H28.8822C28.7156 23.7231 28.5828 23.7465 28.4839 23.7934C28.3849 23.8402 28.3068 23.9027 28.2496 23.9808C28.1975 24.0589 28.1584 24.1474 28.1324 24.2463C28.1064 24.3453 28.0856 24.4442 28.0699 24.5431V26.2692H36.3252V28.2998Z"/>
</mask>
<path d="M36.3252 28.2998H26.0393V24.5431C26.0393 24.3505 26.0601 24.1474 26.1018 23.9339C26.1486 23.7153 26.2189 23.4992 26.3127 23.2857C26.4064 23.0722 26.5261 22.8692 26.6719 22.6765C26.8229 22.4839 27.0025 22.3146 27.2108 22.1689C27.4243 22.0179 27.669 21.8981 27.945 21.8096C28.2209 21.7211 28.5333 21.6768 28.8822 21.6768H33.4589C33.7349 21.6768 33.9379 21.6091 34.0681 21.4738C34.2035 21.3332 34.2712 21.1301 34.2712 20.8646V19.9664C34.2712 19.6904 34.2035 19.4822 34.0681 19.3416C33.9327 19.201 33.7349 19.1307 33.4745 19.1307H26.9531V17.1001H33.4745C33.8182 17.1001 34.128 17.1443 34.4039 17.2329C34.6799 17.3214 34.922 17.4411 35.1303 17.5921C35.3438 17.7379 35.526 17.9071 35.677 18.0998C35.828 18.2924 35.9503 18.4955 36.0441 18.709C36.143 18.9172 36.2133 19.1307 36.2549 19.3494C36.3018 19.5629 36.3252 19.7633 36.3252 19.9508V20.8646C36.3252 21.3904 36.2289 21.8356 36.0363 22.2001C35.8488 22.5594 35.6119 22.8535 35.3255 23.0826C35.0392 23.3065 34.7294 23.4705 34.3961 23.5747C34.0681 23.6736 33.7609 23.7231 33.4745 23.7231H28.8822C28.7156 23.7231 28.5828 23.7465 28.4839 23.7934C28.3849 23.8402 28.3068 23.9027 28.2496 23.9808C28.1975 24.0589 28.1584 24.1474 28.1324 24.2463C28.1064 24.3453 28.0856 24.4442 28.0699 24.5431V26.2692H36.3252V28.2998Z" fill="#323232"/>
<path d="M36.3252 28.2998V28.4452H36.4706V28.2998H36.3252ZM26.0393 28.2998H25.8939V28.4452H26.0393V28.2998ZM26.1018 23.9339L25.9596 23.9035L25.9591 23.9061L26.1018 23.9339ZM26.6719 22.6765L26.5575 22.5868L26.556 22.5888L26.6719 22.6765ZM27.2108 22.1689L27.2942 22.288L27.2948 22.2876L27.2108 22.1689ZM34.0681 21.4738L33.9634 21.3729L33.9633 21.373L34.0681 21.4738ZM26.9531 19.1307H26.8077V19.2761H26.9531V19.1307ZM26.9531 17.1001V16.9547H26.8077V17.1001H26.9531ZM35.1303 17.5921L35.0449 17.7099L35.0483 17.7122L35.1303 17.5921ZM36.0441 18.709L35.9109 18.7674L35.9127 18.7714L36.0441 18.709ZM36.2549 19.3494L36.112 19.3766L36.1129 19.3806L36.2549 19.3494ZM36.0363 22.2001L35.9077 22.1321L35.9073 22.1328L36.0363 22.2001ZM35.3255 23.0826L35.4151 23.1972L35.4164 23.1962L35.3255 23.0826ZM34.3961 23.5747L34.4381 23.7139L34.4395 23.7135L34.3961 23.5747ZM28.2496 23.9808L28.1322 23.8947L28.1286 23.9001L28.2496 23.9808ZM28.0699 24.5431L27.9263 24.5205L27.9245 24.5317V24.5431H28.0699ZM28.0699 26.2692H27.9245V26.4146H28.0699V26.2692ZM36.3252 26.2692H36.4706V26.1238H36.3252V26.2692ZM36.3252 28.2998V28.1544H26.0393V28.2998V28.4452H36.3252V28.2998ZM26.0393 28.2998H26.1847V24.5431H26.0393H25.8939V28.2998H26.0393ZM26.0393 24.5431H26.1847C26.1847 24.3609 26.2044 24.1672 26.2445 23.9618L26.1018 23.9339L25.9591 23.9061C25.9158 24.1276 25.8939 24.34 25.8939 24.5431H26.0393ZM26.1018 23.9339L26.244 23.9644C26.2887 23.7557 26.3559 23.549 26.4458 23.3442L26.3127 23.2857L26.1795 23.2273C26.082 23.4493 26.0086 23.6748 25.9596 23.9035L26.1018 23.9339ZM26.3127 23.2857L26.4458 23.3442C26.5348 23.1415 26.6487 22.9482 26.7879 22.7643L26.6719 22.6765L26.556 22.5888C26.4036 22.7901 26.278 23.003 26.1795 23.2273L26.3127 23.2857ZM26.6719 22.6765L26.7864 22.7662C26.9282 22.5853 27.0972 22.4259 27.2942 22.288L27.2108 22.1689L27.1274 22.0497C26.9079 22.2034 26.7177 22.3824 26.5575 22.5868L26.6719 22.6765ZM27.2108 22.1689L27.2948 22.2876C27.4949 22.146 27.726 22.0325 27.9894 21.9481L27.945 21.8096L27.9006 21.6711C27.612 21.7637 27.3537 21.8897 27.1268 22.0501L27.2108 22.1689ZM27.945 21.8096L27.9894 21.9481C28.2484 21.865 28.5454 21.8222 28.8822 21.8222V21.6768V21.5314C28.5212 21.5314 28.1934 21.5772 27.9006 21.6711L27.945 21.8096ZM28.8822 21.6768V21.8222H33.4589V21.6768V21.5314H28.8822V21.6768ZM33.4589 21.6768V21.8222C33.7558 21.8222 34.0047 21.7495 34.1729 21.5745L34.0681 21.4738L33.9633 21.373C33.8712 21.4687 33.7139 21.5314 33.4589 21.5314V21.6768ZM34.0681 21.4738L34.1729 21.5746C34.3426 21.3984 34.4166 21.1539 34.4166 20.8646H34.2712H34.1258C34.1258 21.1063 34.0644 21.268 33.9634 21.3729L34.0681 21.4738ZM34.2712 20.8646H34.4166V19.9664H34.2712H34.1258V20.8646H34.2712ZM34.2712 19.9664H34.4166C34.4166 19.6685 34.3435 19.4179 34.1729 19.2407L34.0681 19.3416L33.9634 19.4425C34.0635 19.5464 34.1258 19.7124 34.1258 19.9664H34.2712ZM34.0681 19.3416L34.1729 19.2407C34.0018 19.0631 33.7607 18.9853 33.4745 18.9853V19.1307V19.2761C33.7091 19.2761 33.8636 19.3389 33.9634 19.4425L34.0681 19.3416ZM33.4745 19.1307V18.9853H26.9531V19.1307V19.2761H33.4745V19.1307ZM26.9531 19.1307H27.0985V17.1001H26.9531H26.8077V19.1307H26.9531ZM26.9531 17.1001V17.2455H33.4745V17.1001V16.9547H26.9531V17.1001ZM33.4745 17.1001V17.2455C33.8058 17.2455 34.1003 17.2882 34.3595 17.3713L34.4039 17.2329L34.4484 17.0944C34.1557 17.0005 33.8305 16.9547 33.4745 16.9547V17.1001ZM34.4039 17.2329L34.3595 17.3713C34.6227 17.4557 34.8506 17.569 35.0449 17.7098L35.1303 17.5921L35.2156 17.4744C34.9934 17.3133 34.7371 17.187 34.4484 17.0944L34.4039 17.2329ZM35.1303 17.5921L35.0483 17.7122C35.2501 17.8501 35.4212 18.0092 35.5625 18.1895L35.677 18.0998L35.7914 18.0101C35.6307 17.8051 35.4374 17.6258 35.2123 17.472L35.1303 17.5921ZM35.677 18.0998L35.5625 18.1895C35.7064 18.373 35.8223 18.5656 35.9109 18.7674L36.0441 18.709L36.1772 18.6505C36.0784 18.4253 35.9496 18.2118 35.7914 18.0101L35.677 18.0998ZM36.0441 18.709L35.9127 18.7714C36.0065 18.9688 36.0728 19.1705 36.1121 19.3766L36.2549 19.3494L36.3978 19.3222C36.3537 19.0909 36.2795 18.8656 36.1754 18.6466L36.0441 18.709ZM36.2549 19.3494L36.1129 19.3806C36.1579 19.5855 36.1798 19.7754 36.1798 19.9508H36.3252H36.4706C36.4706 19.7513 36.4457 19.5403 36.397 19.3182L36.2549 19.3494ZM36.3252 19.9508H36.1798V20.8646H36.3252H36.4706V19.9508H36.3252ZM36.3252 20.8646H36.1798C36.1798 21.3731 36.0867 21.7936 35.9077 22.1321L36.0363 22.2001L36.1648 22.268C36.3712 21.8777 36.4706 21.4078 36.4706 20.8646H36.3252ZM36.0363 22.2001L35.9073 22.1328C35.7283 22.4761 35.5037 22.7539 35.2347 22.9691L35.3255 23.0826L35.4164 23.1962C35.7201 22.9532 35.9694 22.6426 36.1652 22.2674L36.0363 22.2001ZM35.3255 23.0826L35.236 22.9681C34.9628 23.1816 34.6686 23.3372 34.3528 23.4359L34.3961 23.5747L34.4395 23.7135C34.7902 23.6039 35.1155 23.4314 35.4151 23.1972L35.3255 23.0826ZM34.3961 23.5747L34.3541 23.4355C34.0372 23.5311 33.7442 23.5777 33.4745 23.5777V23.7231V23.8685C33.7776 23.8685 34.0991 23.8162 34.4381 23.7139L34.3961 23.5747ZM33.4745 23.7231V23.5777H28.8822V23.7231V23.8685H33.4745V23.7231ZM28.8822 23.7231V23.5777C28.7042 23.5777 28.5475 23.6023 28.4216 23.6619L28.4839 23.7934L28.5461 23.9248C28.6181 23.8907 28.7269 23.8685 28.8822 23.8685V23.7231ZM28.4839 23.7934L28.4216 23.6619C28.3037 23.7178 28.2056 23.7948 28.1323 23.8948L28.2496 23.9808L28.3668 24.0668C28.408 24.0106 28.4661 23.9627 28.5461 23.9248L28.4839 23.7934ZM28.2496 23.9808L28.1286 23.9001C28.0668 23.9928 28.0215 24.0963 27.9918 24.2093L28.1324 24.2463L28.273 24.2834C28.2953 24.1986 28.3282 24.1251 28.3706 24.0615L28.2496 23.9808ZM28.1324 24.2463L27.9918 24.2093C27.9645 24.3129 27.9427 24.4166 27.9263 24.5205L28.0699 24.5431L28.2136 24.5658C28.2284 24.4718 28.2482 24.3777 28.273 24.2834L28.1324 24.2463ZM28.0699 24.5431H27.9245V26.2692H28.0699H28.2153V24.5431H28.0699ZM28.0699 26.2692V26.4146H36.3252V26.2692V26.1238H28.0699V26.2692ZM36.3252 26.2692H36.1798V28.2998H36.3252H36.4706V26.2692H36.3252Z" fill="white" mask="url(#path-10-outside-2_5010_1557)"/>
</g>
<defs>
<clipPath id="clip0_5010_1557">
<rect width="263" height="54.1939" fill="white" transform="translate(0 0.903076)"/>
</clipPath>
</defs>
</svg>
