<svg width="331" height="78" viewBox="0 0 331 78" fill="none" xmlns="http://www.w3.org/2000/svg">
<g clip-path="url(#clip0_2060_5855)">
<path d="M62.5734 24.8771C59.4224 19.71 54.6632 15.7191 49.0261 13.5163C43.3889 11.3136 37.1847 11.0205 31.3651 12.6822C25.5454 14.3438 20.4314 17.8684 16.8071 22.7155C13.1829 27.5626 11.2485 33.4648 11.3005 39.5168C11.3526 45.5686 13.3882 51.4366 17.0952 56.2208C20.8023 61.0048 25.9763 64.4409 31.8237 66.0023C37.6711 67.5635 43.869 67.1638 49.4676 64.8646C55.0659 62.5651 59.7558 58.493 62.8177 53.2723L54.6947 48.5081C52.6754 51.9512 49.5822 54.637 45.8897 56.1534C42.1974 57.6702 38.1096 57.9336 34.2529 56.9039C30.3963 55.874 26.9839 53.6078 24.539 50.4527C22.0941 47.2973 20.7515 43.4272 20.7172 39.4357C20.6829 35.4442 21.9587 31.5516 24.3491 28.3547C26.7394 25.1579 30.1122 22.8332 33.9505 21.7373C37.7888 20.6414 41.8806 20.8347 45.5987 22.2875C49.3166 23.7403 52.4553 26.3725 54.5338 29.7804L62.5734 24.8771Z" fill="#EC6606"/>
<path d="M37.7648 8.37109C33.7539 8.52195 29.8121 9.46132 26.1642 11.1356C22.5163 12.8098 19.234 15.1862 16.5046 18.129C13.7751 21.0717 11.652 24.5233 10.2565 28.2866C8.86097 32.05 8.22035 36.0512 8.37121 40.0621C8.52203 44.0728 9.46141 48.0148 11.1357 51.6626C12.8099 55.3103 15.1863 58.5927 18.1291 61.3221C21.0718 64.0516 24.5234 66.1747 28.2867 67.5704C32.05 68.9658 36.0513 69.6064 40.0622 69.4557L39.6711 59.0571C37.0257 59.1566 34.3867 58.734 31.9046 57.8138C29.4227 56.8933 27.1462 55.4931 25.2053 53.6928C23.2645 51.8927 21.6972 49.7278 20.5929 47.3219C19.4887 44.9161 18.8691 42.3164 18.7697 39.671C18.6702 37.0257 19.0927 34.3867 20.0131 31.9045C20.9335 29.4226 22.3338 27.1461 24.1339 25.2053C25.9341 23.2644 28.0989 21.6971 30.5047 20.5929C32.9108 19.4886 35.5105 18.8691 38.1559 18.7696L37.7648 8.37109Z" fill="#2C2E38"/>
<path fill-rule="evenodd" clip-rule="evenodd" d="M31.7498 6.641C31.2851 6.73489 30.8233 6.83857 30.3647 6.9519L29.7675 4.53522C30.2606 4.41336 30.7572 4.30189 31.2569 4.20094C31.7566 4.09998 32.2575 4.00999 32.7593 3.93084L33.1472 6.38985C32.6803 6.46339 32.2146 6.54711 31.7498 6.641ZM27.6409 7.75057C26.7432 8.05621 25.8607 8.3998 24.9957 8.78001L23.9941 6.50104C24.9242 6.09222 25.8732 5.72274 26.8385 5.39406L27.6409 7.75057ZM38.8046 5.99039C37.8598 5.9758 36.9133 6.00176 35.9672 6.0685L35.792 3.58533C36.8092 3.51353 37.8273 3.48566 38.8432 3.50137L38.8046 5.99039ZM22.4485 10.0326C21.6178 10.4865 20.8069 10.9758 20.0182 11.4992L18.6418 9.425C19.4899 8.86218 20.3618 8.33601 21.2551 7.84803L22.4485 10.0326ZM44.4473 6.56417C43.5172 6.38797 42.58 6.25181 41.6383 6.15605L41.8902 3.67947C42.9029 3.78246 43.9105 3.92887 44.9107 4.11833L44.4473 6.56417ZM17.7227 13.1688C16.9831 13.7569 16.2677 14.3775 15.5789 15.0292L13.8681 13.2209C14.6088 12.5201 15.3781 11.8527 16.1734 11.2203L17.7227 13.1688ZM49.9089 8.09411C49.0211 7.76089 48.121 7.46667 47.211 7.21177L47.8825 4.81469C48.8609 5.08877 49.8287 5.40515 50.7835 5.76346L49.9089 8.09411ZM13.6027 17.0667C13.2886 17.4196 12.9816 17.7798 12.682 18.1472C12.3823 18.5146 12.0911 18.8877 11.8085 19.2663L9.8137 17.7771C10.1176 17.37 10.4307 16.9688 10.7529 16.5738C11.0752 16.1787 11.4053 15.7914 11.743 15.4119L13.6027 17.0667ZM53.7891 9.84311C53.3702 9.62085 52.9476 9.40805 52.521 9.20469L53.5925 6.95772C54.0511 7.17638 54.5057 7.40522 54.956 7.6442C55.4062 7.88316 55.8506 8.13135 56.2886 8.3885L55.0284 10.5353C54.621 10.2961 54.2078 10.0653 53.7891 9.84311ZM10.2096 21.6116C9.70956 22.4174 9.24538 23.2429 8.81787 24.0855L6.59789 22.9592C7.05755 22.0532 7.5567 21.1655 8.09438 20.299L10.2096 21.6116ZM59.6553 13.8157C58.9341 13.2051 58.1859 12.6246 57.4122 12.0761L58.852 10.0453C59.6841 10.6352 60.4886 11.2594 61.2638 11.916L59.6553 13.8157ZM7.64358 26.6698C7.28936 27.5474 6.97292 28.4402 6.69529 29.3451L4.31541 28.615C4.61397 27.6419 4.9542 26.6819 5.3351 25.7381L7.64358 26.6698ZM63.6531 17.839C63.046 17.1127 62.4079 16.4129 61.7407 15.7415L63.5063 13.9868C64.2237 14.7088 64.91 15.4613 65.5629 16.2422L63.6531 17.839ZM5.97997 32.0921C5.78137 33.0157 5.62208 33.9495 5.50305 34.8901L3.03336 34.5778C3.16139 33.566 3.33267 32.5622 3.54626 31.5687L5.97997 32.0921ZM66.9042 22.4863C66.4294 21.6655 65.9202 20.867 65.3785 20.0928L67.4184 18.6658C68.0007 19.4983 68.5484 20.357 69.0588 21.2396L66.9042 22.4863ZM5.26798 37.7189C5.24913 38.1908 5.24032 38.6642 5.24172 39.1384C5.2432 39.6122 5.25475 40.0856 5.27644 40.5575L2.78971 40.6717C2.76638 40.1643 2.75392 39.6555 2.75241 39.1456C2.75089 38.6359 2.76032 38.127 2.78059 37.6196L5.26798 37.7189ZM5.52838 43.3846C5.65302 44.3248 5.81786 45.2573 6.02199 46.1798L3.59142 46.7177C3.3719 45.7257 3.19467 44.7227 3.06059 43.7121L5.52838 43.3846ZM6.75366 48.9225C7.03666 49.8259 7.35841 50.7165 7.71786 51.5924L5.41499 52.5376C5.02843 51.5961 4.68253 50.6381 4.37817 49.6667L6.75366 48.9225ZM8.90755 54.1694C9.34006 55.0094 9.80913 55.8322 10.3139 56.635L8.20663 57.9602C7.66381 57.0968 7.15938 56.2121 6.6943 55.3087L8.90755 54.1694ZM11.9268 58.9708C12.2117 59.3474 12.5051 59.719 12.807 60.0845C13.1088 60.45 13.4179 60.8086 13.7341 61.1595L11.8843 62.8255C11.5443 62.4481 11.2119 62.0625 10.8874 61.6695C10.5628 61.2765 10.2473 60.877 9.94094 60.4719L11.9268 58.9708ZM15.7224 63.1851C16.4152 63.8329 17.1342 64.4491 17.8773 65.0329L16.3396 66.9905C15.5405 66.3627 14.7673 65.7002 14.0224 65.0037L15.7224 63.1851ZM20.1827 66.6887C20.9746 67.2074 21.7883 67.692 22.6218 68.1406L21.4413 70.3323C20.5451 69.8498 19.6701 69.3288 18.8186 68.7711L20.1827 66.6887ZM65.4911 57.8249C66.0281 57.0474 66.5323 56.246 67.0024 55.4223L69.1645 56.656C68.6592 57.5418 68.1167 58.4037 67.5393 59.2396L65.4911 57.8249ZM25.1763 69.3782C26.0435 69.7531 26.928 70.0914 27.8275 70.3917L27.0392 72.7531C26.072 72.4302 25.1209 72.0664 24.1884 71.6631L25.1763 69.3782ZM61.8791 62.1978C62.5422 61.5223 63.1762 60.8189 63.7789 60.0889L65.6983 61.6744C65.05 62.459 64.3685 63.2156 63.6552 63.942L61.8791 62.1978ZM30.5562 71.1742C31.0153 71.2847 31.4778 71.3859 31.943 71.4768C32.4084 71.5681 32.8748 71.6489 33.3419 71.7197L32.9687 74.1809C32.4666 74.1048 31.965 74.0178 31.4648 73.9199C30.9644 73.8219 30.4672 73.7132 29.9733 73.5944L30.5562 71.1742ZM57.5726 65.8889C58.343 65.3359 59.0877 64.7509 59.8051 64.1359L61.4253 66.026C60.6537 66.6873 59.853 67.3162 59.0246 67.911L57.5726 65.8889ZM36.1638 72.0242C37.1102 72.0852 38.0571 72.1057 39.0016 72.0853L39.055 74.5743C38.039 74.5959 37.0209 74.5741 36.0033 74.5085L36.1638 72.0242ZM53.9629 68.1436C54.3802 67.9187 54.7922 67.6855 55.1981 67.4438L56.4711 69.5831C56.0345 69.8428 55.5916 70.0937 55.1429 70.3354C54.6939 70.577 54.2408 70.8087 53.7834 71.03L52.6986 68.7895C53.1238 68.5834 53.5453 68.3681 53.9629 68.1436ZM41.8344 71.903C42.7755 71.8015 43.7118 71.6598 44.6407 71.4781L45.1188 73.9209C44.1198 74.1163 43.113 74.2689 42.1009 74.3778L41.8344 71.903ZM47.4005 70.8139C48.3089 70.5535 49.2073 70.2542 50.0932 69.9154L50.9818 72.241C50.0292 72.6048 49.063 72.9272 48.0864 73.2071L47.4005 70.8139Z" fill="#777777"/>
</g>
<path d="M320 45.5C320 46.2 319.7 46.5 319 46.5H318.1C317.4 46.5 317.1 46.2 317.1 45.5V31.8C317.1 31.1 317.4 30.8 318.1 30.8H319C319.7 30.8 320 31.1 320 31.8V45.5ZM312.8 40.7V42.8C312.8 43.7 311.5 44.2 309 44.2H298.8V38.8H309C310.2 38.8 311.1 38.9 311.6 39.1C312.4 39.4 312.8 39.9 312.8 40.7ZM315.7 40.6C315.7 39 314.9 37.9 313.3 37.2C312.1 36.7 310.7 36.4 308.8 36.4H298.7V31.8C298.7 31.1 298.4 30.8 297.7 30.8H296.8C296.1 30.8 295.8 31.1 295.8 31.8V45.4C295.8 46.1 296.1 46.4 296.8 46.4H309C310.2 46.4 311 46.4 311.2 46.4C311.9 46.3 312.6 46.2 313.2 45.9C314 45.5 314.6 45.1 315 44.8C315.5 44.3 315.8 43.7 315.8 42.9V40.6H315.7ZM289.7 36.7V34.6C289.7 33.7 288.4 33.2 285.9 33.2H275.6V38.6H285.9C287.1 38.6 288 38.5 288.5 38.3C289.3 37.9 289.7 37.4 289.7 36.7ZM292.6 36.8C292.6 38.4 291.8 39.5 290.2 40.2C289 40.7 287.6 41 285.7 41H275.6V45.6C275.6 46.3 275.3 46.6 274.6 46.6H273.7C273 46.6 272.7 46.3 272.7 45.6V31.8C272.7 31.1 273 30.8 273.7 30.8H285.8C287.4 30.8 288.7 31 290 31.5C291.7 32.1 292.6 33.1 292.6 34.3V36.8ZM269.7 38.6V38.9C269.6 39.5 269.3 39.9 268.7 39.9H254.7V42.5C254.7 43.6 255.9 44.2 258.4 44.2H268.7C269.4 44.2 269.7 44.5 269.7 45.2V45.5C269.7 46.2 269.4 46.5 268.7 46.5H258.3C258 46.5 257.6 46.5 257.1 46.4C253.6 46 251.8 44.8 251.8 42.6V34.9C251.8 33.4 252.7 32.3 254.4 31.6C255.6 31.1 256.9 30.9 258.6 30.9H261.4C262.1 30.9 262.4 31.2 262.4 31.9V32.2C262.4 32.9 262.1 33.2 261.4 33.2H258.5L257.7 33.3C255.7 33.4 254.7 34 254.7 34.9V37.6H268.7C269.4 37.6 269.8 37.9 269.7 38.6ZM239.6 43.6H241.1C244 43.6 245.5 43 245.5 41.7V35.8C245.5 34.5 244 33.8 241.1 33.8H239.6V43.6ZM235.2 33.9C232.2 33.9 230.8 34.6 230.8 35.9V41.8C230.8 43.1 232.3 43.7 235.2 43.7H236.7V34H235.2V33.9ZM241 31.6C243.2 31.6 244.8 31.8 245.9 32.2C247.6 32.8 248.4 34 248.4 35.8V41.8C248.4 44.6 245.9 46 241 46H239.6V46.7C239.6 47.4 239.3 47.7 238.6 47.7H237.7C237 47.7 236.7 47.4 236.7 46.7V46H235.3C231.8 46 229.5 45.2 228.5 43.7C228.1 43.1 227.9 42.5 227.9 41.8V35.8C227.9 33 230.4 31.6 235.3 31.6H236.8V31C236.8 30.3 237.1 30 237.8 30H238.7C239.4 30 239.7 30.3 239.7 31V31.6H241ZM224.8 32.2C224.8 32.9 224.5 33.2 223.8 33.2H213.5C211 33.2 209.7 33.7 209.7 34.7V42.4C209.7 43.1 210.3 43.7 211.4 43.9C211.9 44 212.7 44.1 213.9 44.1H223.8C224.5 44.1 224.8 44.4 224.8 45.1V45.4C224.8 46.1 224.5 46.4 223.8 46.4H213.9C212.7 46.4 211.9 46.4 211.4 46.3C210.5 46.2 209.8 45.9 209 45.6C207.5 44.8 206.8 43.8 206.8 42.4V34.6C206.8 33.6 207.3 32.8 208.2 32.1C209 31.5 209.9 31.1 211 30.9C211.6 30.8 212.4 30.8 213.5 30.8H223.9C224.6 30.8 224.9 31.1 224.9 31.8V32.2H224.8ZM200.1 42.2V35.1C200.1 33.8 198.6 33.1 195.7 33.1H191.1C188.1 33.1 186.7 33.8 186.7 35.1V42.2C186.7 43.5 188.2 44.1 191.1 44.1H195.7C198.7 44.1 200.1 43.5 200.1 42.2ZM203 42.3C203 45.1 200.5 46.5 195.6 46.5H191.1C187.6 46.5 185.3 45.7 184.3 44.2C183.9 43.6 183.7 43 183.7 42.3V35.1C183.7 32.3 186.2 30.9 191.1 30.9H195.6C197.8 30.9 199.4 31.1 200.5 31.5C202.2 32.1 203 33.3 203 35.1V42.3ZM180.4 45.5C180.4 46.2 180.1 46.5 179.4 46.5H178.5C177.8 46.5 177.5 46.2 177.5 45.5V35.4L168.9 45.8C168.4 46.4 167.8 46.6 167.1 46.6C166.3 46.6 165.7 46.3 165.2 45.8L156.5 35.4V45.6C156.5 46.3 156.2 46.6 155.5 46.6H154.6C153.9 46.6 153.6 46.3 153.6 45.6V32.3C153.6 31.9 153.8 31.5 154.1 31.2C154.4 30.9 154.8 30.8 155.3 30.8C155.9 30.8 156.5 31.1 156.9 31.6L167.1 43.4L177.1 31.5C177.5 31 178.1 30.8 178.8 30.8C179.9 30.8 180.4 31.3 180.4 32.4V45.5ZM151.9 32.2C151.9 32.9 151.6 33.2 150.9 33.2H144.5V45.5C144.5 46.2 144.2 46.5 143.5 46.5H142.6C141.9 46.5 141.6 46.2 141.6 45.5V33.2H135.2C134.5 33.2 134.2 32.9 134.2 32.2V31.9C134.2 31.2 134.5 30.9 135.2 30.9H150.9C151.6 30.9 151.9 31.2 151.9 31.9V32.2ZM126.3 40L121.9 33.6L117.5 40H126.3ZM133.3 45C133.3 45.1 133.3 45.3 133.3 45.4C133.3 45.8 133.2 46.2 132.9 46.4C132.6 46.7 132.3 46.8 131.8 46.8C131.3 46.8 130.9 46.5 130.6 46L128 42.4H115.7L113.1 46.1C113 46.3 112.9 46.4 112.9 46.4C112.7 46.6 112.5 46.7 112.2 46.7C111.6 46.7 111.2 46.5 111 46.1C110.9 45.9 110.8 45.8 110.8 45.6C110.8 45.5 110.8 45.4 110.9 45.3L120.1 31.5C120.5 30.9 121.1 30.6 121.9 30.7C122.8 30.7 123.4 31 123.6 31.5L133.3 45ZM95.1004 38.6V38.9C95.0004 39.5 94.7004 39.9 94.1004 39.9H80.1004V42.5C80.1004 43.6 81.3004 44.2 83.8004 44.2H94.0004C94.7004 44.2 95.0004 44.5 95.0004 45.2V45.5C95.0004 46.2 94.7004 46.5 94.0004 46.5H83.6004C83.3004 46.5 82.9004 46.5 82.4004 46.4C78.9004 46 77.1004 44.8 77.1004 42.6V34.9C77.1004 33.4 78.0004 32.3 79.7004 31.6C80.9004 31.1 82.2004 30.9 83.9004 30.9H86.7004C87.4004 30.9 87.7004 31.2 87.7004 31.9V32.2C87.7004 32.9 87.4004 33.2 86.7004 33.2H83.8004L83.0004 33.3C81.0004 33.4 80.0004 34 80.0004 34.9V37.6H94.0004C94.8004 37.6 95.1004 37.9 95.1004 38.6ZM70.9004 41.4C70.9004 40.4 69.7004 39.9 67.3004 39.9H57.0004V44.1H67.1004C69.4004 44.1 70.6004 43.6 70.9004 42.6V41.4ZM70.9004 36.1L70.8004 34.8C70.7004 33.7 69.5004 33.2 67.0004 33.2H57.0004V37.6H67.2004C69.0004 37.6 70.2004 37.3 70.7004 36.7C70.8004 36.5 70.9004 36.3 70.9004 36.1ZM73.8004 42.3C73.8004 44.1 72.8004 45.3 70.8004 46C70.2004 46.2 69.5004 46.3 68.6004 46.4C68.1004 46.4 67.7004 46.5 67.4004 46.5H55.1004C54.4004 46.5 54.1004 46.2 54.1004 45.5V31.8C54.1004 31.1 54.4004 30.8 55.1004 30.8H67.1004C68.4004 30.8 69.5004 30.9 70.2004 31C71.2004 31.2 72.0004 31.6 72.7004 32.3C73.5004 33 73.8004 33.8 73.8004 34.8V36C73.8004 36.9 73.5004 37.7 72.8004 38.4C72.7004 38.5 72.7004 38.6 72.7004 38.7C72.7004 38.8 72.7004 38.9 72.8004 38.9L72.9004 39C73.6004 39.6 73.9004 40.4 73.9004 41.3V42.3H73.8004ZM39.7004 31.8C39.2004 31.2 38.7004 30.8 38.0004 30.8C37.5004 30.8 37.1004 31 36.7004 31.3C36.6004 31.4 36.4004 31.6 36.3004 31.8L27.4004 44.2H25.4004C24.7004 44.2 24.4004 44.5 24.4004 45.2V45.5C24.4004 46.2 24.7004 46.5 25.4004 46.5H50.6004C51.3004 46.5 51.6004 46.2 51.6004 45.5V45.2C51.6004 44.5 51.3004 44.2 50.7004 44.2H48.7004L39.7004 31.8ZM30.7004 44.1L38.0004 33.9L45.3004 44.1H30.7004Z" fill="#FBF8F8"/>
<path d="M87.2866 57.3272H81.5568C80.9404 57.3272 80.6322 57.6088 80.6322 58.1718V61.3564C80.6322 61.9195 80.9404 62.201 81.5568 62.201H87.2866V62.7603L87.0812 63H81.5568C80.9937 63 80.5409 62.8516 80.1985 62.5549C79.8561 62.2581 79.6848 61.8586 79.6848 61.3564V58.1718C79.6848 57.6772 79.8561 57.2815 80.1985 56.9848C80.5409 56.6804 80.9937 56.5282 81.5568 56.5282H87.0812L87.2866 56.7793V57.3272ZM96.5861 57.35H92.7967V63H91.8379V57.35H88.037V56.5282H96.5861V57.35ZM106.169 58.1718V61.3564C106.169 61.8586 106.009 62.2581 105.689 62.5549C105.37 62.8516 104.928 63 104.365 63H99.5027C98.9244 63 98.4678 62.8516 98.133 62.5549C97.7982 62.2581 97.6308 61.8586 97.6308 61.3564V58.1718C97.6308 57.6772 97.7982 57.2815 98.133 56.9848C98.4754 56.6804 98.932 56.5282 99.5027 56.5282H104.365C104.928 56.5282 105.37 56.6766 105.689 56.9734C106.009 57.2701 106.169 57.6696 106.169 58.1718ZM105.221 61.3564V58.1718C105.221 57.6088 104.94 57.3272 104.377 57.3272H99.5027C98.8863 57.3272 98.5782 57.6088 98.5782 58.1718V61.3564C98.5782 61.9195 98.8863 62.201 99.5027 62.201H104.377C104.94 62.201 105.221 61.9195 105.221 61.3564Z" fill="#FBF8F8"/>
<path d="M122.824 62.1782H127.8V56.5282H128.747V63H115.952V56.5282H116.9V62.1782H121.876V56.5282H122.824V62.1782ZM138.23 63V57.4642L131.29 63H130.343V56.5282H131.29V62.064L138.23 56.5282H139.188V63H138.23ZM148.149 60.1122H141.734V63H140.787V56.5282H141.734V59.3133H148.149V56.5282H149.096V63H148.149V60.1122ZM159.12 58.1718V61.3564C159.12 61.8586 158.96 62.2581 158.64 62.5549C158.321 62.8516 157.879 63 157.316 63H152.454C151.876 63 151.419 62.8516 151.084 62.5549C150.749 62.2581 150.582 61.8586 150.582 61.3564V58.1718C150.582 57.6772 150.749 57.2815 151.084 56.9848C151.427 56.6804 151.883 56.5282 152.454 56.5282H157.316C157.879 56.5282 158.321 56.6766 158.64 56.9734C158.96 57.2701 159.12 57.6696 159.12 58.1718ZM158.172 61.3564V58.1718C158.172 57.6088 157.891 57.3272 157.328 57.3272H152.454C151.838 57.3272 151.529 57.6088 151.529 58.1718V61.3564C151.529 61.9195 151.838 62.201 152.454 62.201H157.328C157.891 62.201 158.172 61.9195 158.172 61.3564ZM169.223 56.5282H170.182V63H169.223V57.5783L165.833 60.9911H164.931L161.553 57.5897V63H160.605V56.5282H161.553L165.388 60.3519L169.223 56.5282ZM180.198 58.1718V61.3564C180.198 61.8586 180.038 62.2581 179.718 62.5549C179.399 62.8516 178.958 63 178.394 63H173.532C172.954 63 172.497 62.8516 172.162 62.5549C171.828 62.2581 171.66 61.8586 171.66 61.3564V58.1718C171.66 57.6772 171.828 57.2815 172.162 56.9848C172.505 56.6804 172.961 56.5282 173.532 56.5282H178.394C178.958 56.5282 179.399 56.6766 179.718 56.9734C180.038 57.2701 180.198 57.6696 180.198 58.1718ZM179.25 61.3564V58.1718C179.25 57.6088 178.969 57.3272 178.406 57.3272H173.532C172.916 57.3272 172.607 57.6088 172.607 58.1718V61.3564C172.607 61.9195 172.916 62.201 173.532 62.201H178.406C178.969 62.201 179.25 61.9195 179.25 61.3564ZM189.046 60.1122H182.631V63H181.684V56.5282H182.631V59.3133H189.046V56.5282H189.993V63H189.046V60.1122ZM199.697 57.35H195.907V63H194.949V57.35H191.148V56.5282H199.697V57.35ZM200.605 60.7857C200.605 60.2911 200.772 59.903 201.107 59.6214C201.442 59.3323 201.894 59.1877 202.465 59.1877H207.887V58.1718C207.887 57.6088 207.609 57.3272 207.053 57.3272H201.027V56.7793L201.232 56.5282H207.042C207.605 56.5282 208.043 56.6766 208.355 56.9734C208.674 57.2701 208.834 57.6696 208.834 58.1718V63H208.115L207.955 62.1439C207.643 62.7146 207.092 63 206.3 63H202.465C201.894 63 201.442 62.8516 201.107 62.5549C200.772 62.2581 200.605 61.8586 200.605 61.3564V60.7857ZM202.465 62.201H206.962C207.267 62.201 207.495 62.1287 207.647 61.9841C207.807 61.832 207.887 61.6227 207.887 61.3564V59.941H202.465C201.856 59.941 201.552 60.2226 201.552 60.7857V61.3564C201.552 61.9195 201.856 62.201 202.465 62.201ZM216.402 56.5282V59.3475H218.263L221.105 56.5282H221.973V56.7907L218.959 59.7584L222.144 62.7603V63H221.162L218.172 60.1807H216.402V63H215.455V60.1807H213.583L210.593 63H209.714V62.7603L212.898 59.7584L209.885 56.7907V56.5282H210.821L213.675 59.3475H215.455V56.5282H216.402Z" fill="#FBF8F8"/>
<path d="M231.854 60.7857C231.854 60.2911 232.021 59.903 232.356 59.6214C232.691 59.3323 233.143 59.1877 233.714 59.1877H239.136V58.1718C239.136 57.6088 238.858 57.3272 238.302 57.3272H232.276V56.7793L232.481 56.5282H238.291C238.854 56.5282 239.292 56.6766 239.604 56.9734C239.923 57.2701 240.083 57.6696 240.083 58.1718V63H239.364L239.204 62.1439C238.892 62.7146 238.341 63 237.549 63H233.714C233.143 63 232.691 62.8516 232.356 62.5549C232.021 62.2581 231.854 61.8586 231.854 61.3564V60.7857ZM233.714 62.201H238.211C238.516 62.201 238.744 62.1287 238.896 61.9841C239.056 61.832 239.136 61.6227 239.136 61.3564V59.941H233.714C233.105 59.941 232.801 60.2226 232.801 60.7857V61.3564C232.801 61.9195 233.105 62.201 233.714 62.201ZM241.579 63V56.5282H247.925C248.527 56.5282 248.979 56.6766 249.284 56.9734C249.588 57.2625 249.74 57.662 249.74 58.1718V58.3887C249.74 59.0964 249.383 59.5377 248.667 59.7127C249.383 59.903 249.74 60.3557 249.74 61.071V61.3564C249.74 61.8662 249.588 62.2695 249.284 62.5663C248.979 62.8554 248.527 63 247.925 63H241.579ZM247.937 60.1122H242.527V62.201H247.937C248.5 62.201 248.782 61.9195 248.782 61.3564V60.9455C248.782 60.39 248.5 60.1122 247.937 60.1122ZM247.925 57.3272H242.527V59.3589H247.937C248.5 59.3589 248.782 59.0774 248.782 58.5143V58.1718C248.782 57.6088 248.496 57.3272 247.925 57.3272ZM259.214 57.35H255.424V63H254.465V57.35H250.664V56.5282H259.214V57.35ZM268.796 58.1718V61.3564C268.796 61.8586 268.636 62.2581 268.317 62.5549C267.997 62.8516 267.556 63 266.992 63H262.13C261.552 63 261.095 62.8516 260.76 62.5549C260.426 62.2581 260.258 61.8586 260.258 61.3564V58.1718C260.258 57.6772 260.426 57.2815 260.76 56.9848C261.103 56.6804 261.559 56.5282 262.13 56.5282H266.992C267.556 56.5282 267.997 56.6766 268.317 56.9734C268.636 57.2701 268.796 57.6696 268.796 58.1718ZM267.849 61.3564V58.1718C267.849 57.6088 267.567 57.3272 267.004 57.3272H262.13C261.514 57.3272 261.206 57.6088 261.206 58.1718V61.3564C261.206 61.9195 261.514 62.201 262.13 62.201H267.004C267.567 62.201 267.849 61.9195 267.849 61.3564ZM278.899 56.5282H279.858V63H278.899V57.5783L275.509 60.9911H274.608L271.229 57.5897V63H270.282V56.5282H271.229L275.064 60.3519L278.899 56.5282ZM289.874 58.1718V61.3564C289.874 61.8586 289.714 62.2581 289.395 62.5549C289.075 62.8516 288.634 63 288.071 63H283.208C282.63 63 282.173 62.8516 281.839 62.5549C281.504 62.2581 281.336 61.8586 281.336 61.3564V58.1718C281.336 57.6772 281.504 57.2815 281.839 56.9848C282.181 56.6804 282.638 56.5282 283.208 56.5282H288.071C288.634 56.5282 289.075 56.6766 289.395 56.9734C289.714 57.2701 289.874 57.6696 289.874 58.1718ZM288.927 61.3564V58.1718C288.927 57.6088 288.645 57.3272 288.082 57.3272H283.208C282.592 57.3272 282.284 57.6088 282.284 58.1718V61.3564C282.284 61.9195 282.592 62.201 283.208 62.201H288.082C288.645 62.201 288.927 61.9195 288.927 61.3564ZM292.901 55.3526H298.653V55.695L298.448 55.9347H293.118L292.901 55.695V55.3526ZM299.247 63V57.4642L292.307 63H291.36V56.5282H292.307V62.064L299.247 56.5282H300.206V63H299.247ZM302.751 56.5282V59.3475H306.153L308.995 56.5282H309.851V56.7907L306.838 59.7584L310.034 62.7603V63H309.052L306.05 60.1807H302.751V63H301.804V56.5282H302.751ZM310.76 60.7857C310.76 60.2911 310.927 59.903 311.262 59.6214C311.597 59.3323 312.05 59.1877 312.621 59.1877H318.042V58.1718C318.042 57.6088 317.764 57.3272 317.209 57.3272H311.182V56.7793L311.388 56.5282H317.198C317.761 56.5282 318.198 56.6766 318.51 56.9734C318.83 57.2701 318.99 57.6696 318.99 58.1718V63H318.27L318.111 62.1439C317.799 62.7146 317.247 63 316.456 63H312.621C312.05 63 311.597 62.8516 311.262 62.5549C310.927 62.2581 310.76 61.8586 310.76 61.3564V60.7857ZM312.621 62.201H317.118C317.422 62.201 317.65 62.1287 317.802 61.9841C317.962 61.832 318.042 61.6227 318.042 61.3564V59.941H312.621C312.012 59.941 311.707 60.2226 311.707 60.7857V61.3564C311.707 61.9195 312.012 62.201 312.621 62.201Z" fill="#FBF8F8"/>
<defs>
<clipPath id="clip0_2060_5855">
<rect width="78" height="78" fill="white"/>
</clipPath>
</defs>
</svg>
