<svg width="330" height="70" viewBox="0 0 330 70" fill="none" xmlns="http://www.w3.org/2000/svg">
<path d="M36.9988 60.2829C50.9642 60.2829 62.2853 48.9617 62.2853 34.9964C62.2853 21.0311 50.9642 9.70996 36.9988 9.70996C23.0335 9.70996 11.7124 21.0311 11.7124 34.9964C11.7124 48.9617 23.0335 60.2829 36.9988 60.2829Z" fill="white"/>
<path d="M67.5135 29.0125C66.9121 29.0125 66.3702 28.6495 66.1408 28.095L64.3202 23.7024L62.4887 19.2772C62.2593 18.7209 62.3858 18.0816 62.8102 17.6571C63.39 17.0773 63.39 16.1345 62.8102 15.5547L56.4453 9.18976C55.8655 8.60998 54.9227 8.60998 54.3429 9.18976C53.9184 9.61421 53.2791 9.74245 52.7228 9.51126L48.2976 7.6798L43.905 5.85917C43.3487 5.62979 42.9875 5.08613 42.9875 4.48648C42.9875 3.66467 42.321 3 41.501 3H32.499C31.6772 3 31.0125 3.66648 31.0125 4.48648C31.0125 5.08794 30.6495 5.62979 30.095 5.85917L25.7024 7.6798L21.2772 9.51126C20.7209 9.74064 20.0816 9.61421 19.6571 9.18976C19.0773 8.60998 18.1345 8.60998 17.5547 9.18976L11.1898 15.5547C10.61 16.1345 10.61 17.0773 11.1898 17.6571C11.6142 18.0816 11.7425 18.7209 11.5113 19.2772L9.67619 23.7096L7.85917 28.095C7.62979 28.6513 7.08613 29.0125 6.48648 29.0125C5.66467 29.0125 5 29.679 5 30.499V39.501C5 40.3228 5.66648 40.9875 6.48648 40.9875C7.08794 40.9875 7.62979 41.3505 7.85917 41.905L9.6798 46.2976L11.5113 50.7227C11.7406 51.279 11.6142 51.9184 11.1898 52.3429C10.61 52.9227 10.61 53.8655 11.1898 54.4453L17.5547 60.8102C18.1345 61.39 19.0773 61.39 19.6571 60.8102C20.0816 60.3858 20.7209 60.2575 21.2772 60.4887L25.7024 62.3202L30.095 64.1408C30.6513 64.3702 31.0125 64.9139 31.0125 65.5135C31.0125 66.3353 31.679 67 32.499 67H41.501C42.3228 67 42.9875 66.3335 42.9875 65.5135C42.9875 64.9121 43.3505 64.3702 43.905 64.1408L48.2976 62.3202L52.7228 60.4887C53.2791 60.2593 53.9184 60.3858 54.3429 60.8102C54.9227 61.39 55.8655 61.39 56.4453 60.8102L62.8102 54.4453C63.39 53.8655 63.39 52.9227 62.8102 52.3429C62.3858 51.9184 62.2575 51.279 62.4887 50.7227L64.3238 46.2904L66.1408 41.905C66.3702 41.3487 66.9139 40.9875 67.5135 40.9875C68.3353 40.9875 69 40.321 69 39.501V35V30.499C69 29.6772 68.3335 29.0125 67.5135 29.0125ZM37 60.2864C23.0347 60.2864 11.7136 48.9653 11.7136 35C11.7136 21.0347 23.0347 9.71355 37 9.71355C50.9653 9.71355 62.2864 21.0347 62.2864 35C62.2864 48.9653 50.9653 60.2864 37 60.2864Z" fill="#6B6B6A"/>
<path d="M36.9989 11.7969C30.8452 11.7969 24.9444 14.2406 20.5916 18.5935C16.2405 22.9446 13.7949 28.8472 13.7949 35.0008H15.8431C15.8431 29.3511 18.043 24.0373 22.0383 20.0421C26.0336 16.0468 31.3455 13.8469 36.997 13.8469C42.6486 13.8469 47.9605 16.0468 51.9558 20.0421C55.951 24.0373 58.151 29.3493 58.151 35.0008H60.1992C60.1992 28.8472 57.7554 22.9464 53.4025 18.5935C49.0515 14.2424 43.1489 11.7969 36.9952 11.7969H36.9989Z" fill="#FE4F02"/>
<path d="M36.9984 9.71191C30.292 9.71191 23.8602 12.376 19.119 17.119C14.376 21.8602 11.7119 28.292 11.7119 34.9984H13.7962C13.7962 28.8447 16.24 22.9439 20.5929 18.5911C24.944 14.24 30.8465 11.7944 37.0002 11.7944C43.1538 11.7944 49.0546 14.2382 53.4075 18.5911C57.7585 22.9421 60.2041 28.8447 60.2041 34.9984H62.2884C62.2884 28.292 59.6243 21.8602 54.8813 17.119C50.1383 12.376 43.7083 9.71191 37.002 9.71191H36.9984Z" fill="#FE4F02"/>
<path d="M32.0896 33.1207V30.6517L32.095 30.621C32.1131 30.4982 32.1402 30.3681 32.1781 30.2218C32.2196 30.0629 32.2829 29.9202 32.3714 29.7884C32.4725 29.6493 32.608 29.5373 32.7759 29.4596C32.9421 29.3802 33.1444 29.3422 33.3973 29.3422H39.6304C39.9501 29.3422 40.3005 29.2844 40.6743 29.1706C41.0482 29.0514 41.4004 28.8636 41.7201 28.6125C42.0362 28.3579 42.3053 28.0219 42.5166 27.6137C42.7298 27.2073 42.8381 26.698 42.8381 26.0965V24.9623C42.8381 24.7509 42.8111 24.5252 42.7569 24.2723C42.7099 24.023 42.6304 23.7846 42.5166 23.5426C42.4137 23.306 42.2746 23.073 42.103 22.8526C41.9369 22.6377 41.731 22.4463 41.4907 22.2801C41.265 22.1139 40.9922 21.9784 40.6816 21.8773C40.3727 21.7762 40.0187 21.7256 39.6304 21.7256H31.3256V23.6329H39.6304C40.0368 23.6329 40.3565 23.7521 40.5822 23.9887C40.8062 24.2217 40.9182 24.5559 40.9182 24.9785V26.0947C40.9182 26.5047 40.8044 26.8316 40.5822 27.0646C40.3637 27.294 40.0368 27.4114 39.6123 27.4114H33.3991C33.0053 27.4114 32.6477 27.462 32.3389 27.5631C32.03 27.6625 31.7518 27.7998 31.5152 27.9695C31.284 28.1321 31.0836 28.3217 30.9192 28.5331C30.7566 28.7498 30.6194 28.9846 30.5128 29.2284C30.4081 29.4705 30.3268 29.7197 30.2726 29.969C30.2256 30.2146 30.2021 30.4494 30.2021 30.668V35.0299H42.8418V33.1226H32.095L32.0896 33.1207Z" fill="#323232"/>
<path d="M30.2022 48.9063H28.3672V46.4228H21.2237V48.9063H19.3887V43.8472C19.3887 43.1085 19.5151 42.4293 19.7698 41.808C20.0244 41.1867 20.3766 40.6539 20.8282 40.2059C21.2797 39.7598 21.8144 39.4112 22.4303 39.162C23.0462 38.9127 23.7199 38.7881 24.4478 38.7881H29.2775C29.4039 38.7881 29.5249 38.8116 29.6369 38.8585C29.7489 38.9055 29.8482 38.9705 29.9331 39.0554C30.018 39.1403 30.083 39.2378 30.13 39.3516C30.177 39.4636 30.2004 39.5846 30.2004 39.711V48.9045H30.2022V48.9063ZM21.2256 44.5877H28.369V40.6232H24.4496C24.3936 40.6232 24.2726 40.6322 24.0901 40.6521C23.9113 40.6665 23.7018 40.7062 23.4616 40.7713C23.2268 40.8381 22.9775 40.9374 22.7138 41.0747C22.4501 41.2102 22.2081 41.3998 21.9878 41.6382C21.7674 41.8785 21.5832 42.1783 21.4369 42.5413C21.296 42.8989 21.2256 43.3342 21.2256 43.8472V44.5877ZM41.4836 40.6232H37.4414V48.9063H35.6063V40.6232H31.5569V38.7881H41.4836V40.6232Z" fill="#323232"/>
<path d="M54.6127 48.9065H52.765V42.8811L49.512 48.6031C49.4326 48.7494 49.3188 48.8596 49.1725 48.9354C49.0316 49.0113 48.8781 49.0474 48.7137 49.0474C48.5494 49.0474 48.4031 49.0095 48.2622 48.9354C48.1267 48.8596 48.0183 48.7494 47.9371 48.6031L44.6715 42.8811V48.9065H42.8364V39.5722C42.8364 39.3609 42.8978 39.173 43.0207 39.0087C43.1471 38.8443 43.3133 38.7341 43.5137 38.6764C43.6131 38.6529 43.7106 38.6456 43.81 38.6547C43.9093 38.6601 44.0032 38.68 44.0917 38.7179C44.1856 38.7504 44.2705 38.801 44.3464 38.866C44.4222 38.9274 44.4855 39.0033 44.536 39.0918L48.7119 46.3508L52.8896 39.0918C52.998 38.913 53.1461 38.7865 53.3339 38.7107C53.5272 38.6348 53.7259 38.624 53.9336 38.6745C54.1304 38.7305 54.293 38.8425 54.4212 39.0069C54.5477 39.1712 54.6109 39.3591 54.6109 39.5704V48.9047H54.6127V48.9065Z" fill="#323232"/>
<path d="M116.159 31.9728C116.159 32.3374 116.094 32.7275 115.965 33.1466C115.844 33.5638 115.639 33.9521 115.35 34.3077C115.069 34.6651 114.701 34.9644 114.245 35.2075C113.79 35.4434 113.233 35.5613 112.571 35.5613H101.332C101.119 35.5613 100.922 35.5232 100.74 35.447C100.559 35.3708 100.399 35.2692 100.263 35.1404C100.134 35.0043 100.031 34.8447 99.9546 34.6614C99.8802 34.48 99.8403 34.2823 99.8403 34.07V20.7246C99.8403 20.5195 99.8784 20.3254 99.9546 20.144C100.031 19.9626 100.134 19.8029 100.263 19.665C100.399 19.529 100.559 19.4219 100.74 19.3457C100.922 19.2695 101.119 19.2314 101.332 19.2314H111.237C111.602 19.2314 111.994 19.2968 112.411 19.4256C112.828 19.5544 113.217 19.763 113.572 20.0515C113.937 20.3327 114.236 20.701 114.472 21.1563C114.715 21.6117 114.837 22.1705 114.837 22.8309V23.3897C114.837 23.914 114.75 24.4782 114.575 25.086C114.401 25.6865 114.12 26.2543 113.732 26.7931C114.066 26.9982 114.378 27.2449 114.666 27.5333C114.964 27.8218 115.221 28.1556 115.441 28.5348C115.662 28.914 115.835 29.344 115.965 29.8211C116.094 30.3 116.159 30.8262 116.159 31.4031V31.9728ZM113.198 31.4031C113.198 31.0167 113.139 30.6701 113.017 30.3672C112.896 30.0551 112.725 29.7902 112.505 29.5707C112.284 29.3512 112.019 29.1843 111.707 29.07C111.395 28.9484 111.047 28.8886 110.66 28.8886H103.988V25.906H109.329C109.715 25.906 110.065 25.8497 110.376 25.7354C110.688 25.6139 110.952 25.4434 111.172 25.2238C111.392 25.0043 111.558 24.7413 111.673 24.4383C111.794 24.1262 111.854 23.7779 111.854 23.3915V22.8327C111.854 22.4082 111.649 22.1959 111.239 22.1959H102.801V32.6041H112.571C112.623 32.6041 112.689 32.6005 112.765 32.5932C112.841 32.586 112.91 32.5624 112.97 32.5243C113.032 32.4862 113.084 32.4227 113.13 32.3302C113.175 32.2395 113.198 32.1143 113.198 31.9546V31.4085V31.4031Z" fill="white"/>
<path d="M131.805 28.8868H122.457V25.9042H131.805V28.8868ZM133.137 35.5595H122.457C122.047 35.5595 121.598 35.4869 121.112 35.3436C120.626 35.1985 120.174 34.9644 119.757 34.6379C119.347 34.304 119 33.8741 118.721 33.3516C118.447 32.82 118.311 32.1705 118.311 31.4049V20.7246C118.311 20.5195 118.349 20.3254 118.425 20.144C118.502 19.9626 118.605 19.8029 118.734 19.665C118.87 19.529 119.029 19.4219 119.211 19.3457C119.392 19.2695 119.59 19.2314 119.802 19.2314H133.137V22.1923H121.272V31.4049C121.272 31.7913 121.375 32.0889 121.578 32.2939C121.783 32.4989 122.083 32.6005 122.478 32.6005H133.137V35.5613V35.5595Z" fill="white"/>
<path d="M159.614 35.5593H156.653V31.5517H146.245V35.5593H143.284V27.3953C143.284 26.2034 143.489 25.1058 143.899 24.1043C144.307 23.1029 144.877 22.2411 145.608 21.519C146.337 20.797 147.197 20.2364 148.193 19.8336C149.187 19.4309 150.272 19.2295 151.45 19.2295H158.122C158.327 19.2295 158.521 19.2676 158.703 19.3438C158.884 19.42 159.044 19.5252 159.18 19.6631C159.318 19.7992 159.423 19.9588 159.499 20.142C159.574 20.3235 159.614 20.5176 159.614 20.7226V35.5593ZM146.246 28.5909H156.655V22.1921H151.45C151.359 22.1921 151.165 22.2066 150.869 22.2375C150.579 22.2611 150.243 22.3246 149.855 22.4316C149.476 22.5386 149.073 22.7019 148.647 22.9214C148.222 23.141 147.83 23.4458 147.475 23.8322C147.117 24.2186 146.821 24.7048 146.586 25.289C146.359 25.8659 146.245 26.568 146.245 27.3953V28.5909H146.246Z" fill="white"/>
<path d="M177.822 22.1903H171.298V35.5593H168.337V22.1903H161.801V19.2295H177.822V22.1903Z" fill="white"/>
<path d="M199.014 35.5608H196.031V25.8365L190.783 35.0709C190.654 35.3068 190.471 35.4846 190.237 35.6061C190.008 35.7277 189.761 35.7875 189.496 35.7875C189.231 35.7875 188.996 35.7277 188.767 35.6061C188.546 35.4846 188.373 35.3068 188.243 35.0709L182.971 25.8365V35.5608H180.01V20.4954C180.01 20.1543 180.11 19.8495 180.307 19.5847C180.512 19.3198 180.777 19.1402 181.106 19.0495C181.265 19.0114 181.425 19.0005 181.583 19.015C181.742 19.0223 181.895 19.0567 182.038 19.1184C182.189 19.171 182.327 19.2509 182.446 19.3579C182.568 19.4559 182.671 19.5774 182.755 19.7226L189.496 31.4406L196.238 19.7226C196.412 19.4341 196.652 19.2291 196.955 19.1075C197.267 18.986 197.588 18.9678 197.923 19.0513C198.243 19.142 198.504 19.3216 198.709 19.5865C198.914 19.8514 199.016 20.1562 199.016 20.4972V35.5626L199.014 35.5608Z" fill="white"/>
<path d="M219.603 28.9577C219.603 29.9519 219.432 30.8663 219.089 31.7027C218.748 32.5372 218.273 33.2593 217.667 33.867C217.059 34.4748 216.339 34.9483 215.503 35.2912C214.675 35.625 213.772 35.7919 212.794 35.7919H208.785C207.805 35.7919 206.898 35.625 206.063 35.2912C205.227 34.9501 204.507 34.4748 203.899 33.867C203.293 33.2593 202.814 32.539 202.464 31.7027C202.123 30.8681 201.952 29.9537 201.952 28.9577V25.8373C201.952 24.8503 202.123 23.9396 202.464 23.105C202.812 22.2632 203.291 21.5412 203.899 20.9407C204.507 20.3329 205.227 19.8594 206.063 19.5165C206.898 19.1754 207.805 19.0049 208.785 19.0049H212.794C213.774 19.0049 214.675 19.1754 215.503 19.5165C216.339 19.8576 217.059 20.3329 217.667 20.9407C218.275 21.5412 218.748 22.2614 219.089 23.105C219.432 23.9396 219.603 24.8503 219.603 25.8373V28.9577ZM216.64 25.8373C216.64 25.2531 216.546 24.7251 216.355 24.2553C216.174 23.7763 215.911 23.3717 215.57 23.0361C215.236 22.695 214.83 22.432 214.352 22.2505C213.881 22.06 213.362 21.9657 212.792 21.9657H208.783C208.206 21.9657 207.678 22.06 207.201 22.2505C206.729 22.432 206.323 22.695 205.982 23.0361C205.64 23.3699 205.376 23.7763 205.185 24.2553C205.004 24.7251 204.913 25.2531 204.913 25.8373V28.9577C204.913 29.5419 205.004 30.0735 205.185 30.5524C205.376 31.0223 205.64 31.4287 205.982 31.7716C206.323 32.1054 206.729 32.3667 207.201 32.5572C207.678 32.7386 208.206 32.8311 208.783 32.8311H212.769C213.345 32.8311 213.868 32.7404 214.34 32.5572C214.817 32.3667 215.227 32.1054 215.57 31.7716C215.911 31.4305 216.174 31.0241 216.355 30.5524C216.544 30.0735 216.64 29.5419 216.64 28.9577V25.8373Z" fill="white"/>
<path d="M237.15 35.5593H226.469C226.195 35.5593 225.9 35.5285 225.582 35.4686C225.27 35.3997 224.96 35.2981 224.648 35.162C224.343 35.026 224.051 34.85 223.77 34.6377C223.49 34.4182 223.238 34.1551 223.019 33.8522C222.806 33.5401 222.636 33.1845 222.507 32.7818C222.378 32.3717 222.313 31.9127 222.313 31.4048V23.3877C222.313 23.1137 222.344 22.8217 222.404 22.5114C222.471 22.1921 222.574 21.8819 222.71 21.5771C222.846 21.2651 223.026 20.9693 223.246 20.6881C223.467 20.4069 223.728 20.1602 224.031 19.9479C224.343 19.7284 224.699 19.5524 225.101 19.4236C225.504 19.2948 225.96 19.2295 226.468 19.2295H237.148V22.1903H226.468C226.081 22.1903 225.785 22.2937 225.58 22.4969C225.375 22.7019 225.272 23.0049 225.272 23.4077V31.4011C225.272 31.7803 225.375 32.076 225.58 32.2901C225.793 32.4951 226.088 32.5967 226.468 32.5967H237.148V35.5575L237.15 35.5593Z" fill="white"/>
<path d="M278.652 28.8868H269.303V25.9042H278.652V28.8868ZM279.986 35.5595H269.305C268.895 35.5595 268.447 35.4869 267.961 35.3436C267.475 35.1985 267.023 34.9644 266.606 34.6379C266.196 34.304 265.851 33.8741 265.57 33.3516C265.296 32.82 265.16 32.1705 265.16 31.4049V20.7246C265.16 20.5195 265.198 20.3254 265.274 20.144C265.35 19.9626 265.454 19.8029 265.582 19.665C265.718 19.529 265.878 19.4219 266.06 19.3457C266.241 19.2695 266.439 19.2314 266.651 19.2314H279.986V22.1923H268.12V31.4049C268.12 31.7913 268.224 32.0889 268.427 32.2939C268.632 32.4989 268.931 32.6005 269.327 32.6005H279.986V35.5613V35.5595Z" fill="white"/>
<path d="M299.119 24.7193C299.119 25.3942 299.036 25.9984 298.869 26.5299C298.702 27.0615 298.474 27.5314 298.185 27.9414C297.904 28.3442 297.577 28.6889 297.205 28.9773C296.833 29.2658 296.443 29.5053 296.033 29.694C295.631 29.8754 295.221 30.0096 294.803 30.0931C294.393 30.1765 294.007 30.2183 293.642 30.2183H286.948V27.2574H293.642C294.014 27.2266 294.352 27.1504 294.656 27.0289C294.968 26.9 295.233 26.7295 295.455 26.5172C295.683 26.305 295.856 26.051 295.979 25.7535C296.101 25.4505 296.16 25.104 296.16 24.7175V22.8507C296.16 22.6838 296.137 22.5586 296.091 22.4751C296.053 22.3844 296.001 22.3191 295.932 22.281C295.872 22.2357 295.803 22.2085 295.727 22.2012C295.66 22.1939 295.594 22.1903 295.533 22.1903H285.763V35.5593H282.802V20.7226C282.802 20.5176 282.84 20.3235 282.917 20.142C282.991 19.9606 283.094 19.801 283.223 19.6631C283.359 19.527 283.519 19.42 283.7 19.3438C283.882 19.2676 284.079 19.2295 284.292 19.2295H295.531C296.191 19.2295 296.75 19.351 297.205 19.5941C297.661 19.83 298.029 20.1293 298.31 20.494C298.599 20.8514 298.804 21.2378 298.925 21.6551C299.054 22.0724 299.119 22.4643 299.119 22.8289V24.7193Z" fill="white"/>
<path d="M262.673 24.7193C262.673 25.3942 262.589 25.9984 262.422 26.5299C262.255 27.0615 262.027 27.5314 261.738 27.9414C261.457 28.3442 261.131 28.6889 260.759 28.9773C260.387 29.2658 259.997 29.5053 259.587 29.694C259.184 29.8754 258.774 30.0096 258.357 30.0931C257.947 30.1765 257.56 30.2183 257.195 30.2183H253.46V27.2574H257.195C257.567 27.2266 257.905 27.1504 258.21 27.0289C258.522 26.9 258.787 26.7295 259.008 26.5172C259.236 26.305 259.409 26.051 259.532 25.7535C259.654 25.4505 259.714 25.104 259.714 24.7175V22.8507C259.714 22.6838 259.69 22.5586 259.645 22.4751C259.607 22.3844 259.554 22.3191 259.485 22.281C259.425 22.2357 259.356 22.2085 259.28 22.2012C259.213 22.1939 259.148 22.1903 259.086 22.1903H252.275V35.5593H249.314V20.7226C249.314 20.5176 249.353 20.3235 249.429 20.142C249.503 19.9606 249.607 19.801 249.735 19.6631C249.871 19.527 250.031 19.42 250.212 19.3438C250.394 19.2676 250.592 19.2295 250.804 19.2295H259.082C259.743 19.2295 260.301 19.351 260.757 19.5941C261.212 19.83 261.58 20.1293 261.862 20.494C262.15 20.8514 262.355 21.2378 262.477 21.6551C262.605 22.0724 262.671 22.4643 262.671 22.8289V24.7193H262.673Z" fill="white"/>
<path d="M238.917 22.8289C238.917 22.4643 238.982 22.0742 239.111 21.6551C239.233 21.2378 239.438 20.8496 239.726 20.494C240.007 20.1293 240.376 19.83 240.831 19.5941C241.286 19.351 241.843 19.2295 242.505 19.2295H250.784C250.996 19.2295 251.194 19.2676 251.375 19.3438C251.557 19.42 251.716 19.5252 251.852 19.6631C251.981 19.7992 252.085 19.9588 252.159 20.142C252.235 20.3235 252.273 20.5176 252.273 20.7226V35.5593H249.312V22.1903H242.502C242.44 22.1903 242.377 22.1939 242.308 22.2012C242.231 22.2085 242.163 22.2357 242.103 22.281C242.034 22.3191 241.981 22.3844 241.943 22.4751C241.898 22.5586 241.874 22.6838 241.874 22.8507V24.7175C241.874 25.104 241.934 25.4505 242.055 25.7535C242.177 26.0492 242.351 26.3032 242.58 26.5172C242.801 26.7295 243.066 26.9 243.378 27.0289C243.683 27.1504 244.018 27.2266 244.392 27.2574H248.128V30.2183H244.392C244.028 30.2183 243.641 30.1765 243.231 30.0931C242.814 30.0096 242.404 29.8772 242.001 29.694C241.591 29.5035 241.201 29.2658 240.829 28.9773C240.457 28.6889 240.131 28.3442 239.849 27.9414C239.561 27.5314 239.332 27.0615 239.165 26.5299C238.998 25.9984 238.915 25.3942 238.915 24.7193V22.8289H238.917Z" fill="white"/>
<path d="M318.354 30.0713C318.354 29.3964 318.271 28.7923 318.104 28.2607C317.937 27.7291 317.71 27.2593 317.422 26.8492C317.14 26.4465 316.814 26.1018 316.442 25.8133C316.07 25.5249 315.678 25.2854 315.268 25.0967C314.867 24.9153 314.455 24.781 314.038 24.6976C313.628 24.6141 313.242 24.5724 312.877 24.5724H306.182V27.5332H312.877C313.249 27.564 313.586 27.6402 313.891 27.76C314.203 27.8888 314.468 28.0593 314.688 28.2716C314.916 28.4839 315.09 28.7379 315.212 29.0354C315.333 29.3384 315.393 29.6849 315.393 30.0713V31.9381C315.393 32.1051 315.37 32.2302 315.324 32.3137C315.286 32.4044 315.234 32.4697 315.165 32.5078C315.105 32.5532 315.036 32.5804 314.96 32.5876C314.891 32.5949 314.827 32.5985 314.766 32.5985H304.996V19.2295H302.035V34.0662C302.035 34.2712 302.073 34.4654 302.149 34.6468C302.226 34.8282 302.329 34.9879 302.458 35.1257C302.594 35.2618 302.754 35.3689 302.935 35.4451C303.116 35.5212 303.314 35.5593 303.526 35.5593H314.766C315.426 35.5593 315.985 35.4378 316.44 35.1947C316.895 34.9588 317.264 34.6595 317.545 34.2948C317.833 33.9374 318.038 33.551 318.16 33.1337C318.289 32.7165 318.354 32.3246 318.354 31.9617V30.0713Z" fill="white"/>
<path d="M78 35.5593V32.6439L79.5893 32.5985V27.3953C79.5893 26.2034 79.7943 25.1058 80.2043 24.1043C80.6143 23.1029 81.184 22.2411 81.9115 21.519C82.6408 20.797 83.5025 20.2364 84.4967 19.8336C85.4909 19.4309 86.5758 19.2295 87.7533 19.2295H94.426C94.631 19.2295 94.8251 19.2676 95.0066 19.3438C95.188 19.42 95.3476 19.5252 95.4855 19.6631C95.6216 19.7992 95.7286 19.9588 95.8048 20.142C95.881 20.3235 95.9191 20.5176 95.9191 20.7226V32.6457H97.824V35.5612H78V35.5593ZM82.5501 32.5985H92.9583V22.1903H87.7551C87.6644 22.1903 87.4703 22.2048 87.1745 22.2357C86.8861 22.2592 86.5486 22.3227 86.1604 22.4298C85.7812 22.5368 85.3785 22.7001 84.9539 22.9196C84.5294 23.1391 84.1375 23.4439 83.7819 23.8304C83.4245 24.2168 83.1288 24.703 82.893 25.2872C82.6644 25.8641 82.5519 26.5662 82.5519 27.3935V32.5967L82.5501 32.5985Z" fill="white"/>
<path d="M320.888 19.2363H323.803V35.5607H320.888V19.2363Z" fill="white"/>
<path d="M81.1658 50.2292C79.1556 50.2292 78.1523 49.4636 78.1523 47.9306V45.4723C78.1523 43.9302 79.1574 43.1592 81.1658 43.1592H85.1915C85.5943 43.1592 85.7957 43.3587 85.7957 43.7561C85.7957 44.1534 85.5943 44.3529 85.1915 44.3529H81.1186C79.9702 44.3529 79.3969 44.7212 79.3969 45.4578V47.9451C79.3969 48.6817 79.9702 49.05 81.1186 49.05H85.1915C85.5943 49.05 85.7957 49.2441 85.7957 49.6323C85.7957 50.0206 85.5943 50.2292 85.1915 50.2292H81.1658Z" fill="white"/>
<path d="M90.1494 44.3529H87.9614C87.5659 44.3529 87.3682 44.1552 87.3682 43.7561C87.3682 43.3569 87.5659 43.1592 87.9614 43.1592H93.5819C93.9774 43.1592 94.1751 43.3587 94.1751 43.7561C94.1751 44.1534 93.9774 44.3529 93.5819 44.3529H91.3939V49.6922C91.3939 50.1004 91.1889 50.3036 90.7771 50.3036C90.3653 50.3036 90.1494 50.1004 90.1494 49.6922V44.3529Z" fill="white"/>
<path d="M98.8079 50.2292C96.7977 50.2292 95.7944 49.4636 95.7944 47.9306V45.4723C95.7944 43.9302 96.7995 43.1592 98.8079 43.1592H101.054C103.064 43.1592 104.067 43.9302 104.067 45.4723V47.9306C104.067 49.4636 103.062 50.2292 101.054 50.2292H98.8079ZM102.823 45.4578C102.823 44.7212 102.244 44.3529 101.088 44.3529H98.7607C97.6123 44.3529 97.039 44.7212 97.039 45.4578V47.9451C97.039 48.6817 97.6123 49.05 98.7607 49.05H101.088C102.244 49.05 102.823 48.6817 102.823 47.9451V45.4578Z" fill="white"/>
<path d="M119.86 50.2304C117.859 50.2304 116.857 49.4648 116.857 47.9317V43.6991C116.857 43.2909 117.062 43.0878 117.474 43.0878C117.886 43.0878 118.091 43.2909 118.091 43.6991V47.9463C118.091 48.6828 118.637 49.0511 119.731 49.0511H121.582V43.6973C121.582 43.2891 121.783 43.0859 122.186 43.0859C122.589 43.0859 122.792 43.2891 122.792 43.6973V49.0511H124.584C125.685 49.0511 126.237 48.6828 126.237 47.9463V43.6991C126.237 43.2909 126.442 43.0878 126.854 43.0878C127.266 43.0878 127.471 43.2909 127.471 43.6991V47.9317C127.471 49.4648 126.469 50.2304 124.468 50.2304H119.86Z" fill="white"/>
<path d="M136.746 44.8621L130.938 50.0108C130.829 50.1088 130.733 50.1814 130.648 50.2285C130.563 50.2775 130.438 50.3011 130.276 50.3011C129.911 50.3011 129.73 50.0979 129.73 49.6897V43.6828C129.73 43.2855 129.931 43.0859 130.334 43.0859C130.737 43.0859 130.962 43.2855 130.962 43.6828V48.5123L136.78 43.3635C136.88 43.2764 136.976 43.2093 137.065 43.1603C137.154 43.1113 137.257 43.0878 137.373 43.0878C137.776 43.0878 137.977 43.2909 137.977 43.6991V49.6915C137.977 50.0997 137.772 50.3029 137.361 50.3029C136.949 50.3029 136.744 50.0997 136.744 49.6915V44.8621H136.746Z" fill="white"/>
<path d="M147.231 47.2905H141.448V49.6907C141.448 50.0989 141.243 50.3021 140.831 50.3021C140.419 50.3021 140.214 50.0989 140.214 49.6907V43.6983C140.214 43.2901 140.419 43.0869 140.831 43.0869C141.243 43.0869 141.448 43.2901 141.448 43.6983V46.113H147.231V43.6983C147.231 43.2901 147.436 43.0869 147.848 43.0869C148.26 43.0869 148.465 43.2901 148.465 43.6983V49.6907C148.465 50.0989 148.26 50.3021 147.848 50.3021C147.436 50.3021 147.231 50.0989 147.231 49.6907V47.2905Z" fill="white"/>
<path d="M153.655 50.2292C151.644 50.2292 150.641 49.4636 150.641 47.9306V45.4723C150.641 43.9302 151.646 43.1592 153.655 43.1592H155.901C157.911 43.1592 158.914 43.9302 158.914 45.4723V47.9306C158.914 49.4636 157.909 50.2292 155.901 50.2292H153.655ZM157.669 45.4578C157.669 44.7212 157.091 44.3529 155.935 44.3529H153.607C152.459 44.3529 151.886 44.7212 151.886 45.4578V47.9451C151.886 48.6817 152.459 49.05 153.607 49.05H155.935C157.091 49.05 157.669 48.6817 157.669 47.9451V45.4578Z" fill="white"/>
<path d="M169.517 45.5162L166.504 49.9973C166.442 50.0953 166.366 50.1697 166.277 50.2223C166.188 50.2749 166.065 50.3021 165.91 50.3021C165.756 50.3021 165.635 50.2749 165.549 50.2223C165.464 50.1697 165.39 50.0898 165.328 49.9828L162.325 45.5307V49.7342C162.325 50.1116 162.12 50.3021 161.709 50.3021C161.297 50.3021 161.092 50.1134 161.092 49.7342V43.6983C161.092 43.2901 161.309 43.0869 161.743 43.0869C161.914 43.0869 162.046 43.125 162.139 43.203C162.231 43.281 162.316 43.3736 162.394 43.4788L165.909 48.6856L169.435 43.4788C169.504 43.3627 169.588 43.2683 169.686 43.1958C169.782 43.1232 169.916 43.0869 170.087 43.0869C170.312 43.0869 170.479 43.1395 170.587 43.2466C170.696 43.3536 170.751 43.5042 170.751 43.6983V49.7342C170.751 50.1116 170.54 50.3021 170.123 50.3021C169.706 50.3021 169.517 50.1134 169.517 49.7342V45.5162Z" fill="white"/>
<path d="M175.917 50.2292C173.907 50.2292 172.903 49.4636 172.903 47.9306V45.4723C172.903 43.9302 173.908 43.1592 175.917 43.1592H178.163C180.173 43.1592 181.176 43.9302 181.176 45.4723V47.9306C181.176 49.4636 180.171 50.2292 178.163 50.2292H175.917ZM179.932 45.4578C179.932 44.7212 179.353 44.3529 178.197 44.3529H175.87C174.721 44.3529 174.148 44.7212 174.148 45.4578V47.9451C174.148 48.6817 174.721 49.05 175.87 49.05H178.197C179.353 49.05 179.932 48.6817 179.932 47.9451V45.4578Z" fill="white"/>
<path d="M190.369 47.2905H184.585V49.6907C184.585 50.0989 184.38 50.3021 183.968 50.3021C183.557 50.3021 183.352 50.0989 183.352 49.6907V43.6983C183.352 43.2901 183.557 43.0869 183.968 43.0869C184.38 43.0869 184.585 43.2901 184.585 43.6983V46.113H190.369V43.6983C190.369 43.2901 190.574 43.0869 190.986 43.0869C191.398 43.0869 191.603 43.2901 191.603 43.6983V49.6907C191.603 50.0989 191.398 50.3021 190.986 50.3021C190.574 50.3021 190.369 50.0989 190.369 49.6907V47.2905Z" fill="white"/>
<path d="M196.211 44.3529H194.023C193.628 44.3529 193.43 44.1552 193.43 43.7561C193.43 43.3569 193.628 43.1592 194.023 43.1592H199.644C200.039 43.1592 200.237 43.3587 200.237 43.7561C200.237 44.1534 200.039 44.3529 199.644 44.3529H197.456V49.6922C197.456 50.1004 197.251 50.3036 196.839 50.3036C196.427 50.3036 196.211 50.1004 196.211 49.6922V44.3529Z" fill="white"/>
<path d="M202.683 50.2294C201.023 50.2294 200.192 49.5853 200.192 48.2954V47.4663C200.192 46.1854 201.023 45.5468 202.683 45.5468H207.628V45.3291C207.628 44.6506 207.151 44.3114 206.197 44.3114H204.557C204.169 44.3114 203.975 44.1227 203.975 43.7435C203.975 43.3643 204.169 43.1611 204.557 43.1611H206.197C207.959 43.1611 208.838 43.8832 208.838 45.3291V48.1793C208.838 49.5472 207.993 50.2312 206.302 50.2312H202.683V50.2294ZM206.231 49.0937C207.162 49.0937 207.628 48.7743 207.628 48.1339V46.5483H202.775C201.868 46.5483 201.415 46.844 201.415 47.4355V48.192C201.415 48.7943 201.868 49.0937 202.775 49.0937H206.231Z" fill="white"/>
<path d="M215.798 47.51L211.957 50.0989C211.855 50.1678 211.765 50.2186 211.683 50.2513C211.601 50.2858 211.498 50.3021 211.375 50.3021C211.197 50.3021 211.055 50.2513 210.95 50.1497C210.845 50.0481 210.792 49.8993 210.792 49.7052C210.792 49.5891 210.818 49.4821 210.868 49.3859C210.919 49.2898 211.006 49.2027 211.13 49.1247L215.11 46.6083L211.142 44.2807C211.01 44.2027 210.916 44.1192 210.858 44.0267C210.8 43.9342 210.771 43.8199 210.771 43.6856C210.771 43.5024 210.821 43.3554 210.921 43.2484C211.023 43.1413 211.162 43.0887 211.34 43.0887C211.442 43.0887 211.538 43.1032 211.63 43.1323C211.723 43.1613 211.808 43.2012 211.886 43.2484L215.796 45.7067V43.6838C215.796 43.2865 215.994 43.0869 216.389 43.0869C216.785 43.0869 216.982 43.2865 216.982 43.6838V45.7212L220.892 43.2629C220.97 43.2139 221.055 43.174 221.148 43.1395C221.24 43.1051 221.342 43.0887 221.451 43.0887C221.621 43.0887 221.757 43.1413 221.859 43.2484C221.959 43.3554 222.01 43.5006 222.01 43.6856C222.01 43.8217 221.981 43.936 221.923 44.0267C221.865 44.1174 221.77 44.2045 221.638 44.2807L217.67 46.6083L221.661 49.1247C221.879 49.2607 221.988 49.4548 221.988 49.707C221.988 49.9011 221.935 50.0481 221.83 50.1515C221.725 50.2531 221.583 50.3039 221.406 50.3039C221.289 50.3039 221.186 50.2876 221.097 50.2531C221.008 50.2186 220.917 50.1678 220.823 50.1007L216.982 47.5118V49.6943C216.982 50.1025 216.785 50.3057 216.389 50.3057C215.994 50.3057 215.796 50.1025 215.796 49.6943V47.5118L215.798 47.51Z" fill="white"/>
<path d="M236.794 50.2294C235.134 50.2294 234.303 49.5853 234.303 48.2954V47.4663C234.303 46.1854 235.132 45.5468 236.794 45.5468H241.739V45.3291C241.739 44.6506 241.262 44.3114 240.308 44.3114H238.668C238.28 44.3114 238.085 44.1227 238.085 43.7435C238.085 43.3643 238.28 43.1611 238.668 43.1611H240.308C242.069 43.1611 242.949 43.8832 242.949 45.3291V48.1793C242.949 49.5472 242.104 50.2312 240.413 50.2312H236.794V50.2294ZM240.342 49.0937C241.273 49.0937 241.739 48.7743 241.739 48.1339V46.5483H236.886C235.979 46.5483 235.524 46.844 235.524 47.4355V48.192C235.524 48.7943 235.977 49.0937 236.886 49.0937H240.342Z" fill="white"/>
<path d="M253.307 48.5855C253.307 49.6813 252.36 50.2292 250.467 50.2292H245.685C245.32 50.2292 245.137 50.0641 245.137 49.7339V43.6545C245.137 43.3243 245.319 43.1592 245.685 43.1592H250.235C252.213 43.1592 253.203 43.7415 253.203 44.9045V45.4288C253.203 45.9422 252.917 46.3395 252.341 46.6207C252.986 46.911 253.307 47.3283 253.307 47.8725V48.5855ZM251.979 44.977C251.979 44.4636 251.404 44.206 250.257 44.206H246.463C246.402 44.206 246.371 44.235 246.371 44.2931V46.1254H250.304C251.422 46.1254 251.98 45.8932 251.98 45.427V44.9752L251.979 44.977ZM252.095 47.8435C252.095 47.3682 251.543 47.1305 250.442 47.1305H246.369V49.0935C246.369 49.1516 246.4 49.1806 246.462 49.1806H250.442C251.543 49.1806 252.095 48.9375 252.095 48.4531V47.8417V47.8435Z" fill="white"/>
<path d="M257.496 44.3529H255.308C254.913 44.3529 254.715 44.1552 254.715 43.7561C254.715 43.3569 254.913 43.1592 255.308 43.1592H260.929C261.324 43.1592 261.522 43.3587 261.522 43.7561C261.522 44.1534 261.324 44.3529 260.929 44.3529H258.741V49.6922C258.741 50.1004 258.536 50.3036 258.124 50.3036C257.712 50.3036 257.496 50.1004 257.496 49.6922V44.3529Z" fill="white"/>
<path d="M266.155 50.2292C264.144 50.2292 263.141 49.4636 263.141 47.9306V45.4723C263.141 43.9302 264.146 43.1592 266.155 43.1592H268.401C270.409 43.1592 271.414 43.9302 271.414 45.4723V47.9306C271.414 49.4636 270.409 50.2292 268.401 50.2292H266.155ZM270.169 45.4578C270.169 44.7212 269.591 44.3529 268.435 44.3529H266.107C264.959 44.3529 264.386 44.7212 264.386 45.4578V47.9451C264.386 48.6817 264.959 49.05 266.107 49.05H268.435C269.591 49.05 270.169 48.6817 270.169 47.9451V45.4578Z" fill="white"/>
<path d="M282.014 45.5162L279.001 49.9973C278.939 50.0953 278.863 50.1697 278.774 50.2223C278.685 50.2749 278.562 50.3021 278.407 50.3021C278.253 50.3021 278.132 50.2749 278.046 50.2223C277.961 50.1697 277.887 50.0898 277.825 49.9828L274.823 45.5307V49.7342C274.823 50.1116 274.618 50.3021 274.206 50.3021C273.794 50.3021 273.589 50.1134 273.589 49.7342V43.6983C273.589 43.2901 273.807 43.0869 274.24 43.0869C274.411 43.0869 274.543 43.125 274.636 43.203C274.728 43.281 274.813 43.3736 274.891 43.4788L278.406 48.6856L281.932 43.4788C282.001 43.3627 282.085 43.2683 282.183 43.1958C282.281 43.1232 282.413 43.0869 282.584 43.0869C282.809 43.0869 282.976 43.1395 283.085 43.2466C283.193 43.3536 283.248 43.5042 283.248 43.6983V49.7342C283.248 50.1116 283.039 50.3021 282.62 50.3021C282.201 50.3021 282.014 50.1134 282.014 49.7342V45.5162Z" fill="white"/>
<path d="M288.416 50.2292C286.406 50.2292 285.403 49.4636 285.403 47.9306V45.4723C285.403 43.9302 286.408 43.1592 288.416 43.1592H290.662C292.672 43.1592 293.676 43.9302 293.676 45.4723V47.9306C293.676 49.4636 292.671 50.2292 290.662 50.2292H288.416ZM292.431 45.4578C292.431 44.7212 291.852 44.3529 290.697 44.3529H288.369C287.221 44.3529 286.647 44.7212 286.647 45.4578V47.9451C286.647 48.6817 287.221 49.05 288.369 49.05H290.697C291.852 49.05 292.431 48.6817 292.431 47.9451V45.4578Z" fill="white"/>
<path d="M302.868 44.8615L297.061 50.0103C296.952 50.1082 296.856 50.1808 296.77 50.228C296.685 50.277 296.56 50.3005 296.398 50.3005C296.034 50.3005 295.851 50.0973 295.851 49.6891V43.6822C295.851 43.2849 296.052 43.0854 296.457 43.0854C296.861 43.0854 297.084 43.2849 297.084 43.6822V48.5117L302.902 43.3629C303.002 43.2759 303.098 43.2087 303.187 43.1597C303.276 43.1108 303.38 43.0872 303.496 43.0872C303.898 43.0872 304.102 43.2904 304.102 43.6986V49.691C304.102 50.0992 303.897 50.3024 303.485 50.3024C303.073 50.3024 302.868 50.0992 302.868 49.691V44.8615ZM302.707 40.003C302.707 40.3513 302.649 40.6851 302.532 40.999C302.416 41.3147 302.242 41.5923 302.008 41.8354C301.776 42.0785 301.487 42.269 301.146 42.4105C300.805 42.552 300.413 42.6209 299.971 42.6209C299.528 42.6209 299.138 42.5502 298.801 42.4105C298.463 42.2708 298.178 42.0785 297.946 41.8354C297.714 41.5923 297.538 41.3147 297.422 40.999C297.306 40.6833 297.248 40.3513 297.248 40.003C297.248 39.7798 297.282 39.622 297.353 39.5295C297.422 39.437 297.558 39.3916 297.759 39.3916C297.946 39.3916 298.075 39.4297 298.149 39.5077C298.224 39.5857 298.28 39.6928 298.318 39.827C298.349 40.0302 298.391 40.237 298.439 40.4457C298.49 40.6543 298.574 40.8466 298.69 41.0208C298.806 41.1949 298.966 41.3383 299.167 41.4507C299.368 41.5632 299.637 41.6177 299.971 41.6177C300.305 41.6177 300.571 41.5614 300.774 41.4507C300.976 41.3401 301.135 41.1968 301.252 41.0208C301.368 40.8466 301.451 40.6543 301.502 40.4457C301.553 40.237 301.593 40.0302 301.623 39.827C301.662 39.6909 301.72 39.5839 301.798 39.5077C301.876 39.4297 302.006 39.3916 302.193 39.3916C302.38 39.3916 302.52 39.437 302.594 39.5295C302.668 39.622 302.705 39.7798 302.705 40.003H302.707Z" fill="white"/>
<path d="M307.57 47.4354V49.6905C307.57 50.0987 307.365 50.3019 306.953 50.3019C306.541 50.3019 306.336 50.0987 306.336 49.6905V43.6836C306.336 43.2863 306.541 43.0867 306.953 43.0867C307.365 43.0867 307.57 43.2863 307.57 43.6836V45.7791L312.528 43.2772C312.644 43.2192 312.742 43.1702 312.819 43.1321C312.897 43.094 312.982 43.0795 313.074 43.0886C313.269 43.0886 313.419 43.1394 313.528 43.2409C313.637 43.3425 313.691 43.4913 313.691 43.6854C313.691 43.8215 313.662 43.9322 313.604 44.0193C313.546 44.1063 313.443 44.1898 313.296 44.266L308.455 46.6082L313.319 49.139C313.475 49.2261 313.575 49.3186 313.622 49.4148C313.67 49.5127 313.691 49.6089 313.691 49.705C313.691 50.1024 313.474 50.3019 313.04 50.3019C312.938 50.3019 312.853 50.2856 312.784 50.2511C312.715 50.2167 312.61 50.1622 312.47 50.0842L307.57 47.4373V47.4354Z" fill="white"/>
<path d="M317.844 50.2294C316.184 50.2294 315.354 49.5853 315.354 48.2954V47.4663C315.354 46.1854 316.183 45.5468 317.844 45.5468H322.79V45.3291C322.79 44.6506 322.313 44.3114 321.359 44.3114H319.719C319.33 44.3114 319.136 44.1227 319.136 43.7435C319.136 43.3643 319.33 43.1611 319.719 43.1611H321.359C323.12 43.1611 324 43.8832 324 45.3291V48.1793C324 49.5472 323.155 50.2312 321.464 50.2312H317.844V50.2294ZM321.395 49.0937C322.326 49.0937 322.792 48.7743 322.792 48.1339V46.5483H317.939C317.032 46.5483 316.576 46.844 316.576 47.4355V48.192C316.576 48.7943 317.03 49.0937 317.939 49.0937H321.395Z" fill="white"/>
</svg>
