<svg width="330" height="70" viewBox="0 0 330 70" fill="none" xmlns="http://www.w3.org/2000/svg">
<path d="M67.0722 29.233C66.4706 29.233 65.9286 28.8685 65.6991 28.3117L63.878 23.901L62.0459 19.4576C61.8165 18.899 61.943 18.257 62.3675 17.8308C62.9475 17.2486 62.9475 16.3019 62.3675 15.7197L56.0007 9.32855C55.4207 8.74638 54.4776 8.74638 53.8977 9.32855C53.4731 9.75475 52.8335 9.88352 52.277 9.65137L47.8506 7.81237L43.4567 5.98424C42.9002 5.75391 42.5389 5.20801 42.5389 4.60589C42.5389 3.78069 41.8722 3.11328 41.0519 3.11328H32.0473C31.2252 3.11328 30.5603 3.78251 30.5603 4.60589C30.5603 5.20982 30.1972 5.75391 29.6425 5.98424L25.2486 7.81237L20.8221 9.65137C20.2657 9.8817 19.6261 9.75475 19.2015 9.32855C18.6216 8.74638 17.6785 8.74638 17.0985 9.32855L10.7316 15.7197C10.1517 16.3019 10.1517 17.2486 10.7316 17.8308C11.1562 18.257 11.2845 18.899 11.0532 19.4576L9.21762 23.9082L7.40007 28.3117C7.17061 28.8703 6.62679 29.233 6.02696 29.233C5.20491 29.233 4.54004 29.9022 4.54004 30.7256V39.7647C4.54004 40.5899 5.20672 41.2573 6.02696 41.2573C6.6286 41.2573 7.17061 41.6218 7.40007 42.1786L9.22123 46.5893L11.0532 51.0327C11.2827 51.5913 11.1562 52.2333 10.7316 52.6595C10.1517 53.2417 10.1517 54.1884 10.7316 54.7706L17.0985 61.1618C17.6785 61.7439 18.6216 61.7439 19.2015 61.1618C19.6261 60.7356 20.2657 60.6068 20.8221 60.8389L25.2486 62.678L29.6425 64.5061C30.199 64.7364 30.5603 65.2823 30.5603 65.8844C30.5603 66.7096 31.227 67.377 32.0473 67.377H41.0519C41.874 67.377 42.5389 66.7078 42.5389 65.8844C42.5389 65.2805 42.902 64.7364 43.4567 64.5061L47.8506 62.678L52.277 60.8389C52.8335 60.6086 53.4731 60.7356 53.8977 61.1618C54.4776 61.7439 55.4207 61.7439 56.0007 61.1618L62.3675 54.7706C62.9475 54.1884 62.9475 53.2417 62.3675 52.6595C61.943 52.2333 61.8147 51.5913 62.0459 51.0327L63.8816 46.5821L65.6991 42.1786C65.9286 41.62 66.4724 41.2573 67.0722 41.2573C67.8943 41.2573 68.5591 40.5881 68.5591 39.7647V35.2452V30.7256C68.5591 29.9004 67.8925 29.233 67.0722 29.233ZM36.5496 60.6358C22.5801 60.6358 11.2556 49.2681 11.2556 35.2452C11.2556 21.2223 22.5801 9.8545 36.5496 9.8545C50.5191 9.8545 61.8436 21.2223 61.8436 35.2452C61.8436 49.2681 50.5191 60.6358 36.5496 60.6358Z" fill="#323232"/>
<path d="M36.5497 11.9482C30.3942 11.9482 24.4917 14.4021 20.1375 18.7729C15.7852 23.1419 13.3389 29.0688 13.3389 35.2478H15.3877C15.3877 29.5748 17.5883 24.2391 21.5847 20.2274C25.5812 16.2157 30.8947 14.0067 36.5479 14.0067C42.2011 14.0067 47.5147 16.2157 51.5111 20.2274C55.5076 24.2391 57.7081 29.573 57.7081 35.2478H59.757C59.757 29.0688 57.3125 23.1437 52.9583 18.7729C48.6059 14.4039 42.7016 11.9482 36.5461 11.9482H36.5497Z" fill="#FE4F02"/>
<path d="M36.5499 9.85449C29.8415 9.85449 23.4078 12.5296 18.6652 17.2921C13.9208 22.0529 11.2559 28.5112 11.2559 35.2451H13.3408C13.3408 29.0662 15.7853 23.1411 20.1395 18.7702C24.4918 14.4012 30.3962 11.9456 36.5517 11.9456C42.7071 11.9456 48.6097 14.3994 52.9639 18.7702C57.3162 23.1392 59.7625 29.0662 59.7625 35.2451H61.8475C61.8475 28.5112 59.1826 22.0529 54.4381 17.2921C49.6937 12.5296 43.2618 9.85449 36.5535 9.85449H36.5499Z" fill="#FE4F02"/>
<path d="M31.639 33.3581V30.8789L31.6444 30.8481C31.6625 30.7248 31.6896 30.5942 31.7275 30.4473C31.7691 30.2877 31.8323 30.1444 31.9208 30.012C32.022 29.8724 32.1575 29.7599 32.3255 29.6819C32.4918 29.6021 32.6941 29.564 32.9471 29.564H39.182C39.5018 29.564 39.8523 29.506 40.2263 29.3918C40.6003 29.2721 40.9526 29.0834 41.2724 28.8313C41.5886 28.5756 41.8578 28.2383 42.0692 27.8284C42.2823 27.4203 42.3907 26.9089 42.3907 26.305V25.166C42.3907 24.9538 42.3637 24.7271 42.3094 24.4732C42.2625 24.2229 42.183 23.9835 42.0692 23.7405C41.9662 23.5029 41.8271 23.269 41.6554 23.0477C41.4892 22.8319 41.2832 22.6397 41.0429 22.4728C40.8171 22.3059 40.5443 22.1699 40.2335 22.0684C39.9246 21.9668 39.5705 21.916 39.182 21.916H30.8748V23.8312H39.182C39.5885 23.8312 39.9083 23.9509 40.1342 24.1885C40.3582 24.4224 40.4702 24.758 40.4702 25.1823V26.3032C40.4702 26.7149 40.3564 27.0431 40.1342 27.2771C39.9156 27.5074 39.5885 27.6253 39.164 27.6253H32.9489C32.555 27.6253 32.1973 27.6761 31.8883 27.7776C31.5794 27.8774 31.3011 28.0152 31.0645 28.1857C30.8332 28.3489 30.6327 28.5394 30.4682 28.7515C30.3056 28.9692 30.1683 29.205 30.0617 29.4498C29.9569 29.6928 29.8756 29.9431 29.8214 30.1934C29.7745 30.44 29.751 30.6758 29.751 30.8952V35.2751H42.3944V33.36H31.6444L31.639 33.3581Z" fill="#323232"/>
<path d="M29.7494 49.2097H27.9138V46.716H20.7682V49.2097H18.9326V44.1298C18.9326 43.388 19.0591 42.7061 19.3138 42.0822C19.5686 41.4583 19.9209 40.9233 20.3726 40.4735C20.8242 40.0255 21.359 39.6755 21.9751 39.4252C22.5912 39.1749 23.2651 39.0498 23.9932 39.0498H28.8244C28.9508 39.0498 29.0719 39.0734 29.1839 39.1205C29.2959 39.1677 29.3953 39.233 29.4802 39.3182C29.5651 39.4035 29.6302 39.5014 29.6771 39.6157C29.7241 39.7281 29.7476 39.8496 29.7476 39.9766V49.2079H29.7494V49.2097ZM20.77 44.8733H27.9156V40.8924H23.995C23.939 40.8924 23.818 40.9015 23.6355 40.9215C23.4566 40.936 23.2471 40.9759 23.0068 41.0412C22.7719 41.1083 22.5226 41.208 22.2588 41.3458C21.995 41.4819 21.7529 41.6723 21.5325 41.9117C21.3121 42.1529 21.1278 42.454 20.9814 42.8185C20.8405 43.1776 20.77 43.6147 20.77 44.1298V44.8733ZM41.0342 40.8924H36.9907V49.2097H35.1551V40.8924H31.1044V39.0498H41.0342V40.8924Z" fill="#323232"/>
<path d="M54.1675 49.2105H52.3192V43.1603L49.0653 48.9059C48.9858 49.0528 48.872 49.1634 48.7256 49.2396C48.5847 49.3157 48.4311 49.352 48.2667 49.352C48.1023 49.352 47.956 49.3139 47.8151 49.2396C47.6796 49.1634 47.5712 49.0528 47.4899 48.9059L44.2233 43.1603V49.2105H42.3877V39.8378C42.3877 39.6256 42.4491 39.4369 42.572 39.2719C42.6984 39.1069 42.8647 38.9962 43.0652 38.9382C43.1646 38.9146 43.2621 38.9074 43.3615 38.9164C43.4609 38.9219 43.5548 38.9418 43.6434 38.9799C43.7373 39.0126 43.8222 39.0633 43.8981 39.1286C43.974 39.1903 44.0372 39.2665 44.0878 39.3553L48.2649 46.6443L52.4439 39.3553C52.5523 39.1758 52.7004 39.0488 52.8883 38.9727C53.0816 38.8965 53.2804 38.8856 53.4881 38.9364C53.6851 38.9926 53.8477 39.1051 53.976 39.2701C54.1024 39.4351 54.1657 39.6238 54.1657 39.8359V49.2087H54.1675V49.2105Z" fill="#323232"/>
<path d="M116.547 32.5679C116.547 32.9324 116.482 33.3223 116.354 33.7413C116.233 34.1584 116.029 34.5465 115.741 34.902C115.461 35.2593 115.095 35.5585 114.641 35.8015C114.188 36.0373 113.633 36.1552 112.974 36.1552H101.781C101.57 36.1552 101.373 36.1171 101.192 36.0409C101.011 35.9648 100.852 35.8632 100.717 35.7344C100.589 35.5984 100.486 35.4388 100.41 35.2556C100.336 35.0743 100.296 34.8766 100.296 34.6644V21.3234C100.296 21.1185 100.334 20.9244 100.41 20.7431C100.486 20.5617 100.589 20.4021 100.717 20.2643C100.852 20.1282 101.011 20.0212 101.192 19.9451C101.373 19.8689 101.57 19.8308 101.781 19.8308H111.646C112.009 19.8308 112.399 19.8961 112.815 20.0249C113.23 20.1536 113.617 20.3622 113.971 20.6506C114.334 20.9317 114.632 21.2998 114.867 21.7551C115.109 22.2103 115.23 22.7689 115.23 23.429V23.9876C115.23 24.5118 115.143 25.0758 114.97 25.6834C114.797 26.2837 114.517 26.8513 114.13 27.39C114.462 27.5949 114.773 27.8416 115.06 28.1299C115.357 28.4183 115.613 28.752 115.832 29.131C116.052 29.5101 116.224 29.9399 116.354 30.4169C116.482 30.8957 116.547 31.4216 116.547 31.9984V32.5679ZM113.601 31.9984C113.601 31.6121 113.541 31.2657 113.42 30.9628C113.299 30.6509 113.129 30.3861 112.91 30.1666C112.69 29.9472 112.426 29.7803 112.115 29.6661C111.805 29.5446 111.458 29.4847 111.073 29.4847H104.428V26.5031H109.747C110.132 26.5031 110.48 26.4469 110.789 26.3326C111.1 26.2111 111.364 26.0406 111.582 25.8212C111.801 25.6017 111.967 25.3388 112.081 25.0359C112.202 24.724 112.262 24.3757 112.262 23.9894V23.4308C112.262 23.0065 112.058 22.7943 111.649 22.7943H103.246V33.199H112.975C113.028 33.199 113.093 33.1954 113.169 33.1881C113.245 33.1809 113.313 33.1573 113.373 33.1192C113.434 33.0811 113.487 33.0176 113.532 32.9251C113.577 32.8345 113.601 32.7093 113.601 32.5497V32.0038V31.9984Z" fill="#323232"/>
<path d="M132.13 29.4829H122.82V26.5013H132.13V29.4829ZM133.458 36.1534H122.822C122.413 36.1534 121.967 36.0808 121.483 35.9376C120.999 35.7925 120.549 35.5585 120.133 35.2321C119.725 34.8984 119.38 34.4685 119.102 33.9462C118.829 33.4148 118.693 32.7655 118.693 32.0002V21.3234C118.693 21.1185 118.731 20.9244 118.807 20.7431C118.883 20.5617 118.986 20.4021 119.114 20.2643C119.25 20.1282 119.409 20.0212 119.589 19.9451C119.77 19.8689 119.967 19.8308 120.178 19.8308H133.458V22.7906H121.642V32.0002C121.642 32.3865 121.745 32.6839 121.947 32.8889C122.151 33.0938 122.45 33.1954 122.843 33.1954H133.458V36.1552V36.1534Z" fill="#323232"/>
<path d="M159.823 36.1523H156.874V32.146H146.509V36.1523H143.561V27.991C143.561 26.7994 143.765 25.7022 144.173 24.7011C144.58 23.7 145.147 22.8385 145.875 22.1167C146.601 21.3948 147.458 20.8344 148.45 20.4318C149.44 20.0292 150.52 19.8279 151.693 19.8279H158.338C158.542 19.8279 158.735 19.866 158.916 19.9421C159.096 20.0183 159.255 20.1235 159.391 20.2613C159.528 20.3974 159.633 20.557 159.709 20.7401C159.783 20.9215 159.823 21.1155 159.823 21.3205V36.1523ZM146.509 29.1861H156.874V22.7895H151.691C151.6 22.7895 151.407 22.804 151.113 22.8349C150.824 22.8584 150.489 22.9219 150.103 23.0289C149.725 23.1359 149.324 23.2991 148.899 23.5186C148.477 23.738 148.086 24.0427 147.732 24.429C147.376 24.8153 147.082 25.3014 146.847 25.8854C146.621 26.4621 146.507 27.164 146.507 27.991V29.1861H146.509Z" fill="#323232"/>
<path d="M177.955 22.7906H171.458V36.1552H168.51V22.7906H162V19.8308H177.955V22.7906Z" fill="#323232"/>
<path d="M199.06 36.1536H196.09V26.4326L190.863 35.6639C190.735 35.8997 190.552 36.0774 190.319 36.1989C190.092 36.3204 189.846 36.3803 189.582 36.3803C189.318 36.3803 189.083 36.3204 188.856 36.1989C188.635 36.0774 188.464 35.8997 188.334 35.6639L183.083 26.4326V36.1536H180.135V21.0933C180.135 20.7523 180.234 20.4477 180.431 20.1829C180.635 19.9181 180.899 19.7385 181.226 19.6479C181.385 19.6098 181.544 19.5989 181.701 19.6134C181.86 19.6206 182.012 19.6551 182.155 19.7168C182.305 19.7694 182.442 19.8492 182.561 19.9562C182.682 20.0541 182.785 20.1756 182.868 20.3207L189.582 32.0349L196.296 20.3207C196.469 20.0323 196.708 19.8274 197.009 19.7059C197.32 19.5844 197.64 19.5662 197.974 19.6497C198.292 19.7403 198.552 19.9199 198.757 20.1847C198.961 20.4495 199.062 20.7542 199.062 21.0951V36.1554L199.06 36.1536Z" fill="#323232"/>
<path d="M219.562 29.5528C219.562 30.5466 219.392 31.4607 219.051 32.2968C218.711 33.1311 218.238 33.8529 217.634 34.4604C217.029 35.068 216.312 35.5413 215.479 35.8841C214.655 36.2178 213.755 36.3847 212.781 36.3847H208.788C207.813 36.3847 206.909 36.2178 206.078 35.8841C205.245 35.5432 204.528 35.068 203.923 34.4604C203.32 33.8529 202.843 33.1329 202.494 32.2968C202.154 31.4625 201.984 30.5485 201.984 29.5528V26.4334C201.984 25.4467 202.154 24.5363 202.494 23.702C202.841 22.8605 203.318 22.1387 203.923 21.5384C204.528 20.9308 205.245 20.4575 206.078 20.1147C206.909 19.7737 207.813 19.6033 208.788 19.6033H212.781C213.757 19.6033 214.655 19.7737 215.479 20.1147C216.312 20.4557 217.029 20.9308 217.634 21.5384C218.239 22.1387 218.711 22.8587 219.051 23.702C219.392 24.5363 219.562 25.4467 219.562 26.4334V29.5528ZM216.613 26.4334C216.613 25.8494 216.519 25.3216 216.33 24.8519C216.149 24.3731 215.887 23.9687 215.547 23.6331C215.215 23.2922 214.81 23.0292 214.335 22.8478C213.865 22.6574 213.349 22.5631 212.781 22.5631H208.788C208.214 22.5631 207.688 22.6574 207.213 22.8478C206.743 23.0292 206.339 23.2922 205.999 23.6331C205.659 23.9668 205.395 24.3731 205.206 24.8519C205.025 25.3216 204.935 25.8494 204.935 26.4334V29.5528C204.935 30.1368 205.025 30.6682 205.206 31.147C205.395 31.6167 205.659 32.0229 205.999 32.3657C206.339 32.6994 206.743 32.9606 207.213 33.151C207.688 33.3324 208.214 33.4249 208.788 33.4249H212.758C213.332 33.4249 213.853 33.3342 214.322 33.151C214.798 32.9606 215.206 32.6994 215.547 32.3657C215.887 32.0247 216.149 31.6185 216.33 31.147C216.518 30.6682 216.613 30.1368 216.613 29.5528V26.4334Z" fill="#323232"/>
<path d="M237.036 36.1523H226.4C226.127 36.1523 225.833 36.1214 225.516 36.0616C225.206 35.9927 224.897 35.8911 224.586 35.7551C224.282 35.6191 223.992 35.4431 223.712 35.2309C223.433 35.0115 223.182 34.7485 222.964 34.4456C222.752 34.1337 222.582 33.7782 222.454 33.3756C222.326 32.9657 222.261 32.5069 222.261 31.9991V23.9847C222.261 23.7108 222.291 23.4188 222.351 23.1087C222.418 22.7895 222.521 22.4794 222.656 22.1747C222.792 21.8628 222.971 21.5671 223.189 21.286C223.41 21.0049 223.67 20.7583 223.972 20.5461C224.282 20.3266 224.637 20.1507 225.038 20.0219C225.439 19.8932 225.892 19.8279 226.398 19.8279H237.034V22.7877H226.398C226.013 22.7877 225.719 22.8911 225.515 23.0942C225.31 23.2991 225.207 23.602 225.207 24.0046V31.9954C225.207 32.3745 225.31 32.6701 225.515 32.8841C225.726 33.0891 226.021 33.1906 226.398 33.1906H237.034V36.1504L237.036 36.1523Z" fill="#323232"/>
<path d="M278.369 29.4829H269.059V26.5013H278.369V29.4829ZM279.695 36.1534H269.059C268.651 36.1534 268.204 36.0808 267.72 35.9376C267.236 35.7925 266.786 35.5585 266.371 35.2321C265.962 34.8984 265.619 34.4685 265.339 33.9462C265.066 33.4148 264.931 32.7655 264.931 32.0002V21.3234C264.931 21.1185 264.969 20.9244 265.044 20.7431C265.12 20.5617 265.223 20.4021 265.352 20.2643C265.487 20.1282 265.646 20.0212 265.827 19.9451C266.007 19.8689 266.204 19.8308 266.416 19.8308H279.695V22.7906H267.879V32.0002C267.879 32.3865 267.982 32.6839 268.185 32.8889C268.389 33.0938 268.687 33.1954 269.081 33.1954H279.695V36.1552V36.1534Z" fill="#323232"/>
<path d="M298.752 25.3159C298.752 25.9906 298.668 26.5945 298.502 27.1259C298.336 27.6573 298.108 28.127 297.821 28.5369C297.541 28.9395 297.216 29.2841 296.845 29.5724C296.475 29.8608 296.087 30.1002 295.678 30.2888C295.277 30.4702 294.869 30.6044 294.453 30.6878C294.045 30.7713 293.66 30.813 293.297 30.813H286.63V27.8531H293.297C293.667 27.8223 294.004 27.7461 294.307 27.6246C294.618 27.4959 294.882 27.3254 295.102 27.1132C295.33 26.901 295.501 26.6471 295.624 26.3497C295.745 26.0468 295.805 25.7004 295.805 25.3141V23.4479C295.805 23.281 295.781 23.1559 295.736 23.0724C295.698 22.9818 295.646 22.9165 295.577 22.8784C295.518 22.833 295.449 22.8058 295.373 22.7986C295.306 22.7913 295.241 22.7877 295.18 22.7877H285.451V36.1523H282.502V21.3205C282.502 21.1155 282.54 20.9215 282.616 20.7401C282.69 20.5588 282.793 20.3992 282.921 20.2613C283.057 20.1253 283.216 20.0183 283.396 19.9421C283.577 19.866 283.774 19.8279 283.985 19.8279H295.178C295.836 19.8279 296.392 19.9494 296.845 20.1924C297.299 20.4282 297.666 20.7274 297.946 21.092C298.233 21.4493 298.437 21.8356 298.558 22.2527C298.686 22.6698 298.752 23.0616 298.752 23.4261V25.3159Z" fill="#323232"/>
<path d="M262.453 25.3159C262.453 25.9906 262.37 26.5945 262.204 27.1259C262.038 27.6573 261.81 28.127 261.523 28.5369C261.243 28.9395 260.918 29.2841 260.547 29.5724C260.177 29.8608 259.788 30.1002 259.38 30.2888C258.979 30.4702 258.571 30.6044 258.155 30.6878C257.747 30.7713 257.362 30.813 256.999 30.813H253.279V27.8531H256.999C257.369 27.8223 257.705 27.7461 258.009 27.6246C258.319 27.4959 258.583 27.3254 258.804 27.1132C259.031 26.901 259.203 26.6471 259.326 26.3497C259.447 26.0468 259.506 25.7004 259.506 25.3141V23.4479C259.506 23.281 259.483 23.1559 259.438 23.0724C259.4 22.9818 259.347 22.9165 259.279 22.8784C259.219 22.833 259.151 22.8058 259.075 22.7986C259.008 22.7913 258.943 22.7877 258.881 22.7877H252.099V36.1523H249.15V21.3205C249.15 21.1155 249.188 20.9215 249.264 20.7401C249.338 20.5588 249.441 20.3992 249.57 20.2613C249.705 20.1253 249.864 20.0183 250.045 19.9421C250.225 19.866 250.422 19.8279 250.634 19.8279H258.878C259.535 19.8279 260.092 19.9494 260.545 20.1924C260.999 20.4282 261.366 20.7274 261.646 21.092C261.933 21.4493 262.137 21.8356 262.258 22.2527C262.386 22.6698 262.451 23.0616 262.451 23.4261V25.3159H262.453Z" fill="#323232"/>
<path d="M238.799 23.4261C238.799 23.0616 238.864 22.6716 238.992 22.2527C239.113 21.8356 239.317 21.4474 239.604 21.092C239.885 20.7274 240.251 20.4282 240.705 20.1924C241.158 19.9494 241.713 19.8279 242.372 19.8279H250.616C250.828 19.8279 251.025 19.866 251.205 19.9421C251.386 20.0183 251.545 20.1235 251.681 20.2613C251.809 20.3974 251.912 20.557 251.986 20.7401C252.062 20.9215 252.1 21.1155 252.1 21.3205V36.1523H249.151V22.7877H242.369C242.307 22.7877 242.244 22.7913 242.175 22.7986C242.1 22.8058 242.031 22.833 241.971 22.8784C241.903 22.9165 241.85 22.9818 241.812 23.0724C241.767 23.1559 241.744 23.281 241.744 23.4479V25.3141C241.744 25.7004 241.803 26.0468 241.924 26.3497C242.045 26.6453 242.219 26.8992 242.446 27.1132C242.667 27.3254 242.931 27.4959 243.241 27.6246C243.545 27.7461 243.879 27.8223 244.251 27.8531H247.971V30.813H244.251C243.888 30.813 243.503 30.7713 243.095 30.6878C242.679 30.6044 242.271 30.472 241.87 30.2888C241.462 30.0984 241.073 29.8608 240.703 29.5724C240.333 29.2841 240.007 28.9395 239.727 28.5369C239.44 28.127 239.212 27.6573 239.046 27.1259C238.88 26.5945 238.797 25.9906 238.797 25.3159V23.4261H238.799Z" fill="#323232"/>
<path d="M317.905 30.6661C317.905 29.9914 317.822 29.3875 317.655 28.8561C317.489 28.3247 317.263 27.855 316.976 27.4451C316.696 27.0425 316.371 26.6979 316 26.4095C315.63 26.1211 315.24 25.8817 314.832 25.6931C314.432 25.5118 314.022 25.3776 313.607 25.2941C313.198 25.2107 312.813 25.169 312.45 25.169H305.783V28.1288H312.45C312.821 28.1596 313.157 28.2358 313.46 28.3555C313.771 28.4843 314.035 28.6548 314.253 28.867C314.481 29.0791 314.654 29.3331 314.775 29.6305C314.897 29.9334 314.956 30.2798 314.956 30.6661V32.5323C314.956 32.6991 314.933 32.8243 314.887 32.9077C314.85 32.9984 314.797 33.0637 314.729 33.1017C314.669 33.1471 314.6 33.1743 314.524 33.1815C314.456 33.1888 314.392 33.1924 314.331 33.1924H304.602V19.8279H301.653V34.6597C301.653 34.8646 301.691 35.0586 301.767 35.24C301.843 35.4214 301.946 35.581 302.074 35.7188C302.21 35.8548 302.369 35.9618 302.549 36.038C302.73 36.1142 302.927 36.1523 303.138 36.1523H314.331C314.989 36.1523 315.545 36.0307 315.999 35.7877C316.452 35.552 316.819 35.2527 317.099 34.8882C317.386 34.5309 317.59 34.1446 317.711 33.7275C317.84 33.3103 317.905 32.9186 317.905 32.5559V30.6661Z" fill="#323232"/>
<path d="M78.5469 36.1523V33.2378L80.1296 33.1924V27.991C80.1296 26.7994 80.3337 25.7022 80.742 24.7011C81.1503 23.7 81.7177 22.8385 82.4422 22.1167C83.1684 21.3948 84.0266 20.8344 85.0167 20.4318C86.0068 20.0292 87.0872 19.8279 88.2598 19.8279H94.9049C95.109 19.8279 95.3023 19.866 95.483 19.9421C95.6637 20.0183 95.8227 20.1235 95.96 20.2613C96.0955 20.3974 96.2021 20.557 96.278 20.7401C96.3538 20.9215 96.3918 21.1155 96.3918 21.3205V33.2396H98.2888V36.1541H78.5469V36.1523ZM83.0781 33.1942H93.4432V22.7895H88.2616C88.1712 22.7895 87.9779 22.804 87.6834 22.8349C87.3962 22.8584 87.0601 22.9219 86.6735 23.0289C86.2959 23.1359 85.8948 23.2991 85.472 23.5186C85.0492 23.738 84.659 24.0427 84.3049 24.429C83.9489 24.8153 83.6545 25.3014 83.4196 25.8854C83.1919 26.4621 83.0799 27.164 83.0799 27.991V33.1924L83.0781 33.1942Z" fill="#323232"/>
<path d="M320.43 19.8347H323.333V36.1537H320.43V19.8347Z" fill="#323232"/>
<path d="M81.6982 50.8184C79.6964 50.8184 78.6973 50.0531 78.6973 48.5205V46.0631C78.6973 44.5215 79.6982 43.7507 81.6982 43.7507H85.7073C86.1084 43.7507 86.309 43.9502 86.309 44.3474C86.309 44.7446 86.1084 44.9441 85.7073 44.9441H81.6512C80.5076 44.9441 79.9367 45.3123 79.9367 46.0486V48.5351C79.9367 49.2714 80.5076 49.6396 81.6512 49.6396H85.7073C86.1084 49.6396 86.309 49.8336 86.309 50.2217C86.309 50.6098 86.1084 50.8184 85.7073 50.8184H81.6982Z" fill="#323232"/>
<path d="M90.6457 44.9443H88.4668C88.0729 44.9443 87.876 44.7466 87.876 44.3477C87.876 43.9487 88.0729 43.751 88.4668 43.751H94.064C94.4578 43.751 94.6548 43.9505 94.6548 44.3477C94.6548 44.7448 94.4578 44.9443 94.064 44.9443H91.8851V50.2818C91.8851 50.6899 91.6809 50.893 91.2708 50.893C90.8607 50.893 90.6457 50.6899 90.6457 50.2818V44.9443Z" fill="#323232"/>
<path d="M99.2676 50.8184C97.2657 50.8184 96.2666 50.0531 96.2666 48.5205V46.0631C96.2666 44.5215 97.2675 43.7507 99.2676 43.7507H101.504C103.506 43.7507 104.505 44.5215 104.505 46.0631V48.5205C104.505 50.0531 103.504 50.8184 101.504 50.8184H99.2676ZM103.266 46.0486C103.266 45.3123 102.689 44.9441 101.539 44.9441H99.2206C98.0769 44.9441 97.506 45.3123 97.506 46.0486V48.5351C97.506 49.2714 98.0769 49.6396 99.2206 49.6396H101.539C102.689 49.6396 103.266 49.2714 103.266 48.5351V46.0486Z" fill="#323232"/>
<path d="M120.234 50.8185C118.241 50.8185 117.244 50.0532 117.244 48.5207V44.2895C117.244 43.8815 117.448 43.6783 117.858 43.6783C118.269 43.6783 118.473 43.8815 118.473 44.2895V48.5352C118.473 49.2715 119.017 49.6397 120.106 49.6397H121.949V44.2877C121.949 43.8796 122.149 43.6765 122.55 43.6765C122.952 43.6765 123.154 43.8796 123.154 44.2877V49.6397H124.939C126.036 49.6397 126.585 49.2715 126.585 48.5352V44.2895C126.585 43.8815 126.789 43.6783 127.199 43.6783C127.609 43.6783 127.813 43.8815 127.813 44.2895V48.5207C127.813 50.0532 126.816 50.8185 124.823 50.8185H120.234Z" fill="#323232"/>
<path d="M137.05 45.454L131.267 50.601C131.158 50.699 131.063 50.7715 130.978 50.8187C130.893 50.8676 130.768 50.8912 130.607 50.8912C130.244 50.8912 130.063 50.6881 130.063 50.28V44.2751C130.063 43.878 130.264 43.6785 130.665 43.6785C131.066 43.6785 131.29 43.878 131.29 44.2751V49.103L137.084 43.956C137.184 43.8689 137.279 43.8018 137.368 43.7528C137.457 43.7039 137.56 43.6803 137.675 43.6803C138.076 43.6803 138.277 43.8834 138.277 44.2915V50.2818C138.277 50.6899 138.073 50.893 137.663 50.893C137.252 50.893 137.048 50.6899 137.048 50.2818V45.454H137.05Z" fill="#323232"/>
<path d="M147.491 47.8816H141.731V50.281C141.731 50.6891 141.527 50.8922 141.117 50.8922C140.707 50.8922 140.503 50.6891 140.503 50.281V44.2906C140.503 43.8826 140.707 43.6794 141.117 43.6794C141.527 43.6794 141.731 43.8826 141.731 44.2906V46.7046H147.491V44.2906C147.491 43.8826 147.695 43.6794 148.106 43.6794C148.516 43.6794 148.72 43.8826 148.72 44.2906V50.281C148.72 50.6891 148.516 50.8922 148.106 50.8922C147.695 50.8922 147.491 50.6891 147.491 50.281V47.8816Z" fill="#323232"/>
<path d="M153.89 50.8184C151.888 50.8184 150.889 50.0531 150.889 48.5205V46.0631C150.889 44.5215 151.89 43.7507 153.89 43.7507H156.126C158.128 43.7507 159.127 44.5215 159.127 46.0631V48.5205C159.127 50.0531 158.126 50.8184 156.126 50.8184H153.89ZM157.888 46.0486C157.888 45.3123 157.312 44.9441 156.161 44.9441H153.843C152.699 44.9441 152.128 45.3123 152.128 46.0486V48.5351C152.128 49.2714 152.699 49.6396 153.843 49.6396H156.161C157.312 49.6396 157.888 49.2714 157.888 48.5351V46.0486Z" fill="#323232"/>
<path d="M169.683 46.1069L166.682 50.5865C166.621 50.6845 166.545 50.7588 166.457 50.8114C166.368 50.864 166.245 50.8912 166.092 50.8912C165.938 50.8912 165.817 50.864 165.732 50.8114C165.647 50.7588 165.573 50.679 165.512 50.572L162.522 46.1214V50.3236C162.522 50.7008 162.317 50.8912 161.907 50.8912C161.497 50.8912 161.293 50.7026 161.293 50.3236V44.2897C161.293 43.8816 161.51 43.6785 161.942 43.6785C162.111 43.6785 162.243 43.7165 162.335 43.7945C162.428 43.8725 162.513 43.965 162.59 44.0702L166.09 49.2753L169.602 44.0702C169.671 43.9541 169.754 43.8598 169.851 43.7873C169.947 43.7147 170.081 43.6785 170.251 43.6785C170.475 43.6785 170.641 43.7311 170.749 43.8381C170.858 43.9451 170.912 44.0956 170.912 44.2897V50.3236C170.912 50.7008 170.702 50.8912 170.287 50.8912C169.871 50.8912 169.683 50.7026 169.683 50.3236V46.1069Z" fill="#323232"/>
<path d="M176.058 50.8186C174.056 50.8186 173.057 50.0533 173.057 48.5208V46.0633C173.057 44.5218 174.058 43.751 176.058 43.751H178.294C180.296 43.751 181.295 44.5218 181.295 46.0633V48.5208C181.295 50.0533 180.294 50.8186 178.294 50.8186H176.058ZM180.056 46.0488C180.056 45.3125 179.48 44.9443 178.329 44.9443H176.011C174.867 44.9443 174.296 45.3125 174.296 46.0488V48.5353C174.296 49.2716 174.867 49.6398 176.011 49.6398H178.329C179.48 49.6398 180.056 49.2716 180.056 48.5353V46.0488Z" fill="#323232"/>
<path d="M190.452 47.8816H184.692V50.281C184.692 50.6891 184.488 50.8922 184.078 50.8922C183.668 50.8922 183.464 50.6891 183.464 50.281V44.2906C183.464 43.8826 183.668 43.6794 184.078 43.6794C184.488 43.6794 184.692 43.8826 184.692 44.2906V46.7046H190.452V44.2906C190.452 43.8826 190.656 43.6794 191.067 43.6794C191.477 43.6794 191.681 43.8826 191.681 44.2906V50.281C191.681 50.6891 191.477 50.8922 191.067 50.8922C190.656 50.8922 190.452 50.6891 190.452 50.281V47.8816Z" fill="#323232"/>
<path d="M196.269 44.9443H194.09C193.696 44.9443 193.499 44.7466 193.499 44.3477C193.499 43.9487 193.696 43.751 194.09 43.751H199.687C200.081 43.751 200.278 43.9505 200.278 44.3477C200.278 44.7448 200.081 44.9443 199.687 44.9443H197.508V50.2818C197.508 50.6899 197.304 50.893 196.894 50.893C196.484 50.893 196.269 50.6899 196.269 50.2818V44.9443Z" fill="#323232"/>
<path d="M202.713 50.8188C201.06 50.8188 200.232 50.175 200.232 48.8855V48.0566C200.232 46.7762 201.06 46.1378 202.713 46.1378H207.638V45.9202C207.638 45.2419 207.163 44.9028 206.213 44.9028H204.579C204.193 44.9028 203.999 44.7142 203.999 44.3351C203.999 43.9561 204.193 43.7529 204.579 43.7529H206.213C207.967 43.7529 208.843 44.4748 208.843 45.9202V48.7694C208.843 50.1369 208.001 50.8206 206.317 50.8206H202.713V50.8188ZM206.247 49.6853C207.174 49.6853 207.638 49.3661 207.638 48.7259V47.1408H202.805C201.902 47.1408 201.45 47.4364 201.45 48.0276V48.7839C201.45 49.386 201.902 49.6853 202.805 49.6853H206.247Z" fill="#323232"/>
<path d="M215.773 48.1001L211.948 50.6881C211.847 50.757 211.757 50.8078 211.675 50.8404C211.594 50.8749 211.491 50.8912 211.368 50.8912C211.191 50.8912 211.05 50.8404 210.945 50.7389C210.841 50.6373 210.788 50.4886 210.788 50.2945C210.788 50.1785 210.814 50.0715 210.864 49.9754C210.915 49.8792 211.001 49.7922 211.124 49.7142L215.088 47.1987L211.137 44.8718C211.005 44.7938 210.911 44.7104 210.853 44.6179C210.796 44.5254 210.767 44.4112 210.767 44.277C210.767 44.0938 210.817 43.9469 210.917 43.8399C211.018 43.7329 211.157 43.6803 211.334 43.6803C211.435 43.6803 211.531 43.6948 211.623 43.7238C211.715 43.7528 211.8 43.7927 211.878 43.8399L215.771 46.2973V44.2751C215.771 43.878 215.968 43.6785 216.362 43.6785C216.756 43.6785 216.953 43.878 216.953 44.2751V46.3118L220.846 43.8544C220.924 43.8054 221.009 43.7655 221.101 43.7311C221.193 43.6966 221.294 43.6803 221.403 43.6803C221.573 43.6803 221.708 43.7329 221.809 43.8399C221.909 43.9469 221.959 44.092 221.959 44.277C221.959 44.413 221.93 44.5272 221.872 44.6179C221.815 44.7086 221.721 44.7957 221.589 44.8718L217.638 47.1987L221.612 49.7142C221.829 49.8502 221.938 50.0443 221.938 50.2964C221.938 50.4904 221.885 50.6373 221.78 50.7407C221.676 50.8423 221.535 50.893 221.358 50.893C221.242 50.893 221.139 50.8767 221.05 50.8423C220.962 50.8078 220.872 50.757 220.778 50.6899L216.953 48.1019V50.2837C216.953 50.6917 216.756 50.8949 216.362 50.8949C215.968 50.8949 215.771 50.6917 215.771 50.2837V48.1019L215.773 48.1001Z" fill="#323232"/>
<path d="M236.682 50.8188C235.029 50.8188 234.201 50.175 234.201 48.8855V48.0566C234.201 46.7762 235.027 46.1378 236.682 46.1378H241.607V45.9202C241.607 45.2419 241.132 44.9028 240.181 44.9028H238.548C238.161 44.9028 237.968 44.7142 237.968 44.3351C237.968 43.9561 238.161 43.7529 238.548 43.7529H240.181C241.936 43.7529 242.812 44.4748 242.812 45.9202V48.7694C242.812 50.1369 241.97 50.8206 240.286 50.8206H236.682V50.8188ZM240.218 49.6853C241.144 49.6853 241.609 49.3661 241.609 48.7259V47.1408H236.776C235.872 47.1408 235.419 47.4364 235.419 48.0276V48.7839C235.419 49.386 235.871 49.6853 236.776 49.6853H240.218Z" fill="#323232"/>
<path d="M253.127 49.1753C253.127 50.2707 252.184 50.8184 250.299 50.8184H245.537C245.174 50.8184 244.991 50.6534 244.991 50.3233V44.2458C244.991 43.9158 245.172 43.7507 245.537 43.7507H250.068C252.037 43.7507 253.024 44.3329 253.024 45.4954V46.0196C253.024 46.5328 252.738 46.93 252.166 47.2111C252.807 47.5013 253.127 47.9184 253.127 48.4625V49.1753ZM251.806 45.5698C251.806 45.0565 251.233 44.799 250.092 44.799H246.314C246.252 44.799 246.222 44.828 246.222 44.8861V46.7178H250.139C251.251 46.7178 251.808 46.4857 251.808 46.0196V45.568L251.806 45.5698ZM251.922 48.4335C251.922 47.9583 251.373 47.7207 250.276 47.7207H246.22V49.6831C246.22 49.7411 246.251 49.7701 246.312 49.7701H250.276C251.373 49.7701 251.922 49.5271 251.922 49.0429V48.4317V48.4335Z" fill="#323232"/>
<path d="M257.298 44.9441H255.119C254.725 44.9441 254.528 44.7464 254.528 44.3474C254.528 43.9484 254.725 43.7507 255.119 43.7507H260.716C261.11 43.7507 261.307 43.9502 261.307 44.3474C261.307 44.7446 261.11 44.9441 260.716 44.9441H258.537V50.2816C258.537 50.6896 258.333 50.8928 257.923 50.8928C257.513 50.8928 257.298 50.6896 257.298 50.2816V44.9441Z" fill="#323232"/>
<path d="M265.922 50.8186C263.92 50.8186 262.921 50.0533 262.921 48.5208V46.0633C262.921 44.5218 263.922 43.751 265.922 43.751H268.159C270.159 43.751 271.16 44.5218 271.16 46.0633V48.5208C271.16 50.0533 270.159 50.8186 268.159 50.8186H265.922ZM269.92 46.0488C269.92 45.3125 269.344 44.9443 268.193 44.9443H265.875C264.731 44.9443 264.16 45.3125 264.16 46.0488V48.5353C264.16 49.2716 264.731 49.6398 265.875 49.6398H268.193C269.344 49.6398 269.92 49.2716 269.92 48.5353V46.0488Z" fill="#323232"/>
<path d="M281.717 46.1059L278.716 50.5856C278.654 50.6835 278.578 50.7579 278.49 50.8104C278.401 50.863 278.278 50.8902 278.125 50.8902C277.971 50.8902 277.85 50.863 277.765 50.8104C277.68 50.7579 277.606 50.6781 277.545 50.5711L274.555 46.1204V50.3226C274.555 50.6998 274.351 50.8902 273.94 50.8902C273.53 50.8902 273.326 50.7016 273.326 50.3226V44.2887C273.326 43.8806 273.543 43.6775 273.975 43.6775C274.145 43.6775 274.276 43.7156 274.369 43.7936C274.461 43.8715 274.546 43.964 274.623 44.0692L278.123 49.2743L281.635 44.0692C281.704 43.9532 281.787 43.8588 281.885 43.7863C281.982 43.7138 282.114 43.6775 282.284 43.6775C282.508 43.6775 282.674 43.7301 282.783 43.8371C282.891 43.9441 282.945 44.0946 282.945 44.2887V50.3226C282.945 50.6998 282.737 50.8902 282.32 50.8902C281.903 50.8902 281.717 50.7016 281.717 50.3226V46.1059Z" fill="#323232"/>
<path d="M288.091 50.8184C286.089 50.8184 285.09 50.0531 285.09 48.5205V46.0631C285.09 44.5215 286.091 43.7507 288.091 43.7507H290.328C292.329 43.7507 293.328 44.5215 293.328 46.0631V48.5205C293.328 50.0531 292.328 50.8184 290.328 50.8184H288.091ZM292.089 46.0486C292.089 45.3123 291.513 44.9441 290.362 44.9441H288.044C286.9 44.9441 286.329 45.3123 286.329 46.0486V48.5351C286.329 49.2714 286.9 49.6396 288.044 49.6396H290.362C291.513 49.6396 292.089 49.2714 292.089 48.5351V46.0486Z" fill="#323232"/>
<path d="M302.484 45.4541L296.701 50.6012C296.593 50.6991 296.497 50.7717 296.412 50.8188C296.327 50.8678 296.203 50.8914 296.042 50.8914C295.679 50.8914 295.496 50.6882 295.496 50.2802V44.2753C295.496 43.8781 295.697 43.6786 296.1 43.6786C296.502 43.6786 296.725 43.8781 296.725 44.2753V49.1031L302.519 43.9561C302.618 43.869 302.714 43.8019 302.802 43.753C302.891 43.704 302.994 43.6804 303.11 43.6804C303.511 43.6804 303.713 43.8835 303.713 44.2916V50.282C303.713 50.6901 303.509 50.8932 303.099 50.8932C302.689 50.8932 302.484 50.6901 302.484 50.282V45.4541ZM302.322 40.5973C302.322 40.9455 302.264 41.2792 302.148 41.593C302.033 41.9085 301.859 42.186 301.626 42.429C301.395 42.6721 301.108 42.8625 300.768 43.0039C300.428 43.1454 300.038 43.2143 299.597 43.2143C299.156 43.2143 298.768 43.1436 298.432 43.0039C298.096 42.8643 297.812 42.6721 297.581 42.429C297.35 42.186 297.175 41.9085 297.059 41.593C296.943 41.2774 296.885 40.9455 296.885 40.5973C296.885 40.3742 296.92 40.2164 296.99 40.1239C297.059 40.0314 297.194 39.9861 297.395 39.9861C297.581 39.9861 297.709 40.0242 297.783 40.1022C297.857 40.1801 297.913 40.2871 297.951 40.4214C297.982 40.6245 298.024 40.8312 298.072 41.0398C298.123 41.2484 298.206 41.4406 298.322 41.6147C298.437 41.7888 298.596 41.9321 298.797 42.0445C298.998 42.157 299.265 42.2114 299.597 42.2114C299.93 42.2114 300.195 42.1552 300.398 42.0445C300.598 41.9339 300.757 41.7906 300.873 41.6147C300.989 41.4406 301.072 41.2484 301.122 41.0398C301.173 40.8312 301.213 40.6245 301.243 40.4214C301.281 40.2853 301.339 40.1783 301.417 40.1022C301.494 40.0242 301.624 39.9861 301.811 39.9861C301.997 39.9861 302.136 40.0314 302.21 40.1239C302.284 40.2164 302.32 40.3742 302.32 40.5973H302.322Z" fill="#323232"/>
<path d="M307.165 48.0265V50.2808C307.165 50.6889 306.961 50.892 306.551 50.892C306.141 50.892 305.937 50.6889 305.937 50.2808V44.2759C305.937 43.8788 306.141 43.6793 306.551 43.6793C306.961 43.6793 307.165 43.8788 307.165 44.2759V46.3707L312.103 43.8697C312.218 43.8117 312.316 43.7627 312.392 43.7246C312.47 43.6865 312.555 43.672 312.647 43.6811C312.84 43.6811 312.99 43.7319 313.098 43.8334C313.207 43.935 313.261 44.0837 313.261 44.2778C313.261 44.4138 313.232 44.5244 313.174 44.6115C313.116 44.6985 313.013 44.7819 312.867 44.8581L308.047 47.1995L312.891 49.7295C313.046 49.8166 313.145 49.909 313.192 50.0052C313.239 50.1031 313.261 50.1992 313.261 50.2953C313.261 50.6925 313.044 50.892 312.612 50.892C312.511 50.892 312.426 50.8757 312.358 50.8413C312.289 50.8068 312.184 50.7524 312.045 50.6744L307.165 48.0283V48.0265Z" fill="#323232"/>
<path d="M317.398 50.8185C315.744 50.8185 314.917 50.1747 314.917 48.8852V48.0564C314.917 46.776 315.743 46.1376 317.398 46.1376H322.323V45.92C322.323 45.2417 321.848 44.9025 320.897 44.9025H319.264C318.877 44.9025 318.684 44.7139 318.684 44.3349C318.684 43.9558 318.877 43.7527 319.264 43.7527H320.897C322.652 43.7527 323.528 44.4745 323.528 45.92V48.7692C323.528 50.1366 322.686 50.8204 321.002 50.8204H317.398V50.8185ZM320.932 49.685C321.858 49.685 322.323 49.3658 322.323 48.7256V47.1405H317.49C316.586 47.1405 316.133 47.4361 316.133 48.0274V48.7837C316.133 49.3858 316.585 49.685 317.49 49.685H320.932Z" fill="#323232"/>
</svg>
