<svg xmlns="http://www.w3.org/2000/svg">
	<symbol id="yandex-plate">
		<g clip-path="url(#clip0_5072_3240)">
			<path d="M0 35.6666C0 15.9684 16.1177 0 36 0C55.8823 0 72 15.9684 72 35.6666V85.1779C72 90.0769 66.9394 93.3749 62.3996 91.4352L37.0183 80.5958C36.6966 80.4584 36.3501 80.3875 36 80.3875C35.6499 80.3875 35.3034 80.4584 34.9817 80.5958L9.60171 91.4352C5.05929 93.3749 0 90.0769 0 85.1779V35.6666Z" fill="#F6F6F6"/>
			<path d="M19.8887 29.9783C19.8887 21.4145 26.8946 14.4727 35.5408 14.4727C44.184 14.4727 51.193 21.4145 51.193 29.9783C51.193 38.542 44.184 45.4839 35.5408 45.4839C26.8946 45.4839 19.8887 38.542 19.8887 29.9783Z" fill="#FC3F1D"/>
			<path d="M37.5447 23.2568H36.0984C33.4469 23.2568 32.0523 24.5872 32.0523 26.5486C32.0523 28.766 33.0165 29.8048 34.9965 31.1368L36.6321 32.2284L31.9318 39.1857H28.4194L32.6377 32.9618C30.2116 31.2391 28.8499 29.566 28.8499 26.7363C28.8499 23.1886 31.3464 20.7666 36.0812 20.7666H40.7815V39.1687H37.5447V23.2568Z" fill="white"/>
			<path d="M25.6529 66.6855H18.7299V65.6811L21.5555 62.8121C22.0806 62.2822 22.5214 61.81 22.8779 61.3957C23.2393 60.9814 23.5139 60.5743 23.7018 60.1744C23.8896 59.7697 23.9836 59.3265 23.9836 58.8447C23.9836 58.2473 23.8053 57.7921 23.4488 57.4789C23.0971 57.1609 22.6322 57.002 22.0541 57.002C21.5482 57.002 21.1002 57.0887 20.71 57.2621C20.3197 57.4355 19.9199 57.6812 19.5104 57.9992L18.8672 57.1898C19.1466 56.9538 19.4501 56.7442 19.7777 56.5611C20.1102 56.3781 20.4643 56.2335 20.84 56.1275C21.2206 56.0215 21.6253 55.9686 22.0541 55.9686C22.7045 55.9686 23.2658 56.0818 23.7379 56.3082C24.21 56.5346 24.5738 56.8574 24.8291 57.2766C25.0893 57.6957 25.2193 58.1943 25.2193 58.7725C25.2193 59.3313 25.1085 59.8516 24.8869 60.3334C24.6653 60.8104 24.3546 61.2849 23.9547 61.757C23.5548 62.2243 23.0875 62.7206 22.5527 63.2457L20.2547 65.5365V65.5871H25.6529V66.6855ZM34.1803 61.3885C34.1803 62.246 34.1152 63.012 33.9852 63.6865C33.8551 64.361 33.6503 64.9319 33.3709 65.3992C33.0915 65.8665 32.7301 66.223 32.2869 66.4687C31.8437 66.7096 31.3113 66.8301 30.6898 66.8301C29.9046 66.8301 29.2542 66.6157 28.7387 66.1869C28.228 65.7581 27.845 65.1391 27.5896 64.3297C27.3391 63.5155 27.2139 62.5351 27.2139 61.3885C27.2139 60.2611 27.3271 59.2928 27.5535 58.4834C27.7848 57.6692 28.1557 57.0453 28.6664 56.6117C29.1771 56.1733 29.8516 55.9541 30.6898 55.9541C31.4848 55.9541 32.14 56.1709 32.6555 56.6045C33.171 57.0333 33.554 57.6548 33.8045 58.4689C34.055 59.2783 34.1803 60.2515 34.1803 61.3885ZM28.4207 61.3885C28.4207 62.3713 28.4954 63.1903 28.6447 63.8455C28.7941 64.5007 29.035 64.9921 29.3674 65.3197C29.7046 65.6425 30.1454 65.8039 30.6898 65.8039C31.2342 65.8039 31.6727 65.6425 32.0051 65.3197C32.3423 64.9969 32.5856 64.5079 32.735 63.8527C32.8891 63.1975 32.9662 62.3761 32.9662 61.3885C32.9662 60.4201 32.8915 59.6107 32.7422 58.9604C32.5928 58.3051 32.352 57.8137 32.0195 57.4861C31.6871 57.1537 31.2439 56.9875 30.6898 56.9875C30.1358 56.9875 29.6926 57.1537 29.3602 57.4861C29.0277 57.8137 28.7868 58.3051 28.6375 58.9604C28.493 59.6107 28.4207 60.4201 28.4207 61.3885ZM42.592 66.6855H35.6689V65.6811L38.4945 62.8121C39.0197 62.2822 39.4605 61.81 39.817 61.3957C40.1783 60.9814 40.4529 60.5743 40.6408 60.1744C40.8287 59.7697 40.9227 59.3265 40.9227 58.8447C40.9227 58.2473 40.7444 57.7921 40.3879 57.4789C40.0362 57.1609 39.5713 57.002 38.9932 57.002C38.4873 57.002 38.0393 57.0887 37.649 57.2621C37.2588 57.4355 36.8589 57.6812 36.4494 57.9992L35.8062 57.1898C36.0857 56.9538 36.3892 56.7442 36.7168 56.5611C37.0492 56.3781 37.4033 56.2335 37.7791 56.1275C38.1597 56.0215 38.5644 55.9686 38.9932 55.9686C39.6436 55.9686 40.2048 56.0818 40.677 56.3082C41.1491 56.5346 41.5128 56.8574 41.7682 57.2766C42.0283 57.6957 42.1584 58.1943 42.1584 58.7725C42.1584 59.3313 42.0476 59.8516 41.826 60.3334C41.6044 60.8104 41.2936 61.2849 40.8937 61.757C40.4939 62.2243 40.0266 62.7206 39.4918 63.2457L37.1937 65.5365V65.5871H42.592V66.6855ZM47.4771 60.225C48.195 60.225 48.8189 60.3479 49.3488 60.5936C49.8788 60.8344 50.2883 61.1861 50.5773 61.6486C50.8712 62.1111 51.0182 62.6724 51.0182 63.3324C51.0182 64.0551 50.8616 64.679 50.5484 65.2041C50.2353 65.7244 49.7848 66.1267 49.1971 66.4109C48.6093 66.6904 47.9059 66.8301 47.0869 66.8301C46.5377 66.8301 46.027 66.7819 45.5549 66.6855C45.0827 66.5892 44.6853 66.4447 44.3625 66.252V65.1102C44.7142 65.3221 45.1406 65.4908 45.6416 65.616C46.1426 65.7413 46.6292 65.8039 47.1014 65.8039C47.6361 65.8039 48.1034 65.7196 48.5033 65.551C48.908 65.3775 49.2212 65.1174 49.4428 64.7705C49.6692 64.4188 49.7824 63.978 49.7824 63.448C49.7824 62.7447 49.5656 62.2027 49.132 61.8221C48.7033 61.4367 48.024 61.2439 47.0941 61.2439C46.7954 61.2439 46.4678 61.268 46.1113 61.3162C45.7548 61.3644 45.4609 61.4174 45.2297 61.4752L44.6227 61.0777L45.0273 56.1203H50.2811V57.2187H46.0535L45.7861 60.4057C45.9692 60.3671 46.2053 60.3286 46.4943 60.29C46.7834 60.2467 47.111 60.225 47.4771 60.225Z" fill="#878787"/>
		</g>
		<defs>
			<clipPath id="clip0_5072_3240">
				<rect width="72" height="92" fill="white"/>
			</clipPath>
		</defs>
	</symbol>

	<symbol id="call-up">
		<g clip-path="url(#clip0_2166_9478)">
			<path d="M23.6 24.153C21.7 23.533 19.9 22.693 18.2333 21.6597C17.6733 21.313 16.9 21.4797 16.4867 22.0663C16.0333 22.7197 15.58 23.3797 15.1267 24.033C12.3267 22.0997 9.90666 19.673 7.96666 16.873C8.62 16.4197 9.28 15.9664 9.93333 15.513C10.52 15.0997 10.6867 14.3264 10.34 13.7664C9.30666 12.0997 8.46 10.2997 7.84666 8.39968C7.64 7.75968 6.93333 7.37302 6.24 7.55302C5.46666 7.75968 4.69333 7.97302 3.92666 8.17968C1.52666 8.73968 0.199997 11.7597 1.54 14.633C4.78666 21.5997 10.4 27.213 17.3667 30.4664C20.2333 31.8064 23.26 30.4797 23.82 28.0797C24.0267 27.3064 24.24 26.533 24.4467 25.7664C24.6267 25.0664 24.24 24.3664 23.6 24.153Z" fill="#FE4F02"/>
			<path d="M22.0401 1C17.0867 1 13.0801 4.33333 13.0801 8.44C13.0801 10.6733 14.2667 12.6667 16.1401 14.0333L15.4334 18.9667L19.8534 15.6467C20.5534 15.7933 21.2801 15.88 22.0334 15.88C26.9867 15.88 31.0001 12.5467 31.0001 8.44C31.0001 4.33333 26.9867 1 22.0401 1Z" fill="#F2EDE1"/>
			<path d="M23.8197 26.08C23.2597 28.48 20.2397 29.8066 17.3664 28.4666C10.3997 25.2133 4.7864 19.6 1.53307 12.6333C1.3264 12.1933 1.19307 11.7466 1.1064 11.3066C0.899737 12.3333 0.999737 13.4933 1.53307 14.6333C4.7864 21.6 10.3997 27.2133 17.3664 30.4666C20.2331 31.8066 23.2597 30.48 23.8197 28.08C24.0264 27.3066 24.2397 26.5333 24.4464 25.7666C24.5531 25.3466 24.4531 24.9266 24.2197 24.6066C24.0864 25.0933 23.9531 25.5866 23.8197 26.08Z" fill="#746E6D"/>
			<path d="M7.9668 14.8739C8.28013 15.3272 8.6068 15.7605 8.9468 16.1939C9.27346 15.9672 9.6068 15.7405 9.93346 15.5139C10.5201 15.1005 10.6868 14.3272 10.3401 13.7672C10.2601 13.6339 10.1868 13.5005 10.1068 13.3672C10.0535 13.4205 9.99346 13.4672 9.93346 13.5139C9.28013 13.9672 8.62013 14.4205 7.9668 14.8739Z" fill="#746E6D"/>
			<path d="M16.1404 12.0338C14.5537 10.8804 13.4671 9.2671 13.1671 7.44043C13.1137 7.7671 13.0737 8.10043 13.0737 8.44043C13.0737 10.5671 14.1604 12.4738 15.8804 13.8271L16.1404 12.0338ZM22.0404 13.8871C21.2871 13.8871 20.5604 13.8004 19.8604 13.6538L15.7604 16.7338L15.4404 18.9738L19.8604 15.6538C20.5604 15.8004 21.2871 15.8871 22.0404 15.8871C26.9937 15.8871 31.0071 12.5538 31.0071 8.4471C31.0071 8.1071 30.9671 7.77376 30.9137 7.4471C30.3204 11.0804 26.5804 13.8871 22.0404 13.8871Z" fill="#8F8273"/>
			<path d="M19.7067 31.6667C18.8333 31.6667 17.94 31.4667 17.0867 31.0667C9.98001 27.76 4.24668 22.02 0.933348 14.9134C0.160015 13.2534 0.133348 11.44 0.866681 9.93336C1.46668 8.70003 2.52668 7.8267 3.76668 7.53336L6.06001 6.91336C7.09335 6.64003 8.15335 7.2067 8.47335 8.19336C9.06668 10.0267 9.88668 11.78 10.9 13.4134C11.44 14.28 11.18 15.4467 10.3133 16.06L8.90001 17.04C10.6 19.3734 12.6333 21.4067 14.96 23.1L15.9333 21.6867C16.5533 20.8134 17.7133 20.5534 18.58 21.0934C20.2133 22.1134 21.9733 22.9267 23.8 23.52C24.7867 23.84 25.3533 24.9 25.0867 25.9267L24.46 28.2467C24.1733 29.4667 23.3 30.5267 22.0667 31.1267C21.34 31.4934 20.5333 31.6667 19.7067 31.6667ZM6.58001 8.17336C6.52001 8.17336 6.46001 8.18003 6.40668 8.19336L4.09335 8.82003C3.20668 9.0267 2.49335 9.6267 2.06668 10.5134C1.51335 11.66 1.54001 13.06 2.14001 14.3534C5.32001 21.1734 10.8267 26.6867 17.6533 29.8667C18.9467 30.4667 20.3467 30.5 21.4933 29.94C22.38 29.5134 22.9733 28.8 23.18 27.9334L23.8133 25.5934C23.9 25.26 23.72 24.8934 23.4067 24.7934C21.4733 24.1667 19.62 23.3 17.8933 22.2334C17.6267 22.0667 17.2467 22.1667 17.0467 22.46L15.3133 24.9667L14.7667 24.5867C11.8933 22.6 9.42668 20.1334 7.44001 17.26L7.06001 16.7134L9.57335 14.9734C9.86001 14.7734 9.96001 14.3934 9.79335 14.1267C8.72001 12.4 7.86001 10.5467 7.22668 8.61336C7.12668 8.3467 6.86001 8.17336 6.58001 8.17336Z" fill="#352F2E"/>
			<path d="M14.5467 20.4663L15.4201 14.3263C13.5001 12.793 12.4067 10.673 12.4067 8.43967C12.4067 3.96634 16.7267 0.333008 22.0334 0.333008C27.3467 0.333008 31.6667 3.97301 31.6667 8.43967C31.6667 12.9063 27.3467 16.5463 22.0334 16.5463C21.3734 16.5463 20.6934 16.4863 20.0134 16.3597L14.5467 20.4663ZM22.0401 1.66634C17.4667 1.66634 13.7467 4.70634 13.7467 8.43967C13.7467 10.3597 14.7601 12.2063 16.5334 13.493L16.8601 13.7263L16.3267 17.4663L19.7001 14.933L19.9934 14.993C20.6867 15.1397 21.3734 15.213 22.0401 15.213C26.6134 15.213 30.3401 12.173 30.3401 8.43967C30.3334 4.70634 26.6134 1.66634 22.0401 1.66634Z" fill="#352F2E"/>
			<path d="M18.727 8.4399C18.727 9.10656 18.187 9.65323 17.5136 9.65323C16.847 9.65323 16.3003 9.11323 16.3003 8.4399C16.3003 7.76656 16.8403 7.22656 17.5136 7.22656C18.1803 7.23323 18.727 7.77323 18.727 8.4399Z" fill="#352F2E"/>
			<path d="M23.247 8.4399C23.247 9.10656 22.707 9.65323 22.0336 9.65323C21.367 9.65323 20.8203 9.11323 20.8203 8.4399C20.8203 7.76656 21.3603 7.22656 22.0336 7.22656C22.707 7.23323 23.247 7.77323 23.247 8.4399Z" fill="#352F2E"/>
			<path d="M27.7729 8.4399C27.7729 9.10656 27.2329 9.65323 26.5595 9.65323C25.8862 9.65323 25.3462 9.11323 25.3462 8.4399C25.3462 7.76656 25.8862 7.22656 26.5595 7.22656C27.2329 7.22656 27.7729 7.77323 27.7729 8.4399Z" fill="#352F2E"/>
		</g>
		<defs>
			<clipPath id="clip0_2166_9478">	
				<rect width="32" height="32" fill="white"/>
			</clipPath>
		</defs>
	</symbol>
</svg> 


