<svg xmlns="http://www.w3.org/2000/svg">
	<symbol id="yandex-plate">
		<g clip-path="url(#clip0_5072_3240)">
			<path d="M0 35.6666C0 15.9684 16.1177 0 36 0C55.8823 0 72 15.9684 72 35.6666V85.1779C72 90.0769 66.9394 93.3749 62.3996 91.4352L37.0183 80.5958C36.6966 80.4584 36.3501 80.3875 36 80.3875C35.6499 80.3875 35.3034 80.4584 34.9817 80.5958L9.60171 91.4352C5.05929 93.3749 0 90.0769 0 85.1779V35.6666Z" fill="#F6F6F6"/>
			<path d="M19.8887 29.9783C19.8887 21.4145 26.8946 14.4727 35.5408 14.4727C44.184 14.4727 51.193 21.4145 51.193 29.9783C51.193 38.542 44.184 45.4839 35.5408 45.4839C26.8946 45.4839 19.8887 38.542 19.8887 29.9783Z" fill="#FC3F1D"/>
			<path d="M37.5447 23.2568H36.0984C33.4469 23.2568 32.0523 24.5872 32.0523 26.5486C32.0523 28.766 33.0165 29.8048 34.9965 31.1368L36.6321 32.2284L31.9318 39.1857H28.4194L32.6377 32.9618C30.2116 31.2391 28.8499 29.566 28.8499 26.7363C28.8499 23.1886 31.3464 20.7666 36.0812 20.7666H40.7815V39.1687H37.5447V23.2568Z" fill="white"/>
			<path d="M25.6529 66.6855H18.7299V65.6811L21.5555 62.8121C22.0806 62.2822 22.5214 61.81 22.8779 61.3957C23.2393 60.9814 23.5139 60.5743 23.7018 60.1744C23.8896 59.7697 23.9836 59.3265 23.9836 58.8447C23.9836 58.2473 23.8053 57.7921 23.4488 57.4789C23.0971 57.1609 22.6322 57.002 22.0541 57.002C21.5482 57.002 21.1002 57.0887 20.71 57.2621C20.3197 57.4355 19.9199 57.6812 19.5104 57.9992L18.8672 57.1898C19.1466 56.9538 19.4501 56.7442 19.7777 56.5611C20.1102 56.3781 20.4643 56.2335 20.84 56.1275C21.2206 56.0215 21.6253 55.9686 22.0541 55.9686C22.7045 55.9686 23.2658 56.0818 23.7379 56.3082C24.21 56.5346 24.5738 56.8574 24.8291 57.2766C25.0893 57.6957 25.2193 58.1943 25.2193 58.7725C25.2193 59.3313 25.1085 59.8516 24.8869 60.3334C24.6653 60.8104 24.3546 61.2849 23.9547 61.757C23.5548 62.2243 23.0875 62.7206 22.5527 63.2457L20.2547 65.5365V65.5871H25.6529V66.6855ZM34.1803 61.3885C34.1803 62.246 34.1152 63.012 33.9852 63.6865C33.8551 64.361 33.6503 64.9319 33.3709 65.3992C33.0915 65.8665 32.7301 66.223 32.2869 66.4687C31.8437 66.7096 31.3113 66.8301 30.6898 66.8301C29.9046 66.8301 29.2542 66.6157 28.7387 66.1869C28.228 65.7581 27.845 65.1391 27.5896 64.3297C27.3391 63.5155 27.2139 62.5351 27.2139 61.3885C27.2139 60.2611 27.3271 59.2928 27.5535 58.4834C27.7848 57.6692 28.1557 57.0453 28.6664 56.6117C29.1771 56.1733 29.8516 55.9541 30.6898 55.9541C31.4848 55.9541 32.14 56.1709 32.6555 56.6045C33.171 57.0333 33.554 57.6548 33.8045 58.4689C34.055 59.2783 34.1803 60.2515 34.1803 61.3885ZM28.4207 61.3885C28.4207 62.3713 28.4954 63.1903 28.6447 63.8455C28.7941 64.5007 29.035 64.9921 29.3674 65.3197C29.7046 65.6425 30.1454 65.8039 30.6898 65.8039C31.2342 65.8039 31.6727 65.6425 32.0051 65.3197C32.3423 64.9969 32.5856 64.5079 32.735 63.8527C32.8891 63.1975 32.9662 62.3761 32.9662 61.3885C32.9662 60.4201 32.8915 59.6107 32.7422 58.9604C32.5928 58.3051 32.352 57.8137 32.0195 57.4861C31.6871 57.1537 31.2439 56.9875 30.6898 56.9875C30.1358 56.9875 29.6926 57.1537 29.3602 57.4861C29.0277 57.8137 28.7868 58.3051 28.6375 58.9604C28.493 59.6107 28.4207 60.4201 28.4207 61.3885ZM42.592 66.6855H35.6689V65.6811L38.4945 62.8121C39.0197 62.2822 39.4605 61.81 39.817 61.3957C40.1783 60.9814 40.4529 60.5743 40.6408 60.1744C40.8287 59.7697 40.9227 59.3265 40.9227 58.8447C40.9227 58.2473 40.7444 57.7921 40.3879 57.4789C40.0362 57.1609 39.5713 57.002 38.9932 57.002C38.4873 57.002 38.0393 57.0887 37.649 57.2621C37.2588 57.4355 36.8589 57.6812 36.4494 57.9992L35.8062 57.1898C36.0857 56.9538 36.3892 56.7442 36.7168 56.5611C37.0492 56.3781 37.4033 56.2335 37.7791 56.1275C38.1597 56.0215 38.5644 55.9686 38.9932 55.9686C39.6436 55.9686 40.2048 56.0818 40.677 56.3082C41.1491 56.5346 41.5128 56.8574 41.7682 57.2766C42.0283 57.6957 42.1584 58.1943 42.1584 58.7725C42.1584 59.3313 42.0476 59.8516 41.826 60.3334C41.6044 60.8104 41.2936 61.2849 40.8937 61.757C40.4939 62.2243 40.0266 62.7206 39.4918 63.2457L37.1937 65.5365V65.5871H42.592V66.6855ZM47.4771 60.225C48.195 60.225 48.8189 60.3479 49.3488 60.5936C49.8788 60.8344 50.2883 61.1861 50.5773 61.6486C50.8712 62.1111 51.0182 62.6724 51.0182 63.3324C51.0182 64.0551 50.8616 64.679 50.5484 65.2041C50.2353 65.7244 49.7848 66.1267 49.1971 66.4109C48.6093 66.6904 47.9059 66.8301 47.0869 66.8301C46.5377 66.8301 46.027 66.7819 45.5549 66.6855C45.0827 66.5892 44.6853 66.4447 44.3625 66.252V65.1102C44.7142 65.3221 45.1406 65.4908 45.6416 65.616C46.1426 65.7413 46.6292 65.8039 47.1014 65.8039C47.6361 65.8039 48.1034 65.7196 48.5033 65.551C48.908 65.3775 49.2212 65.1174 49.4428 64.7705C49.6692 64.4188 49.7824 63.978 49.7824 63.448C49.7824 62.7447 49.5656 62.2027 49.132 61.8221C48.7033 61.4367 48.024 61.2439 47.0941 61.2439C46.7954 61.2439 46.4678 61.268 46.1113 61.3162C45.7548 61.3644 45.4609 61.4174 45.2297 61.4752L44.6227 61.0777L45.0273 56.1203H50.2811V57.2187H46.0535L45.7861 60.4057C45.9692 60.3671 46.2053 60.3286 46.4943 60.29C46.7834 60.2467 47.111 60.225 47.4771 60.225Z" fill="#878787"/>
		</g>
		<defs>
			<clipPath id="clip0_5072_3240">
				<rect width="72" height="92" fill="white"/>
			</clipPath>
		</defs>
	</symbol>

	<symbol id="call-up">
		<g clip-path="url(#clip0_2166_9478)">
			<path d="M23.6 24.153C21.7 23.533 19.9 22.693 18.2333 21.6597C17.6733 21.313 16.9 21.4797 16.4867 22.0663C16.0333 22.7197 15.58 23.3797 15.1267 24.033C12.3267 22.0997 9.90666 19.673 7.96666 16.873C8.62 16.4197 9.28 15.9664 9.93333 15.513C10.52 15.0997 10.6867 14.3264 10.34 13.7664C9.30666 12.0997 8.46 10.2997 7.84666 8.39968C7.64 7.75968 6.93333 7.37302 6.24 7.55302C5.46666 7.75968 4.69333 7.97302 3.92666 8.17968C1.52666 8.73968 0.199997 11.7597 1.54 14.633C4.78666 21.5997 10.4 27.213 17.3667 30.4664C20.2333 31.8064 23.26 30.4797 23.82 28.0797C24.0267 27.3064 24.24 26.533 24.4467 25.7664C24.6267 25.0664 24.24 24.3664 23.6 24.153Z" fill="#FE4F02"/>
			<path d="M22.0401 1C17.0867 1 13.0801 4.33333 13.0801 8.44C13.0801 10.6733 14.2667 12.6667 16.1401 14.0333L15.4334 18.9667L19.8534 15.6467C20.5534 15.7933 21.2801 15.88 22.0334 15.88C26.9867 15.88 31.0001 12.5467 31.0001 8.44C31.0001 4.33333 26.9867 1 22.0401 1Z" fill="#F2EDE1"/>
			<path d="M23.8197 26.08C23.2597 28.48 20.2397 29.8066 17.3664 28.4666C10.3997 25.2133 4.7864 19.6 1.53307 12.6333C1.3264 12.1933 1.19307 11.7466 1.1064 11.3066C0.899737 12.3333 0.999737 13.4933 1.53307 14.6333C4.7864 21.6 10.3997 27.2133 17.3664 30.4666C20.2331 31.8066 23.2597 30.48 23.8197 28.08C24.0264 27.3066 24.2397 26.5333 24.4464 25.7666C24.5531 25.3466 24.4531 24.9266 24.2197 24.6066C24.0864 25.0933 23.9531 25.5866 23.8197 26.08Z" fill="#746E6D"/>
			<path d="M7.9668 14.8739C8.28013 15.3272 8.6068 15.7605 8.9468 16.1939C9.27346 15.9672 9.6068 15.7405 9.93346 15.5139C10.5201 15.1005 10.6868 14.3272 10.3401 13.7672C10.2601 13.6339 10.1868 13.5005 10.1068 13.3672C10.0535 13.4205 9.99346 13.4672 9.93346 13.5139C9.28013 13.9672 8.62013 14.4205 7.9668 14.8739Z" fill="#746E6D"/>
			<path d="M16.1404 12.0338C14.5537 10.8804 13.4671 9.2671 13.1671 7.44043C13.1137 7.7671 13.0737 8.10043 13.0737 8.44043C13.0737 10.5671 14.1604 12.4738 15.8804 13.8271L16.1404 12.0338ZM22.0404 13.8871C21.2871 13.8871 20.5604 13.8004 19.8604 13.6538L15.7604 16.7338L15.4404 18.9738L19.8604 15.6538C20.5604 15.8004 21.2871 15.8871 22.0404 15.8871C26.9937 15.8871 31.0071 12.5538 31.0071 8.4471C31.0071 8.1071 30.9671 7.77376 30.9137 7.4471C30.3204 11.0804 26.5804 13.8871 22.0404 13.8871Z" fill="#8F8273"/>
			<path d="M19.7067 31.6667C18.8333 31.6667 17.94 31.4667 17.0867 31.0667C9.98001 27.76 4.24668 22.02 0.933348 14.9134C0.160015 13.2534 0.133348 11.44 0.866681 9.93336C1.46668 8.70003 2.52668 7.8267 3.76668 7.53336L6.06001 6.91336C7.09335 6.64003 8.15335 7.2067 8.47335 8.19336C9.06668 10.0267 9.88668 11.78 10.9 13.4134C11.44 14.28 11.18 15.4467 10.3133 16.06L8.90001 17.04C10.6 19.3734 12.6333 21.4067 14.96 23.1L15.9333 21.6867C16.5533 20.8134 17.7133 20.5534 18.58 21.0934C20.2133 22.1134 21.9733 22.9267 23.8 23.52C24.7867 23.84 25.3533 24.9 25.0867 25.9267L24.46 28.2467C24.1733 29.4667 23.3 30.5267 22.0667 31.1267C21.34 31.4934 20.5333 31.6667 19.7067 31.6667ZM6.58001 8.17336C6.52001 8.17336 6.46001 8.18003 6.40668 8.19336L4.09335 8.82003C3.20668 9.0267 2.49335 9.6267 2.06668 10.5134C1.51335 11.66 1.54001 13.06 2.14001 14.3534C5.32001 21.1734 10.8267 26.6867 17.6533 29.8667C18.9467 30.4667 20.3467 30.5 21.4933 29.94C22.38 29.5134 22.9733 28.8 23.18 27.9334L23.8133 25.5934C23.9 25.26 23.72 24.8934 23.4067 24.7934C21.4733 24.1667 19.62 23.3 17.8933 22.2334C17.6267 22.0667 17.2467 22.1667 17.0467 22.46L15.3133 24.9667L14.7667 24.5867C11.8933 22.6 9.42668 20.1334 7.44001 17.26L7.06001 16.7134L9.57335 14.9734C9.86001 14.7734 9.96001 14.3934 9.79335 14.1267C8.72001 12.4 7.86001 10.5467 7.22668 8.61336C7.12668 8.3467 6.86001 8.17336 6.58001 8.17336Z" fill="#352F2E"/>
			<path d="M14.5467 20.4663L15.4201 14.3263C13.5001 12.793 12.4067 10.673 12.4067 8.43967C12.4067 3.96634 16.7267 0.333008 22.0334 0.333008C27.3467 0.333008 31.6667 3.97301 31.6667 8.43967C31.6667 12.9063 27.3467 16.5463 22.0334 16.5463C21.3734 16.5463 20.6934 16.4863 20.0134 16.3597L14.5467 20.4663ZM22.0401 1.66634C17.4667 1.66634 13.7467 4.70634 13.7467 8.43967C13.7467 10.3597 14.7601 12.2063 16.5334 13.493L16.8601 13.7263L16.3267 17.4663L19.7001 14.933L19.9934 14.993C20.6867 15.1397 21.3734 15.213 22.0401 15.213C26.6134 15.213 30.3401 12.173 30.3401 8.43967C30.3334 4.70634 26.6134 1.66634 22.0401 1.66634Z" fill="#352F2E"/>
			<path d="M18.727 8.4399C18.727 9.10656 18.187 9.65323 17.5136 9.65323C16.847 9.65323 16.3003 9.11323 16.3003 8.4399C16.3003 7.76656 16.8403 7.22656 17.5136 7.22656C18.1803 7.23323 18.727 7.77323 18.727 8.4399Z" fill="#352F2E"/>
			<path d="M23.247 8.4399C23.247 9.10656 22.707 9.65323 22.0336 9.65323C21.367 9.65323 20.8203 9.11323 20.8203 8.4399C20.8203 7.76656 21.3603 7.22656 22.0336 7.22656C22.707 7.23323 23.247 7.77323 23.247 8.4399Z" fill="#352F2E"/>
			<path d="M27.7729 8.4399C27.7729 9.10656 27.2329 9.65323 26.5595 9.65323C25.8862 9.65323 25.3462 9.11323 25.3462 8.4399C25.3462 7.76656 25.8862 7.22656 26.5595 7.22656C27.2329 7.22656 27.7729 7.77323 27.7729 8.4399Z" fill="#352F2E"/>
		</g>
		<defs>
			<clipPath id="clip0_2166_9478">	
				<rect width="32" height="32" fill="white"/>
			</clipPath>
		</defs>
	</symbol>

	<symbol id="search-icon">
		<path d="M8.84473 14.564C12.1584 14.564 14.8447 11.8777 14.8447 8.56396C14.8447 5.25026 12.1584 2.56396 8.84473 2.56396C5.53102 2.56396 2.84473 5.25026 2.84473 8.56396C2.84473 11.8777 5.53102 14.564 8.84473 14.564Z"  stroke-width="2" stroke-linecap="round" stroke-linejoin="round"/>
		<path d="M16.3445 16.0638L13.082 12.8013"  stroke-width="2" stroke-linecap="round" stroke-linejoin="round"/>
	</symbol>

	<symbol id="star-rating">
		<path d="M5.52447 0.463525C5.67415 0.00286925 6.32585 0.00286996 6.47553 0.463525L7.45934 3.49139C7.52628 3.6974 7.71826 3.83688 7.93487 3.83688H11.1186C11.6029 3.83688 11.8043 4.45669 11.4124 4.74139L8.83679 6.61271C8.66155 6.74003 8.58822 6.96572 8.65516 7.17173L9.63897 10.1996C9.78864 10.6602 9.2614 11.0433 8.86955 10.7586L6.29389 8.88729C6.11865 8.75997 5.88135 8.75997 5.70611 8.88729L3.13045 10.7586C2.73859 11.0433 2.21136 10.6602 2.36103 10.1996L3.34484 7.17173C3.41178 6.96572 3.33845 6.74003 3.16321 6.61271L0.587553 4.74139C0.195696 4.45669 0.397084 3.83688 0.881446 3.83688H4.06513C4.28174 3.83688 4.47372 3.6974 4.54066 3.49139L5.52447 0.463525Z" fill="#F8981C"/>
	</symbol>

	<symbol id="star-rating-empty">
		<path d="M6.49339 0.885489C6.65285 0.371503 7.34715 0.371504 7.50661 0.885491L8.79391 5.03488C8.86522 5.26474 9.06974 5.42037 9.30051 5.42037H13.4663C13.9823 5.42037 14.1969 6.11194 13.7794 6.4296L10.4092 8.99406C10.2225 9.13612 10.1444 9.38794 10.2157 9.6178L11.503 13.7672C11.6625 14.2812 11.1008 14.7086 10.6833 14.3909L7.3131 11.8265C7.1264 11.6844 6.8736 11.6844 6.6869 11.8265L3.31671 14.3909C2.89924 14.7086 2.33754 14.2812 2.497 13.7672L3.7843 9.6178C3.85561 9.38794 3.77749 9.13612 3.59079 8.99406L0.220598 6.4296C-0.196869 6.11193 0.0176825 5.42037 0.5337 5.42037H4.69949C4.93026 5.42037 5.13478 5.26474 5.20609 5.03488L6.49339 0.885489Z"/>
	</symbol>

	<symbol id="map-marker">
		<path d="M21.3741 57.0547H22.749L22.9855 56.9483C23.8328 56.5736 24.5428 55.9369 25.0149 55.1283C29.6895 48.4084 34.366 41.6886 39.0444 34.9687C42.1738 30.6406 43.5518 25.2544 42.8941 19.9217C42.6286 17.262 41.8491 14.682 40.6004 12.3302C39.3516 9.97848 37.6584 7.90148 35.6181 6.21879C28.9691 0.663685 21.2861 -0.433896 13.4052 3.04364C9.38501 4.84478 6.03246 7.90254 3.83335 11.7738C1.63425 15.6451 0.702835 20.1288 1.17407 24.5753C1.47628 28.1027 2.68237 31.4877 4.67182 34.3919C7.78094 38.8718 10.8974 43.3517 14.0212 47.8317L19.1908 55.2627C19.6514 56.0032 20.3175 56.5879 21.1047 56.9427L21.3741 57.0547Z" fill="white" stroke="#FE4F02"/>
		<path d="M31.0442 22.638C31.0442 16.1427 28.9624 11.0111 26.2582 10.7003C26.2338 10.6928 26.2088 10.6878 26.1835 10.6854H20.9656C20.1353 10.6465 19.3077 10.8077 18.5527 11.1555C16.2618 12.2387 13.8125 15.815 13.8125 22.5966C13.8125 28.3653 15.5865 32.7479 18.4407 34.0428C19.3574 34.41 20.3367 34.5961 21.3242 34.5906H26.183C26.2083 34.5882 26.2333 34.5832 26.2577 34.5757C28.9619 34.2649 31.0442 29.1332 31.0442 22.638ZM20.9557 33.3595C20.0463 32.9024 19.2899 32.1902 18.7788 31.3101L20.3566 31.7872C20.8201 32.5477 21.4349 33.2049 22.1629 33.7181C21.7475 33.6476 21.3422 33.5272 20.9557 33.3595ZM18.2604 30.3713C17.9949 29.8127 17.7713 29.235 17.5915 28.6432L19.1454 29.1357C19.3311 29.7211 19.5588 30.2923 19.8267 30.8449L18.2604 30.3713ZM17.8714 15.8096L19.0667 16.4411C18.8768 17.0545 18.7224 17.6784 18.6045 18.3096L17.3171 17.5775C17.4623 16.9765 17.6474 16.3859 17.8714 15.8096ZM16.7847 23.5085L18.2788 24.153C18.3112 24.7083 18.3565 25.2486 18.4217 25.7731L16.9112 25.2252C16.8505 24.6704 16.8056 24.0987 16.7847 23.5085ZM16.7693 22.6878C16.7693 22.6574 16.7693 22.6275 16.7693 22.5966C16.7693 22.0294 16.7927 21.495 16.8256 20.9751L18.2524 21.6041C18.2404 21.9288 18.23 22.2555 18.23 22.5966C18.23 22.8432 18.2375 23.0832 18.2439 23.3243L16.7693 22.6878ZM16.8838 20.1857C16.9481 19.5318 17.0332 18.9142 17.1478 18.34L18.47 19.092C18.3909 19.6319 18.3356 20.2096 18.2942 20.8072L16.8838 20.1857ZM17.3545 27.7861C17.2197 27.2382 17.1071 26.6627 17.0168 26.0594L18.5437 26.6117C18.6399 27.1924 18.7594 27.7457 18.8973 28.2746L17.3545 27.7861ZM19.3137 15.7259L18.1682 15.1208C18.488 14.4249 18.899 13.7748 19.3904 13.1874L20.2022 13.8448C19.8502 14.4439 19.5528 15.0735 19.3137 15.7259ZM20.611 13.2153L19.9039 12.6426C20.2524 12.314 20.6489 12.0403 21.0797 11.8308C21.4798 11.64 21.9091 11.5178 22.3497 11.4693C21.6691 11.9411 21.0799 12.5327 20.611 13.2153ZM14.5595 22.5966C14.5595 16.1637 16.7877 12.8164 18.8719 11.8308C19.297 11.6282 19.7547 11.5026 20.2236 11.4598C19.8418 11.7089 19.4895 12.0005 19.1732 12.3289L18.2997 12.5415C18.2041 12.5649 18.1216 12.6251 18.0702 12.7091C18.0188 12.7931 18.0026 12.8939 18.0253 12.9897C18.0457 13.0714 18.0935 13.1436 18.1608 13.1942C18.2281 13.2448 18.3107 13.2707 18.3948 13.2676C18.0195 13.8024 17.6963 14.3719 17.4297 14.9684L16.5397 15.1935C16.4921 15.2055 16.4474 15.2268 16.408 15.256C16.3686 15.2853 16.3354 15.3221 16.3103 15.3642C16.2851 15.4064 16.2685 15.453 16.2614 15.5016C16.2542 15.5501 16.2568 15.5996 16.2688 15.6472C16.2808 15.6948 16.302 15.7395 16.3313 15.7789C16.3606 15.8183 16.3974 15.8515 16.4395 15.8766C16.4816 15.9018 16.5283 15.9184 16.5769 15.9255C16.6254 15.9326 16.6749 15.9301 16.7225 15.9181L17.08 15.8275C16.8831 16.3654 16.7168 16.9142 16.582 17.471L15.7707 17.7329C15.6764 17.7634 15.5981 17.83 15.5529 17.9183C15.5078 18.0065 15.4995 18.109 15.5299 18.2033C15.5604 18.2976 15.627 18.376 15.7153 18.4211C15.8035 18.4663 15.906 18.4746 16.0003 18.4441L16.3987 18.3156C16.2902 18.8824 16.1995 19.4805 16.1378 20.118L15.4077 20.3022C15.3601 20.3142 15.3153 20.3355 15.276 20.3648C15.2366 20.3941 15.2034 20.4309 15.1782 20.473C15.1531 20.5151 15.1365 20.5618 15.1294 20.6103C15.1222 20.6589 15.1247 20.7084 15.1368 20.7559C15.1488 20.8035 15.17 20.8483 15.1993 20.8876C15.2286 20.927 15.2654 20.9602 15.3075 20.9854C15.3496 21.0105 15.3963 21.0271 15.4448 21.0343C15.4934 21.0414 15.5429 21.0389 15.5905 21.0269L16.0785 20.9034C16.0432 21.4457 16.0183 22.003 16.0183 22.5937C16.0183 22.6121 16.0183 22.63 16.0183 22.6484L15.3504 22.8173C15.2543 22.8416 15.1718 22.9031 15.121 22.9882C15.0703 23.0733 15.0554 23.1751 15.0797 23.2712C15.104 23.3673 15.1655 23.4498 15.2506 23.5006C15.3358 23.5513 15.4376 23.5662 15.5337 23.5419L16.0317 23.4159C16.0506 24.0354 16.0905 24.6361 16.1512 25.2178L15.5103 25.402C15.4629 25.4159 15.4186 25.4389 15.3801 25.4698C15.3416 25.5007 15.3096 25.539 15.2858 25.5823C15.2621 25.6256 15.2471 25.6731 15.2417 25.7222C15.2363 25.7713 15.2407 25.821 15.2545 25.8684C15.2684 25.9158 15.2914 25.9601 15.3223 25.9986C15.3533 26.0371 15.3915 26.0691 15.4348 26.0929C15.4781 26.1166 15.5256 26.1316 15.5747 26.137C15.6238 26.1424 15.6735 26.138 15.7209 26.1242L16.2449 25.9748C16.329 26.5863 16.4351 27.174 16.5641 27.7328L16.0481 27.8633C16.0006 27.8753 15.9558 27.8966 15.9165 27.9259C15.8771 27.9552 15.8439 27.992 15.8188 28.0342C15.7936 28.0763 15.7771 28.123 15.77 28.1716C15.7629 28.2202 15.7654 28.2696 15.7775 28.3172C15.7895 28.3648 15.8108 28.4095 15.8401 28.4489C15.8694 28.4882 15.9062 28.5214 15.9484 28.5466C16.0335 28.5973 16.1353 28.6122 16.2314 28.5879L16.7454 28.4579C16.9313 29.1332 17.1686 29.7934 17.4551 30.4326L17.2703 30.4794C17.2227 30.4914 17.178 30.5127 17.1386 30.542C17.0992 30.5712 17.066 30.608 17.0409 30.6501C17.0157 30.6923 16.9991 30.7389 16.992 30.7875C16.9849 30.836 16.9874 30.8855 16.9994 30.9331C17.0114 30.9807 17.0326 31.0254 17.0619 31.0648C17.0912 31.1042 17.128 31.1374 17.1701 31.1625C17.2122 31.1877 17.2589 31.2043 17.3075 31.2114C17.356 31.2185 17.4055 31.216 17.4531 31.204L17.7932 31.1179C18.3205 32.1768 19.1131 33.0812 20.0936 33.743C19.6307 33.6752 19.1786 33.5471 18.7489 33.362C16.203 32.2095 14.5595 27.9843 14.5595 22.5966ZM25.9972 33.8436H24.4971C24.0371 33.7644 23.5889 33.6272 23.1634 33.4352C22.3762 33.0353 21.7067 32.4371 21.2211 31.6996L21.5697 31.6074C21.6656 31.5822 21.7475 31.5199 21.7974 31.4343C21.8473 31.3487 21.8612 31.2468 21.8359 31.151C21.8107 31.0552 21.7485 30.9733 21.6629 30.9234C21.5773 30.8734 21.4753 30.8596 21.3795 30.8848L20.7968 31.0382C20.4457 30.4219 20.1545 29.7733 19.9273 29.1014L20.6887 28.9022C20.7362 28.8896 20.7807 28.8679 20.8198 28.8382C20.8588 28.8084 20.8916 28.7713 20.9163 28.7289C20.941 28.6865 20.9571 28.6396 20.9637 28.591C20.9703 28.5424 20.9672 28.4929 20.9547 28.4455C20.9422 28.398 20.9204 28.3535 20.8907 28.3145C20.861 28.2754 20.8238 28.2426 20.7814 28.2179C20.739 28.1932 20.6922 28.1771 20.6435 28.1705C20.5949 28.1639 20.5454 28.167 20.498 28.1795L19.7012 28.3897C19.5374 27.8162 19.4044 27.2343 19.3027 26.6466L20.3825 26.3617C20.4299 26.3492 20.4744 26.3275 20.5135 26.2977C20.5525 26.268 20.5853 26.2309 20.61 26.1885C20.6347 26.1461 20.6508 26.0992 20.6574 26.0506C20.664 26.0019 20.6609 25.9525 20.6484 25.905C20.6359 25.8576 20.6141 25.8131 20.5844 25.774C20.5547 25.735 20.5175 25.7022 20.4751 25.6775C20.4327 25.6528 20.3859 25.6367 20.3372 25.6301C20.2886 25.6235 20.2392 25.6266 20.1917 25.6391L19.1837 25.905C19.11 25.3622 19.0577 24.7825 19.0218 24.1769L20.1728 23.8437C20.2199 23.8301 20.2639 23.8073 20.3022 23.7767C20.3405 23.746 20.3724 23.7081 20.3961 23.6652C20.4198 23.6222 20.4348 23.575 20.4402 23.5263C20.4456 23.4775 20.4414 23.4282 20.4278 23.381C20.4141 23.3339 20.3914 23.2899 20.3607 23.2516C20.3301 23.2133 20.2922 23.1814 20.2493 23.1577C20.2063 23.134 20.1591 23.1191 20.1103 23.1136C20.0616 23.1082 20.0122 23.1124 19.9651 23.126L18.9885 23.4089C18.9805 23.142 18.9711 22.8775 18.9711 22.5991C18.9711 22.2849 18.9805 21.9617 18.9945 21.635L20.2052 21.3152C20.301 21.29 20.3829 21.2277 20.4328 21.1421C20.4827 21.0565 20.4966 20.9546 20.4714 20.8588C20.4461 20.763 20.3839 20.6811 20.2983 20.6312C20.2127 20.5812 20.1107 20.5674 20.0149 20.5926L19.0418 20.8496C19.0846 20.3017 19.1483 19.7435 19.234 19.1872L20.51 18.8311C20.6013 18.8011 20.6775 18.7371 20.7229 18.6523C20.7683 18.5676 20.7793 18.4687 20.7537 18.376C20.7281 18.2834 20.6678 18.2042 20.5853 18.1548C20.5028 18.1054 20.4045 18.0897 20.3107 18.1109L19.3794 18.3714C19.4996 17.7604 19.6529 17.1564 19.8386 16.5621L21.0289 16.2722C21.0775 16.2615 21.1234 16.2412 21.1641 16.2125C21.2047 16.1838 21.2392 16.1473 21.2656 16.1051C21.2919 16.0629 21.3095 16.0158 21.3174 15.9667C21.3253 15.9176 21.3233 15.8673 21.3115 15.819C21.2997 15.7707 21.2784 15.7252 21.2488 15.6852C21.2192 15.6452 21.1819 15.6115 21.1391 15.5861C21.0963 15.5608 21.0489 15.5442 20.9996 15.5374C20.9503 15.5306 20.9002 15.5337 20.8521 15.5466L20.13 15.7224C20.3502 15.1394 20.6224 14.5774 20.9432 14.0431L21.9433 13.809C21.991 13.7978 22.0361 13.7773 22.076 13.7487C22.1159 13.7201 22.1497 13.6839 22.1756 13.6422C22.2015 13.6005 22.2189 13.5541 22.2268 13.5057C22.2348 13.4573 22.2331 13.4078 22.2219 13.36C22.2107 13.3122 22.1902 13.2671 22.1616 13.2273C22.133 13.1874 22.0968 13.1536 22.0551 13.1277C22.0134 13.1018 21.9671 13.0844 21.9186 13.0765C21.8702 13.0685 21.8207 13.0702 21.7729 13.0814L21.6066 13.1207C22.065 12.5593 22.6388 12.1029 23.2889 11.7825C23.64 11.6133 24.0135 11.4954 24.398 11.4324H25.9972C28.328 11.4324 30.2971 16.5621 30.2971 22.638C30.2971 28.7139 28.328 33.8436 25.9972 33.8436Z" fill="#FE4F02"/>
		<path d="M21.6983 22.6375C21.6699 18.4994 22.5704 14.691 24.0475 12.6999C24.101 12.6203 24.1219 12.5233 24.1059 12.4288C24.0899 12.3343 24.0382 12.2495 23.9615 12.192C23.8849 12.1345 23.789 12.1086 23.6938 12.1197C23.5986 12.1308 23.5113 12.178 23.4499 12.2517C21.8811 14.3673 20.9244 18.348 20.9538 22.64C20.9842 27.1167 22.0071 31.1771 23.6232 33.237C23.6581 33.2816 23.7027 33.3177 23.7536 33.3424C23.8045 33.3672 23.8604 33.38 23.917 33.3799C24.0007 33.3804 24.0821 33.3523 24.1476 33.3002C24.1863 33.27 24.2186 33.2324 24.2427 33.1897C24.2668 33.1469 24.2822 33.0998 24.2881 33.0511C24.2939 33.0024 24.2901 32.953 24.2769 32.9058C24.2636 32.8585 24.2412 32.8144 24.2109 32.7758C22.7123 30.8694 21.7272 26.8891 21.6983 22.6375Z" fill="#FE4F02"/>
		<path d="M26.5341 14.5742C25.9863 14.5742 25.1949 14.9228 24.5126 16.5758C23.8254 18.5074 23.497 20.5483 23.5435 22.5979C23.4965 24.6491 23.8258 26.6916 24.5151 28.624C25.1949 30.275 25.9883 30.6211 26.5341 30.6211C28.4764 30.6211 29.5248 26.4875 29.5248 22.5974C29.5248 18.7073 28.4764 14.5742 26.5341 14.5742ZM26.5341 29.8746C26.0919 29.8746 25.6078 29.3153 25.2064 28.3401C24.5535 26.4979 24.2431 24.5518 24.2905 22.5979C24.244 20.6464 24.5536 18.7027 25.2039 16.8621C25.6068 15.884 26.0919 15.3232 26.5341 15.3232C27.5954 15.3232 28.7777 18.3114 28.7777 22.5999C28.7777 26.8884 27.5954 29.8746 26.5341 29.8746Z" fill="#FE4F02"/>
		<path d="M25.3534 19.1474C25.3062 19.1608 25.2621 19.1834 25.2237 19.2139C25.1852 19.2444 25.1532 19.2822 25.1294 19.325C25.1055 19.3679 25.0904 19.4151 25.0848 19.4638C25.0793 19.5126 25.0834 19.5619 25.0969 19.6091C25.3568 20.582 25.4828 21.5858 25.4714 22.5928C25.4862 23.6813 25.3361 24.7659 25.0262 25.8095C25.011 25.8561 25.0051 25.9053 25.009 25.9542C25.0128 26.0031 25.0263 26.0507 25.0486 26.0944C25.0709 26.1381 25.1016 26.1769 25.1389 26.2087C25.1763 26.2405 25.2195 26.2646 25.2662 26.2796C25.3034 26.2922 25.3425 26.2986 25.3818 26.2986C25.4607 26.2984 25.5375 26.2734 25.6012 26.2269C25.665 26.1805 25.7125 26.1151 25.7369 26.0401C26.0707 24.9219 26.233 23.7596 26.2185 22.5928C26.2297 21.5169 26.094 20.4445 25.8151 19.4054C25.8019 19.358 25.7795 19.3137 25.7491 19.275C25.7187 19.2363 25.681 19.2041 25.638 19.1801C25.5951 19.1561 25.5478 19.1408 25.499 19.1352C25.4501 19.1296 25.4006 19.1338 25.3534 19.1474Z" fill="#FE4F02"/>
		<path d="M23.0547 18.0547C23.0547 18.3826 23.0547 18.7235 23.0547 19.0547" stroke="#FE4F02" stroke-width="2" stroke-linecap="round"/>
		<path d="M24.0547 16.0547C23.5721 17.0372 23.2491 17.9609 23.0547 19.0547" stroke="#FE4F02" stroke-width="2" stroke-linecap="round"/>
		<path d="M23.0547 18.0547C23.0547 18.29 23.0547 18.5001 23.0547 18.7214C23.0547 18.8435 23.0547 18.9786 23.0547 19.0547" stroke="#FE4F02" stroke-width="2" stroke-linecap="round"/>
		<path d="M23.0547 17.0547C23.0461 17.4038 22.923 17.7521 22.7275 18.0819C22.4746 18.5085 22.0925 18.9112 22.0732 19.3744C22.0677 19.5069 21.9605 20.0547 22.3315 20.0547" stroke="#FE4F02" stroke-width="2" stroke-linecap="round"/>
		<path d="M22.9741 19.0547C23.0055 19.2782 23.1065 19.5295 23.0213 19.7543C22.9473 19.9496 22.6041 20.1031 22.535 20.2947C22.4256 20.5983 22.4514 20.8964 22.4236 21.2015C22.4106 21.3436 22.324 21.4866 22.1804 21.613C22.0413 21.7354 22.0622 21.8375 22.0622 21.971C22.0622 22.0125 22.0432 22.0632 22.0656 22.1041C22.0845 22.1387 22.1786 22.1526 22.1838 22.1905C22.195 22.2722 22.1838 22.3556 22.1838 22.4374C22.1838 22.556 22.0573 22.8162 22.2446 22.9065C22.3869 22.9752 22.3054 23.1287 22.3054 23.2138C22.3054 23.341 22.1056 23.5277 22.2446 23.6349C22.3503 23.7165 22.3661 23.8156 22.3661 23.9065C22.3661 24.0226 22.4653 24.1082 22.535 24.2152C22.6263 24.3553 22.4303 24.5378 22.5789 24.6706C22.6813 24.7621 22.8884 24.998 22.6093 25.0547" stroke="#FE4F02" stroke-width="2" stroke-linecap="round"/>
		<path d="M22.0547 25.0547C22.3211 25.4247 22.6649 25.7714 22.8591 26.1674C23.0323 26.5205 23.098 27.0019 23.4591 27.2916C23.5598 27.3724 23.7097 27.4562 23.7658 27.5612C23.7972 27.6201 23.7919 27.7018 23.8325 27.754C23.908 27.8513 24.0071 27.9498 24.0547 28.0547" stroke="#FE4F02" stroke-width="2" stroke-linecap="round"/>
		<path d="M23.0547 27.0547C23.1047 27.2507 23.1334 27.4785 23.2268 27.6616C23.2826 27.7709 23.361 27.8584 23.3927 27.9788C23.4517 28.2025 23.614 28.414 23.7026 28.6332C23.8352 28.9614 23.9607 29.2841 24.0688 29.6202C24.1344 29.8244 24.2305 30.1106 24.3661 30.2715C24.4439 30.3639 24.5648 30.4084 24.6541 30.4876C24.7463 30.5695 24.7779 30.6892 24.8575 30.7788C24.938 30.8695 25.0003 30.9481 25.0547 31.0547" stroke="#FE4F02" stroke-width="2" stroke-linecap="round"/>
		<path d="M25.0547 30.0547C25.1394 30.2268 25.2707 30.4656 25.4436 30.5817C25.6242 30.7032 25.7886 30.8286 25.9497 30.969C26.0898 31.091 26.3764 31.0469 26.5547 31.0469C26.763 31.0469 26.8768 31.0018 27.0547 30.9501" stroke="#FE4F02" stroke-width="2" stroke-linecap="round"/>
		<path d="M26.0547 32.0547C26.509 32.0547 27.0193 31.8761 27.3941 31.674C27.6904 31.5142 27.8468 31.2789 28.0547 31.0547" stroke="#FE4F02" stroke-width="2" stroke-linecap="round"/>
		<path d="M28.0547 30.0547C28.1943 29.9918 28.2951 29.9624 28.4013 29.8514C28.5147 29.7329 28.6192 29.5949 28.702 29.4512C28.786 29.3055 28.7687 29.1036 28.8615 28.965C28.9004 28.9068 28.9854 28.8235 28.9895 28.7491C28.9968 28.6157 29.0112 28.4865 29.0112 28.3501C29.0112 28.3029 29.0181 28.0738 29.0547 28.0547" stroke="#FE4F02" stroke-width="2" stroke-linecap="round"/>
		<path d="M28.0547 30.0547C28.0516 30.3292 27.988 30.5644 27.9652 30.8301C27.9553 30.9466 27.9317 31.1623 27.8782 31.2474C27.8379 31.3114 27.7809 31.3669 27.7557 31.4479C27.7285 31.5353 27.712 31.6182 27.6576 31.6807C27.5967 31.7507 27.5728 31.8721 27.5142 31.9386C27.42 32.0457 27.3245 32.1372 27.2483 32.2789C27.1677 32.4288 27.0243 32.4806 26.9689 32.6334C26.9485 32.6897 26.8407 32.7453 26.7998 32.7624C26.7479 32.784 26.6931 32.8823 26.6429 32.9235C26.4655 33.0694 26.2531 33.0525 26.051 33.0525C25.925 33.0525 25.7983 33.0575 25.6723 33.0525C25.5548 33.0478 25.469 32.9245 25.3831 32.8268C25.3234 32.759 25.2385 32.7402 25.1821 32.6728C25.1324 32.6134 25.1019 32.5183 25.0547 32.4723" stroke="#FE4F02" stroke-width="2" stroke-linecap="round"/>
		<path d="M26.0547 32.0493C25.6225 32.0493 25.1872 32.0893 24.7714 31.9518C24.4024 31.8297 24.1501 31.412 23.8148 31.2263C23.7128 31.1698 23.5896 31.1227 23.4999 31.049C23.4398 30.9996 23.4627 30.8974 23.3851 30.8584C23.3188 30.8251 23.2467 30.6613 23.2467 30.5865C23.2467 30.5037 23.2366 30.4175 23.2188 30.3368C23.2109 30.3014 23.1255 30.2616 23.1158 30.1979C23.0928 30.0483 23.0918 29.8874 23.0878 29.7355C23.0834 29.5683 23.0325 29.3176 22.8509 29.2568C22.6803 29.1997 22.7487 29.0221 22.664 28.9051C22.4599 28.6235 22.505 28.2679 22.505 27.9388C22.505 27.729 22.505 27.5192 22.505 27.3094C22.505 27.2277 22.4986 27.1334 22.4726 27.0553C22.4535 26.9977 22.3991 26.9357 22.3991 26.875C22.3991 26.7402 22.3726 26.6025 22.3726 26.4642C22.3726 26.3928 22.3726 26.3214 22.3726 26.25C22.3726 26.0784 22.2384 26.0905 22.1606 25.9648C22.1065 25.8773 22.1459 25.7549 22.1283 25.6575C22.1123 25.5692 22.1077 25.4904 22.1077 25.4004C22.1077 25.3256 22.0547 25.3171 22.0547 25.2409C22.0547 25.1788 22.0547 25.1167 22.0547 25.0547" stroke="#FE4F02" stroke-width="2" stroke-linecap="round"/>
		<path d="M23.0547 29.0547C23.1229 29.2364 23.172 29.4496 23.2861 29.6153C23.3573 29.7187 23.3371 29.8021 23.3706 29.9167C23.3954 30.0016 23.4394 30.0833 23.4679 30.1677C23.5032 30.2721 23.6071 30.334 23.6424 30.4333C23.7721 30.7977 23.8248 31.1889 24.0317 31.53C24.1306 31.693 24.2049 31.8428 24.2705 32.0237C24.2974 32.0981 24.2465 32.1967 24.2815 32.2665C24.3382 32.3798 24.4362 32.5172 24.5588 32.5876C24.6638 32.6478 24.7661 32.6971 24.8545 32.7668C24.9061 32.8075 25.0173 32.812 25.0731 32.8532C25.2397 32.9764 25.5015 32.9508 25.6993 33.021C25.9203 33.0994 26.1645 33.0208 26.3752 32.9868C26.5987 32.9507 26.8904 32.8669 27.0547 32.7212" stroke="#FE4F02" stroke-width="2" stroke-linecap="round"/>
		<path d="M24.6924 12.3857C24.8195 12.5514 24.9685 12.6801 25.125 12.7773L24.2021 13.7012L24.1543 13.748L24.1211 13.8066L22.1211 17.3066L22.0557 17.4219V20.0547C22.0557 20.1434 22.0772 20.3314 22.1035 20.5449C22.1322 20.778 22.1737 21.0908 22.2246 21.4629C22.3264 22.2076 22.4667 23.1968 22.623 24.2764C22.9357 26.4358 23.3114 28.9617 23.5615 30.6289L23.5771 30.7344L23.6338 30.8232L25.168 33.2266L25.2998 33.4346L25.207 33.5049L23.917 33.1377C22.812 30.6656 21.5836 26.7391 21.3867 22.7549C21.1951 18.8766 21.9815 15.0372 24.6924 12.3857Z" stroke="#FE4F02" stroke-linecap="round"/>
		<path d="M22.8956 27.0547C22.6928 26.8219 22.541 26.4508 22.4025 26.1672C22.3113 25.9806 22.344 25.849 22.2156 25.6943C22.1924 25.6664 22.1515 25.4632 22.1481 25.418C22.1371 25.2711 22.0547 25.1591 22.0547 25.0088C22.0547 24.7646 22.1481 24.5483 22.1481 24.2914C22.1481 24.2435 22.3132 24.5268 22.3454 24.5996C22.4644 24.8694 22.6543 25.0588 22.7814 25.3117C22.8994 25.5466 22.9165 25.8028 23.0253 26.0503C23.1273 26.2823 22.9331 25.9597 22.9059 25.8856C22.7689 25.5115 22.8688 24.9873 22.7814 24.5996C22.6537 24.0332 22.5547 23.6359 22.5547 23.0547C22.5547 22.2806 22.9076 21.5467 22.7814 20.6619C22.7814 20.3497 22.5218 20.1093 22.5218 19.8117C22.5218 19.5956 22.5218 19.3795 22.5218 19.1634C22.5218 18.9243 22.5218 18.6851 22.5218 18.446C22.5218 18.0812 22.7087 17.7617 22.7087 17.3938C22.7087 17.2112 22.7783 17.0089 22.8047 16.8199C22.8219 16.6966 22.8956 16.5893 22.8956 16.4586C22.8956 16.3213 22.8669 16.1704 22.9423 16.0547" stroke="#FE4F02" stroke-width="2" stroke-linecap="round"/>
		<path d="M26.0547 12.0547C25.8961 12.0911 25.8297 12.1591 25.7077 12.25C25.6092 12.3232 25.4794 12.3603 25.3761 12.4287C25.3093 12.4729 25.2327 12.54 25.1734 12.5942C25.127 12.6365 25.1027 12.6908 25.0634 12.7381C24.994 12.8217 24.8845 12.8524 24.7937 12.9086C24.516 13.0804 24.3666 13.2526 24.1958 13.4994C24.1404 13.5795 24.0583 13.6389 24 13.7112C23.9501 13.773 23.936 13.8406 23.8728 13.9015C23.6063 14.1582 23.3999 14.4637 23.2269 14.7786C23.1435 14.9303 23.1328 15.074 23.1152 15.2436C23.0952 15.4359 22.9651 15.574 22.8867 15.7466C22.7744 15.9939 22.7213 16.2334 22.6376 16.4913C22.5954 16.6212 22.6187 16.7736 22.5603 16.8968C22.4992 17.0255 22.5324 17.1705 22.4812 17.2972C22.3589 17.6004 22.239 17.9298 22.1909 18.2537C22.1695 18.3978 22.1168 18.5164 22.0724 18.6608C22.0371 18.7755 22.0655 18.9345 22.0655 19.0547" stroke="#FE4F02" stroke-width="2" stroke-linecap="round"/>
		<path d="M23.0547 16.0547C23.2773 15.9486 23.3751 15.7798 23.474 15.5984C23.5951 15.3764 23.8136 15.2331 23.974 15.0356C24.0999 14.8806 24.1839 14.7021 24.3522 14.5738C24.5062 14.4564 24.6151 14.2951 24.7823 14.1858C24.9194 14.0963 25.0535 13.9823 25.1515 13.8662C25.2056 13.8019 25.261 13.708 25.345 13.664C25.4393 13.6146 25.5759 13.5573 25.6497 13.485C25.7562 13.3806 26.006 13.3341 26.1443 13.2432C26.4228 13.0602 26.7025 13.0547 27.0547 13.0547" stroke="#FE4F02" stroke-width="2" stroke-linecap="round"/>
		<path d="M27.0547 13.0547C26.878 13.2645 26.6472 13.438 26.4768 13.6449C26.3961 13.7429 26.2397 13.8114 26.1419 13.903C26.014 14.0229 25.8718 14.1206 25.7214 14.2159C25.5965 14.295 25.4872 14.3872 25.3849 14.4932C25.2647 14.6178 25.0838 14.6754 24.9737 14.8006C24.857 14.9332 24.6865 15.0536 24.5485 15.1694C24.4951 15.2142 24.4196 15.2706 24.3756 15.3197C24.3403 15.3591 24.2825 15.4579 24.2385 15.4836C24.0526 15.5924 24.0547 15.8766 24.0547 16.0547" stroke="#FE4F02" stroke-width="2" stroke-linecap="round"/>
		<path d="M27.9962 14.1577C28.0422 14.2846 28.1219 14.4038 28.1599 14.5294C28.2207 14.7299 28.3478 14.892 28.4068 15.0899C28.4349 15.1838 28.4683 15.2446 28.5238 15.3193C28.5687 15.3798 28.5412 15.4516 28.568 15.5168C28.6184 15.6394 28.6862 15.748 28.7551 15.858C28.8144 15.9526 28.8397 16.0578 28.9085 16.1455C28.9361 16.1808 28.9569 16.2205 28.9787 16.2602C29.0236 16.3423 29.1078 16.3608 29.1606 16.4316C29.2154 16.505 29.1987 16.5937 29.2594 16.6567C29.3329 16.7329 29.3729 16.8225 29.3945 16.9282C29.4117 17.012 29.3997 17.1098 29.3997 17.1954C29.3997 17.3234 29.4316 17.4095 29.4569 17.5308C29.5039 17.7557 29.553 17.9661 29.6115 18.1842C29.6537 18.3412 29.6804 18.5268 29.6804 18.6924C29.6804 18.7761 29.6789 18.8476 29.6622 18.9291C29.6462 19.0073 29.6804 19.0647 29.6804 19.1368C29.6804 19.282 29.7038 19.418 29.7038 19.5622C29.7038 19.6729 29.7506 19.7618 29.7506 19.8715C29.7506 20.1082 29.7506 20.3449 29.7506 20.5816C29.7506 20.9376 29.8304 21.3232 29.7376 21.6721C29.6793 21.8911 29.6218 22.1049 29.5739 22.327C29.5146 22.6014 29.4933 22.9012 29.4933 23.1837C29.4933 23.3505 29.4338 23.4984 29.4244 23.6614C29.4128 23.8622 29.4246 24.0602 29.4049 24.2611C29.3806 24.5094 29.4311 24.7602 29.4231 25.0104C29.4207 25.0846 29.3868 25.1556 29.375 25.2282C29.368 25.2713 29.3433 25.3095 29.3295 25.3501C29.3007 25.4356 29.3163 25.5272 29.2853 25.6115C29.2242 25.7779 29.1396 25.9818 29.119 26.1604C29.1115 26.2256 29.1098 26.3466 29.0826 26.4029C29.002 26.5703 29.0399 26.7727 28.9657 26.9387C28.9167 27.0481 28.8851 27.2264 28.8851 27.3511C28.8851 27.532 28.8495 27.6634 28.7655 27.8157C28.7454 27.8523 28.7179 28.0273 28.7915 27.958C28.8782 27.8765 28.9559 27.8034 29.0384 27.7112C29.1096 27.6317 29.1806 27.58 29.236 27.4818C29.2738 27.4147 29.285 27.3228 29.3178 27.2494C29.387 27.095 29.4311 26.8681 29.4478 26.7006C29.4554 26.6239 29.487 26.4832 29.5167 26.4131C29.5814 26.2599 29.5722 26.1466 29.5998 25.9789C29.6193 25.8607 29.6804 25.7715 29.6804 25.6464C29.6804 25.4586 29.6804 25.2708 29.6804 25.083C29.6804 25.0117 29.7018 24.875 29.6687 24.8085C29.6279 24.7264 29.6804 24.5307 29.6804 24.4382C29.6804 24.1068 29.7867 23.808 29.8442 23.4871C29.9039 23.1532 29.9374 22.839 29.9026 22.4968C29.8877 22.3499 29.8909 22.2031 29.8909 22.0554C29.8909 21.9446 29.8833 21.9457 29.8961 22.0685C29.9326 22.4167 30.0313 22.7269 30.0313 23.0835C30.0313 23.4459 30.0547 23.806 30.0547 24.1682C30.0547 24.7168 30.0313 25.2654 30.0313 25.8148C30.0313 26.1284 29.9165 26.3141 29.8078 26.5873C29.758 26.7124 29.7998 26.841 29.7636 26.9648C29.7285 27.0846 29.6988 27.1943 29.6687 27.3177C29.6326 27.4655 29.611 27.6318 29.5167 27.7489C29.4787 27.7961 29.4792 27.8663 29.4348 27.9159C29.4015 27.9532 29.4008 28.0006 29.3646 28.0365C29.3315 28.0694 29.328 28.0571 29.3295 28.0045C29.3343 27.8417 29.3993 27.6712 29.4335 27.5137C29.6289 26.6157 29.7506 25.7218 29.7506 24.7955C29.7506 23.9416 29.6589 23.1082 29.5531 22.2631C29.5229 22.022 29.5401 21.7712 29.5401 21.5283C29.5401 21.2854 29.5184 21.0638 29.4946 20.8241C29.4702 20.5786 29.3802 20.3033 29.2944 20.0748C29.1893 19.7946 29.118 19.5067 29.0488 19.2166C29.0159 19.0789 28.9519 18.9725 28.9085 18.8406C28.8416 18.6371 28.8149 18.3998 28.8149 18.1828C28.8149 17.9357 28.7192 17.7148 28.698 17.4771C28.6792 17.2678 28.6985 17.0166 28.6057 16.8265C28.549 16.7105 28.5475 16.6053 28.4692 16.4955C28.36 16.3423 28.3304 16.1292 28.286 15.9422C28.2307 15.7095 28.1101 15.5699 28.0053 15.3701C27.9636 15.2907 27.9258 15.1918 27.8688 15.1247C27.821 15.0685 27.756 15.0498 27.7259 14.9737C27.6406 14.758 27.4969 14.6033 27.3412 14.4568C27.3153 14.4324 27.0634 14.2629 27.0605 14.3464C27.0591 14.3863 27.0382 14.5395 27.0852 14.5483C27.1599 14.5622 27.228 14.5947 27.2996 14.6223C27.4897 14.6955 27.6381 14.8564 27.8117 14.9534C27.8599 14.9804 27.9213 14.964 27.9728 14.9795C28.037 14.9988 28.0748 15.0572 28.1365 15.0783C28.2864 15.1294 28.3576 15.2672 28.464 15.3861C28.5545 15.4871 28.5445 15.5785 28.6005 15.6925C28.6862 15.8671 28.7792 16.0047 28.8435 16.1934C28.8739 16.2827 28.9189 16.3766 28.9293 16.4722C28.9454 16.6208 28.9253 16.7591 28.9696 16.905C29.0221 17.0779 29.0652 17.2526 29.145 17.4132C29.2702 17.6652 29.4289 17.908 29.5193 18.1799C29.5988 18.4192 29.5868 18.7657 29.5868 19.0192C29.5868 19.0593 29.609 19.2545 29.5765 19.2747C29.4429 19.3576 29.4178 19.1359 29.3971 19.0526C29.2902 18.6212 29.1263 18.2136 29.0176 17.782C28.9314 17.4394 28.7592 17.1385 28.62 16.8193C28.5496 16.6579 28.4442 16.5254 28.3809 16.359C28.2961 16.1362 28.2464 15.8692 28.1963 15.6344C28.0986 15.176 28.0108 14.7188 28.0612 14.2477C28.0934 13.9456 28.1087 13.6846 28.0014 13.3997C27.9824 13.3494 28.0076 13.2885 27.991 13.237C27.9767 13.1927 27.8896 13.0149 27.9416 13.0628C28.1493 13.254 28.2725 13.5184 28.425 13.7598C28.626 14.0778 28.8447 14.4745 28.9384 14.8561C28.9918 15.0739 29.1113 15.2784 29.1476 15.4965C29.2144 15.8977 29.236 16.2968 29.236 16.7075C29.236 16.9622 29.3209 17.1947 29.3295 17.4451C29.3337 17.5652 29.3114 17.3423 29.3061 17.3188C29.2715 17.1639 29.2414 16.9957 29.1892 16.8498" stroke="#FE4F02" stroke-linecap="round"/>
		<path d="M26.0547 12.0547C25.9419 12.0652 25.8007 12.0449 25.7053 12.1139C25.6086 12.1838 25.4907 12.2284 25.392 12.2989C25.3512 12.328 25.301 12.3377 25.2602 12.3667C25.2114 12.4013 25.1652 12.4259 25.1102 12.4499C25.0173 12.4905 24.8947 12.5258 24.8151 12.587C24.7826 12.6119 24.7433 12.6192 24.7414 12.6681C24.74 12.7055 24.7231 12.7279 24.708 12.7613C24.6784 12.8266 24.6364 12.8757 24.5942 12.9343C24.5648 12.9749 24.5526 13.0216 24.5246 13.0633C24.4883 13.1174 24.4408 13.1574 24.3927 13.1997C24.3493 13.2379 24.3219 13.2966 24.2776 13.3308C24.224 13.3722 24.207 13.454 24.1812 13.5104C24.1674 13.5406 24.1776 13.577 24.1658 13.6089C24.1417 13.6744 24.1245 13.7042 24.127 13.7766C24.1289 13.8326 24.1434 13.8543 24.1176 13.911C24.0947 13.9613 24.0864 14.0074 24.0547 14.0547" stroke="#FE4F02" stroke-linecap="round"/>
		<path d="M25.0547 12.0547C24.9988 12.0967 24.9465 12.1428 24.8885 12.1827C24.8131 12.2347 24.7284 12.2734 24.6471 12.3179C24.5825 12.3533 24.5255 12.3947 24.4669 12.4365C24.4323 12.4612 24.3894 12.4752 24.3572 12.5023C24.3117 12.5407 24.2787 12.5662 24.2601 12.6177C24.247 12.6541 24.2053 12.6808 24.1854 12.7143C24.1617 12.7543 24.1074 12.7947 24.1051 12.8403C24.1034 12.8736 24.1008 12.9107 24.1116 12.9428C24.1284 12.9922 24.0929 13.0225 24.0547 13.0547" stroke="#FE4F02" stroke-linecap="round"/>
	</symbol>

	<symbol id="map-marker-active">
		<path d="M22.4531 57.0547H23.1475L23.384 56.9483C24.2313 56.5736 24.9413 55.9369 25.4133 55.1283C30.088 48.4084 34.7645 41.6886 39.4428 34.9687C42.5722 30.6406 43.9502 25.2544 43.2925 19.9217C43.0271 17.262 42.2475 14.682 40.9988 12.3302C39.7501 9.97848 38.0568 7.90148 36.0166 6.21879C29.3675 0.663685 21.6846 -0.433896 13.8036 3.04364C9.78344 4.84478 6.43089 7.90254 4.23179 11.7738C2.03269 15.6451 1.10127 20.1288 1.57251 24.5753C1.87472 28.1028 3.08081 31.4877 5.07026 34.3919C8.17937 38.8718 11.2958 43.3517 14.4196 47.8317L19.5892 55.2627C20.0499 56.0032 20.7159 56.5879 21.5031 56.9427L22.4531 57.0547Z" fill="#FE4F02" stroke="#FE4F02"/>
		<path d="M31.4426 22.638C31.4426 16.1427 29.3609 11.0111 26.6566 10.7003C26.6323 10.6928 26.6072 10.6878 26.5819 10.6854H21.3641C20.5337 10.6465 19.7062 10.8077 18.9511 11.1555C16.6602 12.2387 14.2109 15.815 14.2109 22.5966C14.2109 28.3653 15.9849 32.7479 18.8391 34.0428C19.7558 34.41 20.7351 34.5961 21.7227 34.5906H26.5814C26.6067 34.5882 26.6318 34.5832 26.6561 34.5757C29.3604 34.2649 31.4426 29.1332 31.4426 22.638ZM21.3541 33.3595C20.4448 32.9024 19.6883 32.1902 19.1773 31.3101L20.755 31.7872C21.2186 32.5477 21.8334 33.2049 22.5613 33.7181C22.146 33.6476 21.7406 33.5272 21.3541 33.3595ZM18.6588 30.3713C18.3933 29.8127 18.1697 29.235 17.99 28.6432L19.5438 29.1357C19.7295 29.7211 19.9572 30.2923 20.2251 30.8449L18.6588 30.3713ZM18.2698 15.8096L19.4651 16.4411C19.2752 17.0545 19.1209 17.6784 19.0029 18.3096L17.7155 17.5775C17.8607 16.9765 18.0459 16.3859 18.2698 15.8096ZM17.1832 23.5085L18.6772 24.153C18.7096 24.7083 18.7549 25.2486 18.8202 25.7731L17.3097 25.2252C17.2489 24.6704 17.2041 24.0987 17.1832 23.5085ZM17.1677 22.6878C17.1677 22.6574 17.1677 22.6275 17.1677 22.5966C17.1677 22.0294 17.1911 21.495 17.224 20.9751L18.6508 21.6041C18.6389 21.9288 18.6284 22.2555 18.6284 22.5966C18.6284 22.8432 18.6359 23.0832 18.6424 23.3243L17.1677 22.6878ZM17.2823 20.1857C17.3465 19.5318 17.4317 18.9142 17.5462 18.34L18.8685 19.092C18.7893 19.6319 18.734 20.2096 18.6927 20.8072L17.2823 20.1857ZM17.7529 27.7861C17.6181 27.2382 17.5055 26.6627 17.4152 26.0594L18.9422 26.6117C19.0383 27.1924 19.1578 27.7457 19.2958 28.2746L17.7529 27.7861ZM19.7121 15.7259L18.5667 15.1208C18.8864 14.4249 19.2974 13.7748 19.7888 13.1874L20.6006 13.8448C20.2486 14.4439 19.9513 15.0735 19.7121 15.7259ZM21.0095 13.2153L20.3023 12.6426C20.6508 12.314 21.0473 12.0403 21.4781 11.8308C21.8782 11.64 22.3075 11.5178 22.7481 11.4693C22.0675 11.9411 21.4784 12.5327 21.0095 13.2153ZM14.958 22.5966C14.958 16.1637 17.1861 12.8164 19.2704 11.8308C19.6955 11.6282 20.1531 11.5026 20.622 11.4598C20.2403 11.7089 19.8879 12.0005 19.5717 12.3289L18.6981 12.5415C18.6025 12.5649 18.52 12.6251 18.4686 12.7091C18.4172 12.7931 18.4011 12.8939 18.4237 12.9897C18.4441 13.0714 18.492 13.1436 18.5592 13.1942C18.6265 13.2448 18.7091 13.2707 18.7933 13.2676C18.4179 13.8024 18.0947 14.3719 17.8281 14.9684L16.9381 15.1935C16.8905 15.2055 16.8458 15.2268 16.8064 15.256C16.7671 15.2853 16.7339 15.3221 16.7087 15.3642C16.6835 15.4064 16.6669 15.453 16.6598 15.5016C16.6527 15.5501 16.6552 15.5996 16.6672 15.6472C16.6792 15.6948 16.7005 15.7395 16.7298 15.7789C16.759 15.8183 16.7958 15.8515 16.8379 15.8766C16.8801 15.9018 16.9267 15.9184 16.9753 15.9255C17.0238 15.9326 17.0733 15.9301 17.1209 15.9181L17.4785 15.8275C17.2815 16.3654 17.1152 16.9142 16.9805 17.471L16.1692 17.7329C16.0749 17.7634 15.9965 17.83 15.9514 17.9183C15.9062 18.0065 15.8979 18.109 15.9284 18.2033C15.9588 18.2976 16.0255 18.376 16.1137 18.4211C16.2019 18.4663 16.3045 18.4746 16.3988 18.4441L16.7972 18.3156C16.6886 18.8824 16.598 19.4805 16.5362 20.118L15.8061 20.3022C15.7585 20.3142 15.7138 20.3355 15.6744 20.3648C15.6351 20.3941 15.6018 20.4309 15.5767 20.473C15.5515 20.5151 15.5349 20.5618 15.5278 20.6103C15.5207 20.6589 15.5232 20.7084 15.5352 20.7559C15.5472 20.8035 15.5684 20.8483 15.5977 20.8876C15.627 20.927 15.6638 20.9602 15.7059 20.9854C15.7481 21.0105 15.7947 21.0271 15.8433 21.0343C15.8918 21.0414 15.9413 21.0389 15.9889 21.0269L16.477 20.9034C16.4416 21.4457 16.4167 22.003 16.4167 22.5937C16.4167 22.6121 16.4167 22.63 16.4167 22.6484L15.7488 22.8173C15.6527 22.8416 15.5702 22.9031 15.5195 22.9882C15.4687 23.0733 15.4539 23.1751 15.4782 23.2712C15.5025 23.3673 15.5639 23.4498 15.6491 23.5006C15.7342 23.5513 15.836 23.5662 15.9321 23.5419L16.4301 23.4159C16.4491 24.0354 16.4889 24.6361 16.5497 25.2178L15.9087 25.402C15.8613 25.4159 15.8171 25.4389 15.7786 25.4698C15.74 25.5007 15.708 25.539 15.6842 25.5823C15.6605 25.6256 15.6455 25.6731 15.6401 25.7222C15.6348 25.7713 15.6391 25.821 15.653 25.8684C15.6668 25.9158 15.6898 25.9601 15.7208 25.9986C15.7517 26.0371 15.7899 26.0691 15.8332 26.0929C15.8765 26.1166 15.9241 26.1316 15.9732 26.137C16.0223 26.1424 16.072 26.138 16.1194 26.1242L16.6433 25.9748C16.7275 26.5863 16.8335 27.174 16.9625 27.7328L16.4466 27.8633C16.399 27.8753 16.3543 27.8966 16.3149 27.9259C16.2755 27.9552 16.2424 27.992 16.2172 28.0342C16.1921 28.0763 16.1755 28.123 16.1684 28.1716C16.1613 28.2202 16.1639 28.2696 16.1759 28.3172C16.1879 28.3648 16.2092 28.4095 16.2385 28.4489C16.2679 28.4882 16.3047 28.5214 16.3468 28.5466C16.4319 28.5973 16.5338 28.6122 16.6298 28.5879L17.1438 28.4579C17.3298 29.1332 17.567 29.7934 17.8535 30.4326L17.6687 30.4794C17.6212 30.4914 17.5764 30.5127 17.537 30.542C17.4977 30.5712 17.4645 30.608 17.4393 30.6501C17.4141 30.6923 17.3975 30.7389 17.3904 30.7875C17.3833 30.836 17.3858 30.8855 17.3978 30.9331C17.4098 30.9807 17.4311 31.0254 17.4604 31.0648C17.4897 31.1042 17.5264 31.1374 17.5685 31.1625C17.6107 31.1877 17.6573 31.2043 17.7059 31.2114C17.7544 31.2185 17.8039 31.216 17.8515 31.204L18.1917 31.1179C18.719 32.1768 19.5115 33.0812 20.492 33.743C20.0291 33.6752 19.577 33.5471 19.1474 33.362C16.6015 32.2095 14.958 27.9843 14.958 22.5966ZM26.3956 33.8436H24.8956C24.4355 33.7644 23.9874 33.6272 23.5619 33.4352C22.7746 33.0353 22.1051 32.4371 21.6196 31.6996L21.9682 31.6074C22.064 31.5822 22.1459 31.5199 22.1958 31.4343C22.2457 31.3487 22.2596 31.2468 22.2344 31.151C22.2092 31.0552 22.1469 30.9733 22.0613 30.9234C21.9757 30.8734 21.8738 30.8596 21.7779 30.8848L21.1953 31.0382C20.8441 30.4219 20.5529 29.7733 20.3257 29.1014L21.0872 28.9022C21.1346 28.8896 21.1791 28.8679 21.2182 28.8382C21.2572 28.8084 21.29 28.7713 21.3147 28.7289C21.3394 28.6865 21.3555 28.6396 21.3621 28.591C21.3687 28.5424 21.3656 28.4929 21.3531 28.4455C21.3406 28.398 21.3189 28.3535 21.2891 28.3145C21.2594 28.2754 21.2223 28.2426 21.1799 28.2179C21.1375 28.1932 21.0906 28.1771 21.042 28.1705C20.9933 28.1639 20.9439 28.167 20.8964 28.1795L20.0996 28.3897C19.9359 27.8162 19.8029 27.2343 19.7012 26.6466L20.7809 26.3617C20.8283 26.3492 20.8729 26.3275 20.9119 26.2977C20.9509 26.268 20.9838 26.2309 21.0084 26.1885C21.0331 26.1461 21.0492 26.0992 21.0558 26.0506C21.0624 26.0019 21.0594 25.9525 21.0468 25.905C21.0343 25.8576 21.0126 25.8131 20.9828 25.774C20.9531 25.735 20.916 25.7022 20.8736 25.6775C20.8312 25.6528 20.7843 25.6367 20.7357 25.6301C20.687 25.6235 20.6376 25.6266 20.5901 25.6391L19.5821 25.905C19.5084 25.3622 19.4561 24.7825 19.4203 24.1769L20.5712 23.8437C20.6183 23.8301 20.6623 23.8073 20.7006 23.7767C20.739 23.746 20.7709 23.7081 20.7945 23.6652C20.8182 23.6222 20.8332 23.575 20.8386 23.5263C20.8441 23.4775 20.8398 23.4282 20.8262 23.381C20.8126 23.3339 20.7898 23.2899 20.7592 23.2516C20.7285 23.2133 20.6907 23.1814 20.6477 23.1577C20.6047 23.134 20.5575 23.1191 20.5088 23.1136C20.46 23.1082 20.4107 23.1124 20.3635 23.126L19.3869 23.4089C19.379 23.142 19.3695 22.8775 19.3695 22.5991C19.3695 22.2849 19.379 21.9617 19.3929 21.635L20.6036 21.3152C20.6994 21.29 20.7813 21.2277 20.8312 21.1421C20.8811 21.0565 20.895 20.9546 20.8698 20.8588C20.8446 20.763 20.7823 20.6811 20.6967 20.6312C20.6111 20.5812 20.5092 20.5674 20.4133 20.5926L19.4402 20.8496C19.483 20.3017 19.5468 19.7435 19.6324 19.1872L20.9084 18.8311C20.9997 18.8011 21.076 18.7371 21.1214 18.6523C21.1667 18.5676 21.1778 18.4687 21.1521 18.376C21.1265 18.2834 21.0662 18.2042 20.9837 18.1548C20.9012 18.1054 20.8029 18.0897 20.7092 18.1109L19.7779 18.3714C19.898 17.7604 20.0513 17.1564 20.237 16.5621L21.4273 16.2722C21.4759 16.2615 21.5219 16.2412 21.5625 16.2125C21.6032 16.1838 21.6377 16.1473 21.664 16.1051C21.6903 16.0629 21.7079 16.0158 21.7158 15.9667C21.7237 15.9176 21.7217 15.8673 21.71 15.819C21.6982 15.7707 21.6769 15.7252 21.6473 15.6852C21.6176 15.6452 21.5804 15.6115 21.5376 15.5861C21.4948 15.5608 21.4473 15.5442 21.398 15.5374C21.3487 15.5306 21.2986 15.5337 21.2505 15.5466L20.5284 15.7224C20.7487 15.1394 21.0208 14.5774 21.3417 14.0431L22.3417 13.809C22.3895 13.7978 22.4346 13.7773 22.4744 13.7487C22.5143 13.7201 22.5481 13.6839 22.574 13.6422C22.5999 13.6005 22.6173 13.5541 22.6252 13.5057C22.6332 13.4573 22.6315 13.4078 22.6204 13.36C22.6092 13.3122 22.5887 13.2671 22.5601 13.2273C22.5315 13.1874 22.4953 13.1536 22.4536 13.1277C22.4119 13.1018 22.3655 13.0844 22.3171 13.0765C22.2687 13.0685 22.2192 13.0702 22.1714 13.0814L22.005 13.1207C22.4635 12.5593 23.0372 12.1029 23.6874 11.7825C24.0384 11.6133 24.4119 11.4954 24.7965 11.4324H26.3956C28.7264 11.4324 30.6956 16.5621 30.6956 22.638C30.6956 28.7139 28.7264 33.8436 26.3956 33.8436Z" fill="white"/>
		<path d="M22.0968 22.6375C22.0684 18.4994 22.9688 14.691 24.446 12.6999C24.4994 12.6203 24.5203 12.5233 24.5043 12.4288C24.4883 12.3343 24.4367 12.2495 24.36 12.192C24.2833 12.1345 24.1875 12.1086 24.0922 12.1197C23.997 12.1308 23.9097 12.178 23.8483 12.2517C22.2795 14.3673 21.3228 18.348 21.3522 22.64C21.3826 27.1167 22.4055 31.1771 24.0216 33.237C24.0565 33.2816 24.1011 33.3177 24.152 33.3424C24.2029 33.3672 24.2588 33.38 24.3155 33.3799C24.3992 33.3804 24.4805 33.3523 24.5461 33.3002C24.5847 33.27 24.617 33.2324 24.6411 33.1897C24.6652 33.1469 24.6806 33.0998 24.6865 33.0511C24.6924 33.0024 24.6886 32.953 24.6753 32.9058C24.6621 32.8585 24.6397 32.8144 24.6093 32.7758C23.1107 30.8694 22.1257 26.8891 22.0968 22.6375Z" fill="white"/>
		<path d="M26.9326 14.5742C26.3847 14.5742 25.5934 14.9228 24.9111 16.5758C24.2239 18.5074 23.8954 20.5483 23.9419 22.5979C23.8949 24.6491 24.2242 26.6916 24.9136 28.624C25.5934 30.275 26.3867 30.6211 26.9326 30.6211C28.8749 30.6211 29.9232 26.4875 29.9232 22.5974C29.9232 18.7073 28.8749 14.5742 26.9326 14.5742ZM26.9326 29.8746C26.4903 29.8746 26.0062 29.3153 25.6048 28.3401C24.9519 26.4979 24.6415 24.5518 24.6889 22.5979C24.6425 20.6464 24.952 18.7027 25.6023 16.8621C26.0052 15.884 26.4903 15.3232 26.9326 15.3232C27.9938 15.3232 29.1762 18.3114 29.1762 22.5999C29.1762 26.8884 27.9938 29.8746 26.9326 29.8746Z" fill="white"/>
		<path d="M25.7518 19.1474C25.7046 19.1608 25.6606 19.1834 25.6221 19.2139C25.5837 19.2444 25.5516 19.2822 25.5278 19.325C25.504 19.3679 25.4889 19.4151 25.4833 19.4638C25.4777 19.5126 25.4818 19.5619 25.4953 19.6091C25.7552 20.582 25.8812 21.5858 25.8698 22.5928C25.8847 23.6813 25.7346 24.7659 25.4246 25.8095C25.4094 25.8561 25.4036 25.9053 25.4074 25.9542C25.4112 26.0031 25.4247 26.0507 25.447 26.0944C25.4693 26.1381 25.5 26.1769 25.5374 26.2087C25.5747 26.2405 25.618 26.2646 25.6647 26.2796C25.7019 26.2922 25.7409 26.2986 25.7802 26.2986C25.8591 26.2984 25.9359 26.2734 25.9997 26.2269C26.0635 26.1805 26.1109 26.1151 26.1353 26.0401C26.4691 24.9219 26.6315 23.7596 26.6169 22.5928C26.6281 21.5169 26.4924 20.4445 26.2135 19.4054C26.2003 19.358 26.1779 19.3137 26.1475 19.275C26.1172 19.2363 26.0794 19.2041 26.0365 19.1801C25.9935 19.1561 25.9463 19.1408 25.8974 19.1352C25.8486 19.1296 25.7991 19.1338 25.7518 19.1474Z" fill="white"/>
		<path d="M23.4531 18.0547C23.4531 18.3826 23.4531 18.7235 23.4531 19.0547" stroke="white" stroke-width="2" stroke-linecap="round"/>
		<path d="M24.4531 16.0547C23.9705 17.0372 23.6476 17.9609 23.4531 19.0547" stroke="white" stroke-width="2" stroke-linecap="round"/>
		<path d="M23.4531 18.0547C23.4531 18.29 23.4531 18.5001 23.4531 18.7214C23.4531 18.8435 23.4531 18.9786 23.4531 19.0547" stroke="white" stroke-width="2" stroke-linecap="round"/>
		<path d="M23.4531 17.0547C23.4446 17.4038 23.3215 17.7521 23.126 18.0819C22.873 18.5085 22.4909 18.9112 22.4716 19.3744C22.4661 19.5069 22.359 20.0547 22.7299 20.0547" stroke="white" stroke-width="2" stroke-linecap="round"/>
		<path d="M23.3725 19.0547C23.4039 19.2782 23.5049 19.5295 23.4198 19.7543C23.3458 19.9496 23.0025 20.1031 22.9334 20.2947C22.8241 20.5983 22.8498 20.8964 22.822 21.2015C22.809 21.3436 22.7224 21.4866 22.5788 21.613C22.4397 21.7354 22.4606 21.8375 22.4606 21.971C22.4606 22.0125 22.4417 22.0632 22.464 22.1041C22.483 22.1387 22.577 22.1526 22.5822 22.1905C22.5934 22.2722 22.5822 22.3556 22.5822 22.4374C22.5822 22.556 22.4558 22.8162 22.643 22.9065C22.7853 22.9752 22.7038 23.1287 22.7038 23.2138C22.7038 23.341 22.504 23.5277 22.643 23.6349C22.7488 23.7165 22.7646 23.8156 22.7646 23.9065C22.7646 24.0226 22.8637 24.1082 22.9334 24.2152C23.0248 24.3553 22.8287 24.5378 22.9774 24.6706C23.0798 24.7621 23.2869 24.998 23.0077 25.0547" stroke="white" stroke-width="2" stroke-linecap="round"/>
		<path d="M22.4531 25.0547C22.7196 25.4247 23.0633 25.7714 23.2576 26.1674C23.4307 26.5205 23.4964 27.0019 23.8576 27.2916C23.9583 27.3724 24.1081 27.4562 24.1642 27.5612C24.1957 27.6201 24.1903 27.7018 24.2309 27.754C24.3065 27.8513 24.4056 27.9498 24.4531 28.0547" stroke="white" stroke-width="2" stroke-linecap="round"/>
		<path d="M23.4531 27.0547C23.5032 27.2507 23.5318 27.4785 23.6253 27.6616C23.6811 27.7709 23.7594 27.8584 23.7912 27.9788C23.8501 28.2025 24.0124 28.414 24.101 28.6332C24.2336 28.9614 24.3592 29.2841 24.4672 29.6202C24.5329 29.8244 24.6289 30.1106 24.7645 30.2715C24.8423 30.3639 24.9632 30.4084 25.0525 30.4876C25.1448 30.5695 25.1764 30.6892 25.2559 30.7788C25.3364 30.8695 25.3987 30.9481 25.4531 31.0547" stroke="white" stroke-width="2" stroke-linecap="round"/>
		<path d="M25.4531 30.0547C25.5378 30.2268 25.6692 30.4656 25.842 30.5817C26.0227 30.7032 26.1871 30.8286 26.3482 30.969C26.4883 31.091 26.7749 31.0469 26.9531 31.0469C27.1615 31.0469 27.2753 31.0018 27.4531 30.9501" stroke="white" stroke-width="2" stroke-linecap="round"/>
		<path d="M26.4531 32.0547C26.9074 32.0547 27.4177 31.8761 27.7925 31.674C28.0889 31.5142 28.2452 31.2789 28.4531 31.0547" stroke="white" stroke-width="2" stroke-linecap="round"/>
		<path d="M28.4531 30.0547C28.5927 29.9918 28.6936 29.9624 28.7997 29.8514C28.9131 29.7329 29.0176 29.5949 29.1005 29.4512C29.1844 29.3055 29.1671 29.1036 29.2599 28.965C29.2989 28.9068 29.3838 28.8235 29.3879 28.7491C29.3952 28.6157 29.4096 28.4865 29.4096 28.3501C29.4096 28.3029 29.4165 28.0738 29.4531 28.0547" stroke="white" stroke-width="2" stroke-linecap="round"/>
		<path d="M28.4531 30.0547C28.45 30.3292 28.3864 30.5644 28.3637 30.8301C28.3537 30.9466 28.3302 31.1623 28.2767 31.2474C28.2364 31.3114 28.1793 31.3669 28.1541 31.4479C28.1269 31.5353 28.1105 31.6182 28.0561 31.6807C27.9952 31.7507 27.9712 31.8721 27.9127 31.9386C27.8185 32.0457 27.7229 32.1372 27.6468 32.2789C27.5661 32.4288 27.4227 32.4806 27.3673 32.6334C27.3469 32.6897 27.2392 32.7453 27.1982 32.7624C27.1463 32.784 27.0916 32.8823 27.0414 32.9235C26.8639 33.0694 26.6515 33.0525 26.4494 33.0525C26.3234 33.0525 26.1968 33.0575 26.0708 33.0525C25.9532 33.0478 25.8674 32.9245 25.7816 32.8268C25.7218 32.759 25.6369 32.7402 25.5806 32.6728C25.5309 32.6134 25.5004 32.5183 25.4531 32.4723" stroke="white" stroke-width="2" stroke-linecap="round"/>
		<path d="M26.4531 32.0493C26.021 32.0493 25.5856 32.0893 25.1698 31.9518C24.8009 31.8297 24.5486 31.412 24.2132 31.2263C24.1112 31.1698 23.988 31.1227 23.8983 31.049C23.8382 30.9996 23.8611 30.8974 23.7835 30.8584C23.7172 30.8251 23.6452 30.6613 23.6452 30.5865C23.6452 30.5037 23.6351 30.4175 23.6172 30.3368C23.6094 30.3014 23.524 30.2616 23.5142 30.1979C23.4913 30.0483 23.4902 29.8874 23.4862 29.7355C23.4819 29.5683 23.431 29.3176 23.2493 29.2568C23.0787 29.1997 23.1472 29.0221 23.0624 28.9051C22.8584 28.6235 22.9035 28.2679 22.9035 27.9388C22.9035 27.729 22.9035 27.5192 22.9035 27.3094C22.9035 27.2277 22.897 27.1334 22.8711 27.0553C22.852 26.9977 22.7975 26.9357 22.7975 26.875C22.7975 26.7402 22.771 26.6025 22.771 26.4642C22.771 26.3928 22.771 26.3214 22.771 26.25C22.771 26.0784 22.6368 26.0905 22.5591 25.9648C22.5049 25.8773 22.5443 25.7549 22.5267 25.6575C22.5107 25.5692 22.5061 25.4904 22.5061 25.4004C22.5061 25.3256 22.4531 25.3171 22.4531 25.2409C22.4531 25.1788 22.4531 25.1167 22.4531 25.0547" stroke="white" stroke-width="2" stroke-linecap="round"/>
		<path d="M23.4531 29.0547C23.5214 29.2364 23.5704 29.4496 23.6845 29.6153C23.7558 29.7187 23.7355 29.8021 23.769 29.9167C23.7938 30.0016 23.8378 30.0833 23.8663 30.1677C23.9016 30.2721 24.0055 30.334 24.0408 30.4333C24.1705 30.7977 24.2232 31.1889 24.4302 31.53C24.5291 31.693 24.6034 31.8428 24.6689 32.0237C24.6959 32.0981 24.645 32.1967 24.6799 32.2665C24.7367 32.3798 24.8347 32.5172 24.9573 32.5876C25.0622 32.6478 25.1645 32.6971 25.2529 32.7668C25.3046 32.8075 25.4158 32.812 25.4715 32.8532C25.6381 32.9764 25.8999 32.9508 26.0978 33.021C26.3187 33.0994 26.5629 33.0208 26.7736 32.9868C26.9971 32.9507 27.2889 32.8669 27.4531 32.7212" stroke="white" stroke-width="2" stroke-linecap="round"/>
		<path d="M27.4531 32.0547C27.1645 32.3416 26.7743 32.5686 26.3675 32.7411C26.1748 32.8228 25.9338 33.0391 25.71 33.0511C25.5606 33.0591 25.407 33.0511 25.2574 33.0511C25.1344 33.0511 25.0103 33.0549 24.8874 33.0511C24.8326 33.0494 24.7676 32.972 24.7284 32.9404C24.6774 32.8994 24.653 32.8332 24.603 32.7854C24.5532 32.7379 24.4896 32.667 24.4531 32.6083" stroke="white" stroke-width="2" stroke-linecap="round"/>
		<path d="M23.294 27.0547C23.0912 26.8219 22.9394 26.4508 22.8009 26.1672C22.7097 25.9806 22.7424 25.849 22.614 25.6943C22.5908 25.6664 22.55 25.4632 22.5466 25.418C22.5355 25.2711 22.4531 25.1591 22.4531 25.0088C22.4531 24.7646 22.5466 24.5483 22.5466 24.2914C22.5466 24.2435 22.7117 24.5268 22.7438 24.5996C22.8628 24.8694 23.0528 25.0588 23.1798 25.3117C23.2978 25.5466 23.315 25.8028 23.4238 26.0503C23.5257 26.2823 23.3315 25.9597 23.3044 25.8856C23.1673 25.5115 22.9869 25.1361 22.8995 24.7484C22.7718 24.182 22.8268 23.5733 22.8268 22.9921C22.8268 22.2181 22.8268 21.444 22.8268 20.6699C22.8268 20.3577 22.9203 20.1093 22.9203 19.8117C22.9203 19.5956 22.9203 19.3795 22.9203 19.1634C22.9203 18.9243 22.9203 18.6851 22.9203 18.446C22.9203 18.0812 23.1071 17.7617 23.1071 17.3938C23.1071 17.2112 23.1768 17.0089 23.2032 16.8199C23.2204 16.6966 23.294 16.5893 23.294 16.4586C23.294 16.3213 23.2654 16.1704 23.3407 16.0547" stroke="white" stroke-width="2" stroke-linecap="round"/>
		<path d="M26.4531 12.0547C26.2946 12.0911 26.2281 12.1591 26.1061 12.25C26.0077 12.3232 25.8778 12.3603 25.7745 12.4287C25.7077 12.4729 25.6312 12.54 25.5718 12.5942C25.5254 12.6365 25.5011 12.6908 25.4618 12.7381C25.3924 12.8217 25.2829 12.8524 25.1921 12.9086C24.9144 13.0804 24.7651 13.2526 24.5942 13.4994C24.5388 13.5795 24.4568 13.6389 24.3984 13.7112C24.3485 13.773 24.3345 13.8406 24.2713 13.9015C24.0048 14.1582 23.7984 14.4637 23.6253 14.7786C23.5419 14.9303 23.5312 15.074 23.5136 15.2436C23.4937 15.4359 23.3635 15.574 23.2851 15.7466C23.1728 15.9939 23.1197 16.2334 23.036 16.4913C22.9939 16.6212 23.0172 16.7736 22.9587 16.8968C22.8976 17.0255 22.9308 17.1705 22.8797 17.2972C22.7573 17.6004 22.6374 17.9298 22.5893 18.2537C22.568 18.3978 22.5152 18.5164 22.4708 18.6608C22.4355 18.7755 22.4639 18.9345 22.4639 19.0547" stroke="white" stroke-width="2" stroke-linecap="round"/>
		<path d="M23.4531 16.0547C23.6757 15.9486 23.7735 15.7798 23.8725 15.5984C23.9935 15.3764 24.2121 15.2331 24.3725 15.0356C24.4983 14.8806 24.5824 14.7021 24.7506 14.5738C24.9047 14.4564 25.0135 14.2951 25.1807 14.1858C25.3178 14.0963 25.452 13.9823 25.5499 13.8662C25.6041 13.8019 25.6595 13.708 25.7434 13.664C25.8377 13.6146 25.9743 13.5573 26.0481 13.485C26.1546 13.3806 26.4045 13.3341 26.5427 13.2432C26.8212 13.0602 27.1009 13.0547 27.4531 13.0547" stroke="white" stroke-width="2" stroke-linecap="round"/>
		<path d="M27.4531 13.0547C27.2765 13.2645 27.0456 13.438 26.8752 13.6449C26.7945 13.7429 26.6381 13.8114 26.5404 13.903C26.4125 14.0229 26.2702 14.1206 26.1198 14.2159C25.9949 14.295 25.8856 14.3872 25.7833 14.4932C25.6632 14.6178 25.4822 14.6754 25.3721 14.8006C25.2555 14.9332 25.0849 15.0536 24.9469 15.1694C24.8935 15.2142 24.818 15.2706 24.774 15.3197C24.7387 15.3591 24.6809 15.4579 24.6369 15.4836C24.451 15.5924 24.4531 15.8766 24.4531 16.0547" stroke="white" stroke-width="2" stroke-linecap="round"/>
		<path d="M28.3946 14.1577C28.4406 14.2846 28.5203 14.4038 28.5584 14.5294C28.6191 14.7299 28.7463 14.892 28.8053 15.0899C28.8333 15.1838 28.8668 15.2446 28.9222 15.3193C28.9671 15.3798 28.9396 15.4516 28.9664 15.5168C29.0168 15.6394 29.0846 15.748 29.1536 15.858C29.2128 15.9526 29.2382 16.0578 29.3069 16.1455C29.3345 16.1808 29.3553 16.2205 29.3771 16.2602C29.422 16.3423 29.5062 16.3608 29.559 16.4316C29.6138 16.505 29.5971 16.5937 29.6578 16.6567C29.7313 16.7329 29.7713 16.8225 29.7929 16.9282C29.8101 17.012 29.7981 17.1098 29.7981 17.1954C29.7981 17.3234 29.83 17.4095 29.8553 17.5308C29.9023 17.7557 29.9514 17.9661 30.01 18.1842C30.0521 18.3412 30.0789 18.5268 30.0789 18.6924C30.0789 18.7761 30.0773 18.8476 30.0607 18.9291C30.0447 19.0073 30.0789 19.0647 30.0789 19.1368C30.0789 19.282 30.1022 19.418 30.1022 19.5622C30.1022 19.6729 30.149 19.7618 30.149 19.8715C30.149 20.1082 30.149 20.3449 30.149 20.5816C30.149 20.9376 30.2289 21.3232 30.136 21.6721C30.0777 21.8911 30.0203 22.1049 29.9723 22.327C29.913 22.6014 29.8917 22.9012 29.8917 23.1837C29.8917 23.3505 29.8323 23.4984 29.8228 23.6614C29.8112 23.8622 29.823 24.0602 29.8033 24.2611C29.779 24.5094 29.8295 24.7602 29.8215 25.0104C29.8192 25.0846 29.7853 25.1556 29.7735 25.2282C29.7664 25.2713 29.7417 25.3095 29.728 25.3501C29.6991 25.4356 29.7147 25.5272 29.6838 25.6115C29.6227 25.7779 29.5381 25.9818 29.5174 26.1604C29.5099 26.2256 29.5082 26.3466 29.4811 26.4029C29.4004 26.5703 29.4384 26.7727 29.3641 26.9387C29.3151 27.0481 29.2835 27.2264 29.2835 27.3511C29.2835 27.532 29.2479 27.6634 29.164 27.8157C29.1438 27.8523 29.1164 28.0273 29.19 27.958C29.2766 27.8765 29.3543 27.8034 29.4369 27.7112C29.508 27.6317 29.5791 27.58 29.6344 27.4818C29.6722 27.4147 29.6834 27.3228 29.7163 27.2494C29.7854 27.095 29.8296 26.8681 29.8462 26.7006C29.8539 26.6239 29.8855 26.4832 29.9151 26.4131C29.9798 26.2599 29.9706 26.1466 29.9983 25.9789C30.0178 25.8607 30.0789 25.7715 30.0789 25.6464C30.0789 25.4586 30.0789 25.2708 30.0789 25.083C30.0789 25.0117 30.1002 24.875 30.0672 24.8085C30.0263 24.7264 30.0789 24.5307 30.0789 24.4382C30.0789 24.1068 30.1852 23.808 30.2426 23.4871C30.3024 23.1532 30.3359 22.839 30.3011 22.4968C30.2861 22.3499 30.2894 22.2031 30.2894 22.0554C30.2894 21.9446 30.2817 21.9457 30.2946 22.0685C30.331 22.4167 30.4297 22.7269 30.4297 23.0835C30.4297 23.4459 30.4531 23.806 30.4531 24.1682C30.4531 24.7168 30.4297 25.2654 30.4297 25.8148C30.4297 26.1284 30.3149 26.3141 30.2062 26.5873C30.1565 26.7124 30.1983 26.841 30.162 26.9648C30.127 27.0846 30.0973 27.1943 30.0672 27.3177C30.0311 27.4655 30.0095 27.6318 29.9151 27.7489C29.8771 27.7961 29.8777 27.8663 29.8332 27.9159C29.7999 27.9532 29.7992 28.0006 29.7631 28.0365C29.7299 28.0694 29.7264 28.0571 29.728 28.0045C29.7327 27.8417 29.7977 27.6712 29.8319 27.5137C30.0273 26.6157 30.149 25.7218 30.149 24.7955C30.149 23.9416 30.0574 23.1082 29.9515 22.2631C29.9213 22.022 29.9385 21.7712 29.9385 21.5283C29.9385 21.2854 29.9169 21.0638 29.893 20.8241C29.8686 20.5786 29.7786 20.3033 29.6929 20.0748C29.5877 19.7946 29.5165 19.5067 29.4473 19.2166C29.4144 19.0789 29.3503 18.9725 29.3069 18.8406C29.24 18.6371 29.2133 18.3998 29.2133 18.1828C29.2133 17.9357 29.1177 17.7148 29.0964 17.4771C29.0777 17.2678 29.0969 17.0166 29.0041 16.8265C28.9474 16.7105 28.9459 16.6053 28.8677 16.4955C28.7585 16.3423 28.7288 16.1292 28.6844 15.9422C28.6292 15.7095 28.5086 15.5699 28.4037 15.3701C28.3621 15.2907 28.3243 15.1918 28.2673 15.1247C28.2194 15.0685 28.1544 15.0498 28.1243 14.9737C28.039 14.758 27.8953 14.6033 27.7396 14.4568C27.7137 14.4324 27.4618 14.2629 27.4589 14.3464C27.4576 14.3863 27.4366 14.5395 27.4836 14.5483C27.5584 14.5622 27.6264 14.5947 27.6981 14.6223C27.8881 14.6955 28.0365 14.8564 28.2101 14.9534C28.2584 14.9804 28.3197 14.964 28.3712 14.9795C28.4354 14.9988 28.4733 15.0572 28.535 15.0783C28.6848 15.1294 28.7561 15.2672 28.8625 15.3861C28.9529 15.4871 28.943 15.5785 28.9989 15.6925C29.0846 15.8671 29.1777 16.0047 29.2419 16.1934C29.2723 16.2827 29.3173 16.3766 29.3277 16.4722C29.3438 16.6208 29.3237 16.7591 29.368 16.905C29.4205 17.0779 29.4637 17.2526 29.5434 17.4132C29.6686 17.6652 29.8273 17.908 29.9177 18.1799C29.9973 18.4192 29.9853 18.7657 29.9853 19.0192C29.9853 19.0593 30.0075 19.2545 29.9749 19.2747C29.8413 19.3576 29.8162 19.1359 29.7955 19.0526C29.6886 18.6212 29.5247 18.2136 29.4161 17.782C29.3298 17.4394 29.1576 17.1385 29.0184 16.8193C28.9481 16.6579 28.8426 16.5254 28.7793 16.359C28.6945 16.1362 28.6448 15.8692 28.5948 15.6344C28.4971 15.176 28.4093 14.7188 28.4596 14.2477C28.4919 13.9456 28.5072 13.6846 28.3998 13.3997C28.3809 13.3494 28.406 13.2885 28.3894 13.237C28.3751 13.1927 28.288 13.0149 28.34 13.0628C28.5478 13.254 28.671 13.5184 28.8235 13.7598C29.0244 14.0778 29.2432 14.4745 29.3368 14.8561C29.3903 15.0739 29.5097 15.2784 29.546 15.4965C29.6128 15.8977 29.6344 16.2968 29.6344 16.7075C29.6344 16.9622 29.7194 17.1947 29.728 17.4451C29.7321 17.5652 29.7098 17.3423 29.7046 17.3188C29.6699 17.1639 29.6398 16.9957 29.5876 16.8498" stroke="white" stroke-linecap="round"/>
		<path d="M26.4531 12.0547C26.3404 12.0652 26.1992 12.0449 26.1037 12.1139C26.0071 12.1838 25.8891 12.2284 25.7905 12.2989C25.7497 12.328 25.6995 12.3377 25.6586 12.3667C25.6099 12.4013 25.5637 12.4259 25.5087 12.4499C25.4157 12.4905 25.2931 12.5258 25.2135 12.587C25.1811 12.6119 25.1418 12.6192 25.1399 12.6681C25.1384 12.7055 25.1215 12.7279 25.1064 12.7613C25.0768 12.8266 25.0349 12.8757 24.9926 12.9343C24.9632 12.9749 24.951 13.0216 24.923 13.0633C24.8868 13.1174 24.8393 13.1574 24.7911 13.1997C24.7477 13.2379 24.7203 13.2966 24.676 13.3308C24.6224 13.3722 24.6054 13.454 24.5796 13.5104C24.5659 13.5406 24.576 13.577 24.5642 13.6089C24.5401 13.6744 24.5229 13.7042 24.5254 13.7766C24.5274 13.8326 24.5419 13.8543 24.516 13.911C24.4931 13.9613 24.4849 14.0074 24.4531 14.0547" stroke="white" stroke-linecap="round"/>
		<path d="M25.4531 12.0547C25.3972 12.0967 25.3449 12.1428 25.2869 12.1827C25.2115 12.2347 25.1268 12.2734 25.0456 12.3179C24.981 12.3533 24.9239 12.3947 24.8654 12.4365C24.8307 12.4612 24.7878 12.4752 24.7556 12.5023C24.7101 12.5407 24.6771 12.5662 24.6585 12.6177C24.6454 12.6541 24.6037 12.6808 24.5838 12.7143C24.5601 12.7543 24.5058 12.7947 24.5035 12.8403C24.5019 12.8736 24.4992 12.9107 24.5101 12.9428C24.5268 12.9922 24.4913 13.0225 24.4531 13.0547" stroke="white" stroke-linecap="round"/>
	</symbol>

	<symbol id="yandex-icon">
		<path d="M3.56006 18C3.56006 9.7155 10.2741 3 18.5601 3C26.8431 3 33.5601 9.7155 33.5601 18C33.5601 26.2845 26.8431 33 18.5601 33C10.2741 33 3.56006 26.2845 3.56006 18Z" fill="#FC3F1D"/>
		<path d="M20.4799 11.4984H19.0939C16.5529 11.4984 15.2164 12.7854 15.2164 14.6829C15.2164 16.8279 16.1404 17.8329 18.0379 19.1214L19.6054 20.1774L15.1009 26.9079H11.7349L15.7774 20.8869C13.4524 19.2204 12.1474 17.6019 12.1474 14.8644C12.1474 11.4324 14.5399 9.08936 19.0774 9.08936H23.5819V26.8914H20.4799V11.4984Z" fill="white"/>
	</symbol>

	<symbol id="telegram-icon">
		<path d="M25.8082 0.205848C22.0879 1.74646 6.13647 8.35388 1.72895 10.1548C-1.22701 11.3083 0.503289 12.3897 0.503289 12.3897C0.503289 12.3897 3.02645 13.2547 5.18924 13.9036C7.35204 14.5525 8.50557 13.8315 8.50557 13.8315L18.6706 6.98246C22.2752 4.53144 21.4102 6.54996 20.5452 7.41496C18.6706 9.28952 15.5707 12.2452 12.9754 14.6244C11.8219 15.6336 12.3987 16.4989 12.9033 16.9314C14.7778 18.5175 19.8963 21.7617 20.1848 21.9781C21.7079 23.0562 24.7037 24.6084 25.1593 21.3292L26.9617 10.0106C27.5385 6.1896 28.1153 2.65688 28.1874 1.64761C28.4035 -0.803417 25.8082 0.205848 25.8082 0.205848Z"/>
	</symbol>

	<symbol id="address-icon-marker">
		<path d="M12 23C10.18 23 3 17.32 3 10C3 7.61305 3.94821 5.32387 5.63604 3.63604C7.32387 1.94821 9.61305 1 12 1C14.3869 1 16.6761 1.94821 18.364 3.63604C20.0518 5.32387 21 7.61305 21 10C21 17.32 13.82 23 12 23ZM12 3C10.1435 3 8.36301 3.7375 7.05025 5.05025C5.7375 6.36301 5 8.14348 5 10C5 16.1 10.81 20.46 12 21C13.19 20.49 19 16.13 19 10C19 8.14348 18.2625 6.36301 16.9497 5.05025C15.637 3.7375 13.8565 3 12 3ZM12 15C11.0111 15 10.0444 14.7068 9.22215 14.1573C8.3999 13.6079 7.75904 12.827 7.3806 11.9134C7.00216 10.9998 6.90315 9.99445 7.09607 9.02455C7.289 8.05464 7.7652 7.16373 8.46447 6.46447C9.16373 5.7652 10.0546 5.289 11.0245 5.09607C11.9945 4.90315 12.9998 5.00216 13.9134 5.3806C14.827 5.75904 15.6079 6.3999 16.1573 7.22215C16.7068 8.04439 17 9.01109 17 10C17 11.3261 16.4732 12.5979 15.5355 13.5355C14.5979 14.4732 13.3261 15 12 15ZM12 7C11.4067 7 10.8266 7.17595 10.3333 7.50559C9.83994 7.83524 9.45542 8.30377 9.22836 8.85195C9.0013 9.40013 8.94189 10.0033 9.05764 10.5853C9.1734 11.1672 9.45912 11.7018 9.87868 12.1213C10.2982 12.5409 10.8328 12.8266 11.4147 12.9424C11.9967 13.0581 12.5999 12.9987 13.1481 12.7716C13.6962 12.5446 14.1648 12.1601 14.4944 11.6667C14.8241 11.1734 15 10.5933 15 10C15 9.20435 14.6839 8.44129 14.1213 7.87868C13.5587 7.31607 12.7956 7 12 7Z" fill="#69687C"/>
	</symbol>

	<symbol id="address-icon-phone">
		<g clip-path="url(#clip0_5346_33494)">
			<path fill-rule="evenodd" clip-rule="evenodd" d="M21.9994 16.9738V19.9846C22.0005 20.2642 21.9432 20.5408 21.831 20.7969C21.7188 21.053 21.5542 21.2829 21.3478 21.4719C21.1415 21.6608 20.8978 21.8047 20.6325 21.8942C20.3672 21.9838 20.0861 22.017 19.8072 21.9919C16.7128 21.6563 13.7404 20.601 11.1289 18.9108C8.69921 17.3699 6.63926 15.3141 5.09534 12.8892C3.39586 10.271 2.33824 7.29008 2.00816 4.18795C1.98303 3.91042 2.01608 3.63071 2.1052 3.36663C2.19432 3.10254 2.33757 2.85987 2.52581 2.65407C2.71405 2.44826 2.94317 2.28383 3.19858 2.17123C3.45398 2.05864 3.73008 2.00036 4.00929 2.0001H7.02608C7.5141 1.9953 7.98722 2.16778 8.35725 2.48537C8.72727 2.80297 8.96896 3.24401 9.03727 3.72629C9.16498 4.68975 9.40029 5.63615 9.74118 6.54642C9.87648 6.90563 9.90576 7.29602 9.82556 7.67133C9.74536 8.04665 9.55903 8.39115 9.28867 8.66402L8.01156 9.93859C9.44308 12.4512 11.5276 14.5315 14.0451 15.9602L15.3222 14.6856C15.5956 14.4158 15.9408 14.2298 16.3169 14.1498C16.6929 14.0698 17.0841 14.099 17.444 14.234C18.3561 14.5742 19.3044 14.8091 20.2698 14.9365C20.7582 15.0053 21.2044 15.2509 21.5233 15.6265C21.8422 16.0021 22.0116 16.4817 21.9994 16.9738Z" stroke="#69687C" stroke-width="2.18182" stroke-linecap="round" stroke-linejoin="round"/>
		</g>
		<defs>
			<clipPath id="clip0_5346_33494">
				<rect width="24" height="24" fill="white"/>
			</clipPath>
		</defs>
	</symbol>

	<symbol id="address-icon-clock">
		<path d="M12.0004 5.33337C11.8911 5.33625 11.7826 5.31341 11.6837 5.2667C11.5828 5.22443 11.4898 5.16525 11.4087 5.0917C11.2538 4.93373 11.167 4.7213 11.167 4.50003C11.167 4.27877 11.2538 4.06634 11.4087 3.90837C11.4898 3.83482 11.5828 3.77564 11.6837 3.73337C11.8355 3.66955 12.0027 3.65212 12.1644 3.68326C12.326 3.71441 12.4748 3.79274 12.592 3.90837C12.7442 4.06815 12.8305 4.27943 12.8337 4.50003C12.8324 4.60893 12.8097 4.71652 12.767 4.8167C12.7268 4.91869 12.6674 5.01203 12.592 5.0917C12.4323 5.24384 12.221 5.33013 12.0004 5.33337ZM19.5004 12.8334C19.3099 12.8315 19.1259 12.7637 18.9797 12.6416C18.8335 12.5194 18.734 12.3504 18.6983 12.1633C18.6625 11.9762 18.6926 11.7825 18.7834 11.615C18.8743 11.4476 19.0203 11.3167 19.1966 11.2447C19.373 11.1726 19.5689 11.1638 19.751 11.2198C19.9331 11.2758 20.0902 11.3931 20.1957 11.5517C20.3011 11.7104 20.3484 11.9006 20.3295 12.0902C20.3106 12.2798 20.2267 12.457 20.092 12.5917C19.9323 12.744 19.721 12.8303 19.5004 12.8334ZM12.0004 20.3334C11.8915 20.332 11.7839 20.3094 11.6837 20.2667C11.5828 20.2244 11.4898 20.1652 11.4087 20.0917C11.2538 19.9337 11.167 19.7213 11.167 19.5C11.167 19.2788 11.2538 19.0663 11.4087 18.9084C11.4898 18.8348 11.5828 18.7756 11.6837 18.7334C11.8358 18.6714 12.0026 18.6549 12.1639 18.686C12.3251 18.7171 12.4739 18.7943 12.592 18.9084C12.7096 19.0249 12.7897 19.1738 12.8223 19.3361C12.8548 19.4984 12.8383 19.6667 12.7748 19.8196C12.7114 19.9725 12.6038 20.103 12.4659 20.1945C12.3279 20.286 12.1659 20.3343 12.0004 20.3334ZM4.50037 12.8334C4.39147 12.832 4.28389 12.8094 4.1837 12.7667C4.08172 12.7264 3.98838 12.667 3.9087 12.5917C3.75378 12.4337 3.66699 12.2213 3.66699 12C3.66699 11.7788 3.75378 11.5663 3.9087 11.4084C4.06986 11.2597 4.2811 11.1771 4.50037 11.1771C4.71965 11.1771 4.93088 11.2597 5.09204 11.4084C5.24696 11.5663 5.33375 11.7788 5.33375 12C5.33375 12.2213 5.24696 12.4337 5.09204 12.5917C4.93225 12.7438 4.72098 12.8301 4.50037 12.8334ZM12.0004 12.8334C11.7794 12.8333 11.5674 12.7455 11.4112 12.5892L7.24454 8.42253C7.09274 8.26537 7.00874 8.05486 7.01064 7.83637C7.01254 7.61787 7.10018 7.40886 7.25469 7.25435C7.4092 7.09985 7.61821 7.0122 7.8367 7.01031C8.0552 7.00841 8.2657 7.0924 8.42287 7.2442L12.5895 11.4109C12.706 11.5274 12.7854 11.6759 12.8175 11.8375C12.8497 11.9991 12.8332 12.1667 12.7701 12.3189C12.707 12.4712 12.6003 12.6013 12.4633 12.6929C12.3262 12.7844 12.1652 12.8333 12.0004 12.8334Z" fill="#69687C"/>
		<path d="M11.9993 12.8337C11.8244 12.8337 11.654 12.7786 11.5121 12.6764C11.3702 12.5741 11.2641 12.4298 11.2088 12.2639C11.1535 12.0979 11.1518 11.9188 11.2039 11.7519C11.2561 11.5849 11.3594 11.4386 11.4993 11.3337L14.8327 8.83366C15.0095 8.70105 15.2317 8.64411 15.4505 8.67537C15.6693 8.70663 15.8667 8.82352 15.9993 9.00033C16.132 9.17714 16.1889 9.39939 16.1576 9.61818C16.1264 9.83697 16.0095 10.0344 15.8327 10.167L12.4993 12.667C12.3553 12.7755 12.1797 12.834 11.9993 12.8337Z" fill="#69687C"/>
		<path d="M12 22C10.0222 22 8.08879 21.4135 6.4443 20.3147C4.79981 19.2159 3.51809 17.6541 2.76121 15.8268C2.00433 13.9996 1.8063 11.9889 2.19215 10.0491C2.578 8.10929 3.53041 6.32746 4.92894 4.92894C6.32746 3.53041 8.10929 2.578 10.0491 2.19215C11.9889 1.8063 13.9996 2.00433 15.8268 2.76121C17.6541 3.51809 19.2159 4.79981 20.3147 6.4443C21.4135 8.08879 22 10.0222 22 12C21.9971 14.6513 20.9426 17.1932 19.0679 19.0679C17.1932 20.9426 14.6513 21.9971 12 22ZM12 3.66667C10.3518 3.66667 8.74066 4.15541 7.37025 5.07109C5.99984 5.98677 4.93174 7.28826 4.30101 8.81097C3.67028 10.3337 3.50525 12.0092 3.82679 13.6258C4.14834 15.2423 4.94201 16.7271 6.10745 17.8926C7.27288 19.058 8.75774 19.8517 10.3743 20.1732C11.9908 20.4948 13.6663 20.3297 15.189 19.699C16.7117 19.0683 18.0132 18.0002 18.9289 16.6298C19.8446 15.2593 20.3333 13.6482 20.3333 12C20.3309 9.79061 19.4522 7.6724 17.8899 6.11013C16.3276 4.54785 14.2094 3.6691 12 3.66667Z" fill="#69687C"/>
	</symbol>

	<symbol id="address-icon-map">
		<path d="M1 6V22L8 18L16 22L23 18V2L16 6L8 2L1 6Z" stroke="#69687C" stroke-width="2" stroke-linecap="round" stroke-linejoin="round"/>
		<path d="M8 2V18" stroke="#69687C" stroke-width="2" stroke-linecap="round" stroke-linejoin="round"/>
		<path d="M16 6V22" stroke="#69687C" stroke-width="2" stroke-linecap="round" stroke-linejoin="round"/>
	</symbol>

	<symbol id="address-icon-navigate">
		<path d="M3 11L22 2L13 21L11 13L3 11Z" stroke="#69687C" stroke-width="2" stroke-linecap="round" stroke-linejoin="round"/>
	</symbol>

	<symbol id="attantion-icon">
		<path d="M24.9999 20.0002L14.7399 2.00022C14.5654 1.69243 14.3125 1.43641 14.0068 1.25829C13.7011 1.08017 13.3537 0.986328 12.9999 0.986328C12.6461 0.986328 12.2986 1.08017 11.993 1.25829C11.6873 1.43641 11.4343 1.69243 11.2599 2.00022L0.999883 20.0002C0.824433 20.3041 0.732024 20.6488 0.731934 20.9997C0.731844 21.3506 0.824076 21.6954 0.99937 21.9993C1.17466 22.3033 1.42685 22.5558 1.7306 22.7315C2.03436 22.9072 2.37898 22.9999 2.72988 23.0002H23.2799C23.6299 22.9981 23.9733 22.9042 24.2757 22.7278C24.578 22.5514 24.8288 22.2987 25.0029 21.995C25.177 21.6913 25.2684 21.3473 25.2679 20.9972C25.2673 20.6472 25.1749 20.3034 24.9999 20.0002ZM13.9999 18.0002C13.9999 18.2654 13.8945 18.5198 13.707 18.7073C13.5195 18.8949 13.2651 19.0002 12.9999 19.0002C12.7347 19.0002 12.4803 18.8949 12.2928 18.7073C12.1052 18.5198 11.9999 18.2654 11.9999 18.0002V17.0002C11.9999 16.735 12.1052 16.4807 12.2928 16.2931C12.4803 16.1056 12.7347 16.0002 12.9999 16.0002C13.2651 16.0002 13.5195 16.1056 13.707 16.2931C13.8945 16.4807 13.9999 16.735 13.9999 17.0002V18.0002ZM13.9999 14.0002C13.9999 14.2654 13.8945 14.5198 13.707 14.7073C13.5195 14.8949 13.2651 15.0002 12.9999 15.0002C12.7347 15.0002 12.4803 14.8949 12.2928 14.7073C12.1052 14.5198 11.9999 14.2654 11.9999 14.0002V8.00022C11.9999 7.73501 12.1052 7.48065 12.2928 7.29312C12.4803 7.10558 12.7347 7.00022 12.9999 7.00022C13.2651 7.00022 13.5195 7.10558 13.707 7.29312C13.8945 7.48065 13.9999 7.73501 13.9999 8.00022V14.0002Z" fill="#FE4F02"/>
	</symbol>
</svg> 


